KleiMed.ufo
<glyph name="exclam" format="1">
  <advance width="246"/>
  <unicode hex="0021"/>
  <outline>
    <contour>
      <point x="70" y="40" type="curve" smooth="yes"/>
      <point x="70" y="71.8525"/>
      <point x="95.667" y="98"/>
      <point x="128.507" y="98" type="curve" smooth="yes"/>
      <point x="160.388" y="98"/>
      <point x="186.507" y="71.8809"/>
      <point x="186.507" y="40" type="curve" smooth="yes"/>
      <point x="186.507" y="8.13184"/>
      <point x="160.406" y="-18.0996"/>
      <point x="128.507" y="-18.0996" type="curve" smooth="yes"/>
      <point x="95.6494" y="-18.0996"/>
      <point x="70" y="8.16016"/>
    </contour>
    <contour>
      <point x="188.507" y="696.865" type="curve"/>
      <point x="167.5" y="233.685" type="line"/>
      <point x="166.64" y="217.037"/>
      <point x="147.951" y="201.117"/>
      <point x="129.169" y="200.713" type="curve" smooth="yes"/>
      <point x="129.007" y="200.709" type="line"/>
      <point x="128.844" y="200.712" type="line" smooth="yes"/>
      <point x="109.371" y="201.102"/>
      <point x="90.4922" y="216.541"/>
      <point x="89.5156" y="233.65" type="curve"/>
      <point x="66.5068" y="696.851" type="line"/>
      <point x="66.5068" y="730.152"/>
      <point x="92.623" y="751.434"/>
      <point x="127.929" y="751.434" type="curve" smooth="yes"/>
      <point x="163.62" y="751.434"/>
      <point x="188.507" y="729.652"/>
    </contour>
  </outline>
</glyph>
<glyph name="numbersign" format="1">
  <advance width="695"/>
  <unicode hex="0023"/>
  <outline>
    <contour>
      <point x="316" y="737.333" type="curve" smooth="yes"/>
      <point x="353" y="737.333" type="line" smooth="yes"/>
      <point x="358.338" y="737.333"/>
      <point x="370" y="735.122"/>
      <point x="370" y="723" type="curve" smooth="yes"/>
      <point x="370" y="719.166" type="line"/>
      <point x="330.894" y="555" type="line"/>
      <point x="437.49" y="555" type="line"/>
      <point x="477.196" y="721.645" type="line"/>
      <point x="477.196" y="721.645"/>
      <point x="487.55" y="737.333"/>
      <point x="496" y="737.333" type="curve" smooth="yes"/>
      <point x="533" y="737.333" type="line" smooth="yes"/>
      <point x="538.338" y="737.333"/>
      <point x="550" y="735.122"/>
      <point x="550" y="723" type="curve" smooth="yes"/>
      <point x="550" y="719.166" type="line"/>
      <point x="510.894" y="555" type="line"/>
      <point x="645" y="555" type="line" smooth="yes"/>
      <point x="650.725" y="555"/>
      <point x="662" y="552.316"/>
      <point x="662" y="541" type="curve" smooth="yes"/>
      <point x="662" y="536.48"/>
      <point x="660.981" y="536.807"/>
      <point x="660.981" y="536.807" type="curve"/>
      <point x="646.641" y="492.869" type="line" smooth="yes"/>
      <point x="644.239" y="485.663"/>
      <point x="637.875" y="476"/>
      <point x="627" y="476" type="curve" smooth="yes"/>
      <point x="491.518" y="476" type="line"/>
      <point x="448.881" y="296" type="line"/>
      <point x="594" y="296" type="line" smooth="yes"/>
      <point x="599.725" y="296"/>
      <point x="611" y="293.316"/>
      <point x="611" y="282" type="curve" smooth="yes"/>
      <point x="611" y="277.64"/>
      <point x="609.916" y="277.659"/>
      <point x="609.916" y="277.659" type="curve"/>
      <point x="595.66" y="231.844" type="line"/>
      <point x="592.816" y="223.312"/>
      <point x="585.347" y="217"/>
      <point x="576" y="217" type="curve" smooth="yes"/>
      <point x="429.518" y="217" type="line"/>
      <point x="381.993" y="19.1408" type="line"/>
      <point x="381.219" y="8.95464"/>
      <point x="374.015" y="3"/>
      <point x="365" y="3" type="curve" smooth="yes"/>
      <point x="326" y="3" type="line" smooth="yes"/>
      <point x="316.373" y="3"/>
      <point x="309" y="10.373"/>
      <point x="309" y="20" type="curve" smooth="yes"/>
      <point x="309" y="20.8291" type="line"/>
      <point x="356.119" y="217" type="line"/>
      <point x="249.518" y="217" type="line"/>
      <point x="201.993" y="19.1406" type="line"/>
      <point x="201.219" y="8.95508"/>
      <point x="194.015" y="3"/>
      <point x="185" y="3" type="curve" smooth="yes"/>
      <point x="146" y="3" type="line" smooth="yes"/>
      <point x="136.373" y="3"/>
      <point x="129" y="10.3729"/>
      <point x="129" y="20" type="curve" smooth="yes"/>
      <point x="129" y="20.8289" type="line"/>
      <point x="176.12" y="217" type="line"/>
      <point x="57" y="217" type="line" smooth="yes"/>
      <point x="49.992" y="217"/>
      <point x="40" y="221.445"/>
      <point x="40" y="232" type="curve" smooth="yes"/>
      <point x="40" y="233.135"/>
      <point x="40.4634" y="236.572"/>
      <point x="41.9889" y="240.301" type="curve"/>
      <point x="54.3291" y="281.122" type="line"/>
      <point x="57.1934" y="289.718"/>
      <point x="64.6494" y="296"/>
      <point x="74" y="296" type="curve" smooth="yes"/>
      <point x="195.482" y="296" type="line"/>
      <point x="238.12" y="476" type="line"/>
      <point x="108" y="476" type="line" smooth="yes"/>
      <point x="100.992" y="476"/>
      <point x="91" y="480.445"/>
      <point x="91" y="491" type="curve" smooth="yes"/>
      <point x="91" y="492.23"/>
      <point x="91.3605" y="495.359"/>
      <point x="93.0536" y="499.591" type="curve"/>
      <point x="105.329" y="540.125" type="line"/>
      <point x="108.193" y="548.716"/>
      <point x="115.649" y="555"/>
      <point x="125" y="555" type="curve" smooth="yes"/>
      <point x="257.49" y="555" type="line"/>
      <point x="297.196" y="721.645" type="line"/>
      <point x="297.196" y="721.645"/>
      <point x="307.55" y="737.333"/>
    </contour>
    <contour>
      <point x="311.518" y="476" type="line"/>
      <point x="268.881" y="296" type="line"/>
      <point x="375.482" y="296" type="line"/>
      <point x="418.119" y="476" type="line"/>
    </contour>
  </outline>
</glyph>
<glyph name="dollar" format="1">
  <advance width="583"/>
  <unicode hex="0024"/>
  <outline>
    <contour>
      <point x="331.959" y="269.724" type="curve"/>
      <point x="323.092" y="191.916"/>
      <point x="313.905" y="125.516"/>
      <point x="308" y="71" type="curve"/>
      <point x="368.719" y="76.2959"/>
      <point x="409.642" y="119.545"/>
      <point x="409.642" y="173" type="curve" smooth="yes"/>
      <point x="409.642" y="221.631"/>
      <point x="382.613" y="243.025"/>
    </contour>
    <contour>
      <point x="378.24" y="649.138" type="line" smooth="yes"/>
      <point x="376.396" y="635.106"/>
      <point x="374.279" y="618.464"/>
      <point x="372.488" y="604.06" type="curve"/>
      <point x="424.533" y="597.352"/>
      <point x="476.94" y="581.022"/>
      <point x="476.94" y="560.219" type="curve" smooth="yes"/>
      <point x="476.94" y="550.434"/>
      <point x="464.562" y="501.087"/>
      <point x="447" y="501.087" type="curve" smooth="yes"/>
      <point x="429.471" y="501.087"/>
      <point x="410.212" y="543.303"/>
      <point x="366" y="561" type="curve"/>
      <point x="357.972" y="500.204"/>
      <point x="352.423" y="439.161"/>
      <point x="344.602" y="373.797" type="curve"/>
      <point x="426.022" y="326.961"/>
      <point x="499.283" y="284.062"/>
      <point x="499.283" y="211.976" type="curve" smooth="yes"/>
      <point x="499.283" y="143.288"/>
      <point x="458.562" y="97.8906"/>
      <point x="417.31" y="64.9912" type="curve" smooth="yes"/>
      <point x="388.595" y="42.0908"/>
      <point x="344.662" y="28.5"/>
      <point x="303.931" y="26.2539" type="curve"/>
      <point x="300.052" y="-9.35645"/>
      <point x="298.665" y="-22.4482"/>
      <point x="298.205" y="-26.7705" type="curve"/>
      <point x="287.927" y="-42.5596"/>
      <point x="272.947" y="-46.9424"/>
      <point x="258.26" y="-46.9424" type="curve" smooth="yes"/>
      <point x="247.335" y="-46.9424"/>
      <point x="236.371" y="-44.2734"/>
      <point x="228.848" y="-38.0469" type="curve" smooth="yes"/>
      <point x="225.852" y="-35.5664" type="line"/>
      <point x="226.405" y="-31.9287" type="line" smooth="yes"/>
      <point x="229.722" y="-10.1211"/>
      <point x="233.136" y="12.7266"/>
      <point x="236.066" y="32.6465" type="curve"/>
      <point x="157.164" y="48.8691"/>
      <point x="104.56" y="98.0703"/>
      <point x="104.56" y="129.079" type="curve" smooth="yes"/>
      <point x="104.56" y="148.576"/>
      <point x="128.394" y="183.2"/>
      <point x="147" y="183.2" type="curve" smooth="yes"/>
      <point x="164.431" y="183.2"/>
      <point x="183.789" y="112.536"/>
      <point x="244.783" y="85.126" type="curve"/>
      <point x="255.887" y="163.349"/>
      <point x="265.06" y="237.181"/>
      <point x="273.361" y="307.922" type="curve"/>
      <point x="201.703" y="348.013"/>
      <point x="120.485" y="398.454"/>
      <point x="120.485" y="461.93" type="curve" smooth="yes"/>
      <point x="120.485" y="534.975"/>
      <point x="185.328" y="611.011"/>
      <point x="303.695" y="619.241" type="curve"/>
      <point x="305.204" y="637.605"/>
      <point x="306.4" y="652.622"/>
      <point x="307.75" y="670" type="curve" smooth="yes"/>
      <point x="307.773" y="670" type="line"/>
      <point x="307.83" y="670" type="line" smooth="yes"/>
      <point x="310.356" y="673.526"/>
      <point x="331.482" y="674.557"/>
      <point x="342.399" y="674.557" type="curve" smooth="yes"/>
      <point x="358.089" y="674.557"/>
      <point x="377.25" y="664.998"/>
      <point x="378.281" y="650.493" type="curve" smooth="yes"/>
      <point x="378.329" y="649.813" type="line"/>
    </contour>
    <contour>
      <point x="285.822" y="407.481" type="curve"/>
      <point x="291.938" y="465.295"/>
      <point x="295.773" y="516.629"/>
      <point x="300.742" y="574.276" type="curve"/>
      <point x="233.214" y="570.962"/>
      <point x="214.819" y="522.663"/>
      <point x="214.819" y="490.696" type="curve" smooth="yes"/>
      <point x="214.819" y="454.367"/>
      <point x="243.368" y="432.202"/>
    </contour>
  </outline>
</glyph>
<glyph name="percent" format="1">
  <advance width="894"/>
  <unicode hex="0025"/>
  <outline>
    <contour>
      <point x="220.182" y="607" type="curve" smooth="yes"/>
      <point x="173.394" y="607"/>
      <point x="139" y="542.019"/>
      <point x="139" y="449" type="curve" smooth="yes"/>
      <point x="139" y="355.999"/>
      <point x="173.405" y="291"/>
      <point x="220.182" y="291" type="curve" smooth="yes"/>
      <point x="265.944" y="291"/>
      <point x="302.443" y="356.032"/>
      <point x="302.443" y="449" type="curve" smooth="yes"/>
      <point x="302.443" y="541.952"/>
      <point x="265.934" y="607"/>
    </contour>
    <contour>
      <point x="220.181" y="249" type="curve" smooth="yes"/>
      <point x="126.637" y="249"/>
      <point x="52" y="322.086"/>
      <point x="52" y="449" type="curve" smooth="yes"/>
      <point x="52" y="575.914"/>
      <point x="126.637" y="649"/>
      <point x="220.181" y="649" type="curve" smooth="yes"/>
      <point x="314.906" y="649"/>
      <point x="390.354" y="575.858"/>
      <point x="390.354" y="449" type="curve" smooth="yes"/>
      <point x="390.354" y="322.142"/>
      <point x="314.906" y="249"/>
    </contour>
    <contour>
      <point x="677.818" y="342" type="curve" smooth="yes"/>
      <point x="632.056" y="342"/>
      <point x="595.557" y="276.968"/>
      <point x="595.557" y="184" type="curve" smooth="yes"/>
      <point x="595.557" y="91.0479"/>
      <point x="632.066" y="26"/>
      <point x="677.818" y="26" type="curve" smooth="yes"/>
      <point x="723.581" y="26"/>
      <point x="759" y="91.0322"/>
      <point x="759" y="184" type="curve" smooth="yes"/>
      <point x="759" y="276.952"/>
      <point x="723.571" y="342"/>
    </contour>
    <contour>
      <point x="677.818" y="-16" type="curve" smooth="yes"/>
      <point x="583.134" y="-16"/>
      <point x="506.621" y="57.0859"/>
      <point x="506.621" y="184" type="curve" smooth="yes"/>
      <point x="506.621" y="310.914"/>
      <point x="583.134" y="384"/>
      <point x="677.818" y="384" type="curve" smooth="yes"/>
      <point x="771.363" y="384"/>
      <point x="846" y="310.914"/>
      <point x="846" y="184" type="curve" smooth="yes"/>
      <point x="846" y="57.0859"/>
      <point x="771.363" y="-16"/>
    </contour>
    <contour>
      <point x="666.081" y="709.217" type="curve"/>
      <point x="686" y="694" type="line" smooth="yes"/>
      <point x="690.489" y="691.42"/>
      <point x="694.866" y="686.887"/>
      <point x="694.866" y="680.332" type="curve" smooth="yes"/>
      <point x="692.582" y="671.175" type="line"/>
      <point x="247.536" y="-64.709" type="line"/>
      <point x="244.429" y="-69.7607"/>
      <point x="238.996" y="-70.8271"/>
      <point x="235.203" y="-70.8271" type="curve" smooth="yes"/>
      <point x="225.799" y="-70.8271"/>
      <point x="211.689" y="-59.4355"/>
      <point x="205.354" y="-56.127" type="curve" smooth="yes"/>
      <point x="200.182" y="-53.1523"/>
      <point x="197.104" y="-47.9023"/>
      <point x="197.104" y="-42.3926" type="curve" smooth="yes"/>
      <point x="197.104" y="-39.0566"/>
      <point x="198.188" y="-36.1055"/>
      <point x="199.587" y="-33.4238" type="curve" smooth="yes"/>
      <point x="643.706" y="702.705" type="line"/>
      <point x="646.601" y="707.329"/>
      <point x="651.627" y="711.123"/>
      <point x="658.09" y="711.123" type="curve" smooth="yes"/>
      <point x="661.934" y="711.123"/>
      <point x="666.081" y="709.217"/>
    </contour>
  </outline>
</glyph>
<glyph name="ampersand" format="1">
  <advance width="792"/>
  <unicode hex="0026"/>
  <outline>
    <contour>
      <point x="257.959" y="460.43" type="curve"/>
      <point x="341.411" y="533.43"/>
      <point x="342" y="577.928"/>
      <point x="342" y="619" type="curve" smooth="yes"/>
      <point x="342" y="665.809"/>
      <point x="312.101" y="702"/>
      <point x="259" y="702" type="curve" smooth="yes"/>
      <point x="201.756" y="702"/>
      <point x="177" y="643.72"/>
      <point x="177" y="604" type="curve" smooth="yes"/>
      <point x="177" y="562.693"/>
      <point x="207.664" y="511.093"/>
    </contour>
    <contour>
      <point x="480" y="235" type="curve"/>
      <point x="502" y="254"/>
      <point x="514.246" y="262.783"/>
      <point x="537.437" y="284.309" type="curve" smooth="yes"/>
      <point x="549.964" y="295.937"/>
      <point x="569.328" y="314.13"/>
      <point x="569.328" y="322.915" type="curve" smooth="yes"/>
      <point x="569.328" y="329.08"/>
      <point x="555.095" y="334.42"/>
      <point x="541.28" y="334.604" type="curve" smooth="yes"/>
      <point x="534.396" y="334.696" type="line"/>
      <point x="534.302" y="363.998" type="line"/>
      <point x="677" y="364" type="line"/>
      <point x="677" y="334.684" type="line"/>
      <point x="670.079" y="334.605" type="line" smooth="yes"/>
      <point x="658.082" y="334.471"/>
      <point x="649.681" y="328.149"/>
      <point x="641.791" y="323.761" type="curve" smooth="yes"/>
      <point x="628.196" y="316.198"/>
      <point x="582.277" y="278.378"/>
      <point x="569.95" y="266.05" type="curve" smooth="yes"/>
      <point x="547.368" y="243.469"/>
      <point x="525.047" y="225.038"/>
      <point x="508.628" y="201.285" type="curve"/>
      <point x="550.235" y="139.871"/>
      <point x="616.841" y="29"/>
      <point x="669" y="29" type="curve" smooth="yes"/>
      <point x="736.373" y="29"/>
      <point x="756.478" y="63.5928"/>
      <point x="763.959" y="76.3818" type="curve"/>
      <point x="779.624" y="60.3539" type="line"/>
      <point x="766.725" y="21.4794"/>
      <point x="732.471" y="-23"/>
      <point x="654" y="-23" type="curve" smooth="yes"/>
      <point x="550.611" y="-23"/>
      <point x="518.92" y="31.5005"/>
      <point x="477.176" y="94.1171" type="curve" smooth="yes"/>
      <point x="471.693" y="102.341"/>
      <point x="462.021" y="117.633"/>
      <point x="456.191" y="125.956" type="curve"/>
      <point x="407.888" y="52.3281"/>
      <point x="360.372" y="-17"/>
      <point x="253" y="-17" type="curve" smooth="yes"/>
      <point x="112.317" y="-17"/>
      <point x="17" y="68.2096"/>
      <point x="17" y="175" type="curve" smooth="yes"/>
      <point x="17" y="273.524"/>
      <point x="117.491" y="345.51"/>
      <point x="182" y="394" type="curve"/>
      <point x="131.032" y="445.227"/>
      <point x="86" y="512.845"/>
      <point x="86" y="567" type="curve" smooth="yes"/>
      <point x="86" y="645.406"/>
      <point x="148.835" y="742"/>
      <point x="255" y="742" type="curve" smooth="yes"/>
      <point x="404.204" y="742"/>
      <point x="413" y="640.911"/>
      <point x="413" y="595" type="curve" smooth="yes"/>
      <point x="413" y="534.221"/>
      <point x="345.884" y="478.984"/>
      <point x="285.004" y="433.941" type="curve"/>
      <point x="315.522" y="404.718"/>
      <point x="343.853" y="379.047"/>
      <point x="369.95" y="352.95" type="curve" smooth="yes"/>
      <point x="423.884" y="299.015"/>
      <point x="455.062" y="265.073"/>
    </contour>
    <contour>
      <point x="219.603" y="358.713" type="curve"/>
      <point x="148.031" y="299.958"/>
      <point x="119" y="249.785"/>
      <point x="119" y="184" type="curve" smooth="yes"/>
      <point x="119" y="109.796"/>
      <point x="158.634" y="32.9297"/>
      <point x="254.498" y="32.9297" type="curve" smooth="yes"/>
      <point x="329.335" y="32.9297"/>
      <point x="369.137" y="96.1035"/>
      <point x="413.603" y="158.713" type="curve"/>
      <point x="383.12" y="198.822"/>
      <point x="358.339" y="224.77"/>
      <point x="310.586" y="273.83" type="curve" smooth="yes"/>
      <point x="285.104" y="300.009"/>
      <point x="257.09" y="323.428"/>
    </contour>
  </outline>
</glyph>
<glyph name="parenleft" format="1">
  <advance width="292"/>
  <unicode hex="0028"/>
  <outline>
    <contour>
      <point x="253.777" y="747.047" type="line" smooth="yes"/>
      <point x="226.965" y="707.86"/>
      <point x="142" y="645.89"/>
      <point x="142" y="330" type="curve" smooth="yes"/>
      <point x="142" y="35.3779"/>
      <point x="226.923" y="-27.7646"/>
      <point x="255" y="-69.8809" type="curve"/>
      <point x="255" y="-126.719" type="line"/>
      <point x="243.167" y="-115.064"/>
      <point x="50" y="50.29"/>
      <point x="50" y="331" type="curve" smooth="yes"/>
      <point x="50" y="642.025"/>
      <point x="242.945" y="783.59"/>
      <point x="255" y="793.779" type="curve"/>
      <point x="255" y="748.834" type="line"/>
    </contour>
  </outline>
</glyph>
<glyph name="parenright" format="1">
  <advance width="290"/>
  <unicode hex="0029"/>
  <outline>
    <contour>
      <point x="46" y="749.834" type="curve"/>
      <point x="46" y="793.779" type="line"/>
      <point x="58.3018" y="783.382"/>
      <point x="251" y="642.29"/>
      <point x="251" y="331" type="curve" smooth="yes"/>
      <point x="251" y="50.6367"/>
      <point x="57.5811" y="-115.313"/>
      <point x="46" y="-126.719" type="curve"/>
      <point x="46" y="-71.8809" type="line"/>
      <point x="74.0811" y="-29.7598"/>
      <point x="159" y="35.3721"/>
      <point x="159" y="330" type="curve" smooth="yes"/>
      <point x="159" y="647.89"/>
      <point x="74.1113" y="708.749"/>
    </contour>
  </outline>
</glyph>
<glyph name="asterisk" format="1">
  <advance width="356"/>
  <unicode hex="002A"/>
  <outline>
    <contour>
      <point x="170.775" y="648.875" type="curve" smooth="yes"/>
      <point x="184.225" y="648.875" type="line" smooth="yes"/>
      <point x="193.822" y="648.875"/>
      <point x="201.575" y="641.006"/>
      <point x="201.575" y="631.67" type="curve"/>
      <point x="205.721" y="531.13" type="line"/>
      <point x="296.065" y="576.821" type="line" smooth="yes"/>
      <point x="298.86" y="578.235"/>
      <point x="301.43" y="578.725"/>
      <point x="303.825" y="578.725" type="curve" smooth="yes"/>
      <point x="310.052" y="578.725"/>
      <point x="315.868" y="576.247"/>
      <point x="319.72" y="571.247" type="curve" smooth="yes"/>
      <point x="322.876" y="567.15"/>
      <point x="325.475" y="558.545"/>
      <point x="325.475" y="555.075" type="curve" smooth="yes"/>
      <point x="325.475" y="548.472"/>
      <point x="321.404" y="543.248"/>
      <point x="316.591" y="540.039" type="curve" smooth="yes"/>
      <point x="233.399" y="484.925" type="line"/>
      <point x="316.591" y="429.811" type="line" smooth="yes"/>
      <point x="320.571" y="427.173"/>
      <point x="325.475" y="422.436"/>
      <point x="325.475" y="414.775" type="curve" smooth="yes"/>
      <point x="325.475" y="409.863"/>
      <point x="322.279" y="403.432"/>
      <point x="321.436" y="401.743" type="curve"/>
      <point x="320" y="399" type="line"/>
      <point x="316.683" y="394.023"/>
      <point x="311.993" y="389.125"/>
      <point x="304.825" y="389.125" type="curve" smooth="yes"/>
      <point x="301.904" y="389.125"/>
      <point x="299.604" y="389.729"/>
      <point x="297.036" y="391.044" type="curve" smooth="yes"/>
      <point x="207.864" y="436.666" type="line"/>
      <point x="203.725" y="337.329" type="line"/>
      <point x="203.725" y="327.023"/>
      <point x="194.111" y="320.125"/>
      <point x="185.225" y="320.125" type="curve" smooth="yes"/>
      <point x="171.775" y="320.125" type="line" smooth="yes"/>
      <point x="162.889" y="320.125"/>
      <point x="153.275" y="327.023"/>
      <point x="153.275" y="337.329" type="curve"/>
      <point x="149.134" y="437.704" type="line"/>
      <point x="58.9395" y="390.919" type="line" smooth="yes"/>
      <point x="55.6523" y="389.236"/>
      <point x="52.1816" y="389"/>
      <point x="50" y="389" type="curve" smooth="yes"/>
      <point x="42.0703" y="389"/>
      <point x="37.9609" y="395.309"/>
      <point x="36.1807" y="397.734" type="curve" smooth="yes"/>
      <point x="33.9512" y="400.774"/>
      <point x="30.5254" y="408.524"/>
      <point x="30.5254" y="412.775" type="curve" smooth="yes"/>
      <point x="30.5254" y="418.802"/>
      <point x="34.6143" y="425.132"/>
      <point x="37.3291" y="427.202" type="curve"/>
      <point x="122.49" y="482.925" type="line"/>
      <point x="37.3857" y="538.956" type="line"/>
      <point x="31.3389" y="542.644"/>
      <point x="29.2773" y="549.524"/>
      <point x="29.2773" y="555" type="curve" smooth="yes"/>
      <point x="29.2773" y="566.375"/>
      <point x="40.8881" y="578.725"/>
      <point x="50.0254" y="578.725" type="curve" smooth="yes"/>
      <point x="52.1945" y="578.725"/>
      <point x="55.6239" y="578.476"/>
      <point x="58.9192" y="576.83" type="curve"/>
      <point x="149.279" y="531.13" type="line"/>
      <point x="153.425" y="631.67" type="line"/>
      <point x="153.425" y="639.729"/>
      <point x="160.517" y="648.875"/>
    </contour>
  </outline>
</glyph>
<glyph name="plus" format="1">
  <advance width="406"/>
  <unicode hex="002B"/>
  <outline>
    <contour>
      <point x="242" y="142" type="line" smooth="yes"/>
      <point x="242" y="127.978"/>
      <point x="213.143" y="127"/>
      <point x="204" y="127" type="curve" smooth="yes"/>
      <point x="195.368" y="127"/>
      <point x="164" y="127.409"/>
      <point x="164" y="142" type="curve" smooth="yes"/>
      <point x="164" y="257" type="line" smooth="yes"/>
      <point x="164" y="257.723"/>
      <point x="163.721" y="258.716"/>
      <point x="163.609" y="259" type="curve"/>
      <point x="56.8643" y="259" type="line"/>
      <point x="55.7861" y="259.359" type="line" smooth="yes"/>
      <point x="43.7568" y="263.369"/>
      <point x="42" y="289.217"/>
      <point x="42" y="300" type="curve" smooth="yes"/>
      <point x="42" y="309.826"/>
      <point x="43.8525" y="337"/>
      <point x="58" y="337" type="curve" smooth="yes"/>
      <point x="162" y="337" type="line" smooth="yes"/>
      <point x="163.34" y="337"/>
      <point x="163.676" y="337.256"/>
      <point x="163.676" y="337.256" type="curve"/>
      <point x="163.79" y="337.45"/>
      <point x="164" y="338.248"/>
      <point x="164" y="339" type="curve" smooth="yes"/>
      <point x="164" y="447.045" type="line"/>
      <point x="168.786" y="448.641" type="line" smooth="yes"/>
      <point x="178.056" y="451.73"/>
      <point x="196.813" y="454"/>
      <point x="206" y="454" type="curve" smooth="yes"/>
      <point x="215.22" y="454"/>
      <point x="232.566" y="451.543"/>
      <point x="239.131" y="448.261" type="curve" smooth="yes"/>
      <point x="243" y="446.326" type="line"/>
      <point x="243" y="338" type="line" smooth="yes"/>
      <point x="243" y="337.57"/>
      <point x="243.006" y="337"/>
      <point x="243.006" y="337" type="curve"/>
      <point x="351" y="337" type="line" smooth="yes"/>
      <point x="365.676" y="337"/>
      <point x="364" y="303.131"/>
      <point x="364" y="295" type="curve" smooth="yes"/>
      <point x="364" y="288.266"/>
      <point x="365.497" y="259"/>
      <point x="351" y="259" type="curve" smooth="yes"/>
      <point x="242" y="259" type="line" smooth="yes"/>
    </contour>
  </outline>
</glyph>
<glyph name="period" format="1">
  <advance width="224"/>
  <unicode hex="002E"/>
  <outline>
    <contour>
      <point x="53" y="40" type="curve" smooth="yes"/>
      <point x="53" y="71.9433"/>
      <point x="79.2241" y="98"/>
      <point x="112" y="98" type="curve" smooth="yes"/>
      <point x="143.881" y="98"/>
      <point x="170" y="71.8812"/>
      <point x="170" y="40" type="curve" smooth="yes"/>
      <point x="170" y="8.11876"/>
      <point x="143.881" y="-18"/>
      <point x="112" y="-18" type="curve" smooth="yes"/>
      <point x="79.2242" y="-18"/>
      <point x="53" y="8.05656"/>
    </contour>
  </outline>
</glyph>
<glyph name="zero" format="1">
  <advance width="480"/>
  <unicode hex="0030"/>
  <outline>
    <contour>
      <point x="240" y="587" type="curve" smooth="yes"/>
      <point x="180.514" y="587"/>
      <point x="126" y="485.549"/>
      <point x="126" y="317" type="curve" smooth="yes"/>
      <point x="126" y="148.452"/>
      <point x="180.513" y="47"/>
      <point x="240" y="47" type="curve" smooth="yes"/>
      <point x="299.486" y="47"/>
      <point x="354" y="148.451"/>
      <point x="354" y="317" type="curve" smooth="yes"/>
      <point x="354" y="485.548"/>
      <point x="299.487" y="587"/>
    </contour>
    <contour>
      <point x="240" y="-7" type="curve" smooth="yes"/>
      <point x="110.683" y="-7"/>
      <point x="20" y="140.491"/>
      <point x="20" y="317" type="curve" smooth="yes"/>
      <point x="20" y="493.509"/>
      <point x="110.683" y="640"/>
      <point x="240" y="640" type="curve" smooth="yes"/>
      <point x="370.317" y="640"/>
      <point x="460" y="493.509"/>
      <point x="460" y="317" type="curve" smooth="yes"/>
      <point x="460" y="140.491"/>
      <point x="369.317" y="-7"/>
    </contour>
  </outline>
</glyph>
<glyph name="one" format="1">
  <advance width="480"/>
  <unicode hex="0031"/>
  <outline>
    <contour>
      <point x="329" y="30" type="curve" smooth="yes"/>
      <point x="336" y="30" type="line"/>
      <point x="336" y="0" type="line"/>
      <point x="159" y="0" type="line"/>
      <point x="159" y="30" type="line"/>
      <point x="166" y="30" type="line" smooth="yes"/>
      <point x="185.911" y="30"/>
      <point x="195" y="42.9912"/>
      <point x="195" y="53.6855" type="curve" smooth="yes"/>
      <point x="195" y="517.581" type="line" smooth="yes"/>
      <point x="195" y="535.983"/>
      <point x="194.072" y="557.998"/>
      <point x="183" y="557.998" type="curve" smooth="yes"/>
      <point x="171.611" y="557.998"/>
      <point x="160.416" y="552.308"/>
      <point x="154" y="550.014" type="curve"/>
      <point x="154" y="581.999" type="line"/>
      <point x="191.168" y="596.132"/>
      <point x="232.458" y="612.979"/>
      <point x="264.145" y="637.042" type="curve" smooth="yes"/>
      <point x="267.714" y="639.753"/>
      <point x="275.473" y="644.135"/>
      <point x="282" y="644.135" type="curve" smooth="yes"/>
      <point x="292.076" y="644.135"/>
      <point x="300" y="638.288"/>
      <point x="300" y="627.382" type="curve" smooth="yes"/>
      <point x="300" y="53.6875" type="line" smooth="yes"/>
      <point x="300" y="42.1611"/>
      <point x="309.761" y="30"/>
    </contour>
  </outline>
</glyph>
<glyph name="two" format="1">
  <advance width="509"/>
  <unicode hex="0032"/>
  <outline>
    <contour>
      <point x="120.987" y="512.993" type="curve"/>
      <point x="103.089" y="537.455" type="line"/>
      <point x="106.016" y="542.726"/>
      <point x="157.04" y="642"/>
      <point x="279.538" y="642" type="curve" smooth="yes"/>
      <point x="386.443" y="642"/>
      <point x="457" y="592.771"/>
      <point x="457" y="510.295" type="curve" smooth="yes"/>
      <point x="457" y="449.816"/>
      <point x="404.982" y="383.968"/>
      <point x="318.979" y="279.566" type="curve" smooth="yes"/>
      <point x="247.352" y="195.126"/>
      <point x="180.385" y="106.738"/>
      <point x="147.124" y="68" type="curve"/>
      <point x="359" y="68" type="line" smooth="yes"/>
      <point x="407.076" y="68"/>
      <point x="432.376" y="86.4727"/>
      <point x="441.318" y="115.088" type="curve" smooth="yes"/>
      <point x="443.095" y="120.771" type="line"/>
      <point x="468.565" y="115.704" type="line"/>
      <point x="425.879" y="0" type="line"/>
      <point x="26" y="0" type="line"/>
      <point x="26" y="42.5293" type="line"/>
      <point x="128.812" y="162.497"/>
      <point x="212.079" y="268.492"/>
      <point x="272.038" y="343.899" type="curve" smooth="yes"/>
      <point x="312.17" y="394.369"/>
      <point x="356.031" y="450.816"/>
      <point x="356.031" y="491.283" type="curve" smooth="yes"/>
      <point x="356.031" y="546.405"/>
      <point x="319.057" y="587"/>
      <point x="255.904" y="587" type="curve" smooth="yes"/>
      <point x="192.168" y="587"/>
      <point x="153.497" y="553.892"/>
    </contour>
  </outline>
</glyph>
<glyph name="three" format="1">
  <advance width="504"/>
  <unicode hex="0033"/>
  <outline>
    <contour>
      <point x="90.8809" y="506.22" type="curve"/>
      <point x="65.9209" y="529.179" type="line"/>
      <point x="68.417" y="532.786"/>
      <point x="137.061" y="640"/>
      <point x="253.611" y="640" type="curve" smooth="yes"/>
      <point x="354.854" y="640"/>
      <point x="415" y="599.884"/>
      <point x="415" y="537.224" type="curve" smooth="yes"/>
      <point x="415" y="477.987"/>
      <point x="335.098" y="424.744"/>
      <point x="273.718" y="379.701" type="curve"/>
      <point x="369.733" y="370.653"/>
      <point x="467" y="297.072"/>
      <point x="467" y="197.573" type="curve" smooth="yes"/>
      <point x="467" y="72.1875"/>
      <point x="365.069" y="-7"/>
      <point x="209.723" y="-7" type="curve" smooth="yes"/>
      <point x="148.443" y="-7"/>
      <point x="59" y="15.6465"/>
      <point x="59" y="46" type="curve" smooth="yes"/>
      <point x="59" y="47.8613"/>
      <point x="59.2568" y="57.166"/>
      <point x="60.7393" y="60.1309" type="curve" smooth="yes"/>
      <point x="60.9844" y="60.6221" type="line"/>
      <point x="61.3037" y="61.0684" type="line" smooth="yes"/>
      <point x="64.8564" y="67.4414"/>
      <point x="71.209" y="78"/>
      <point x="86" y="78" type="curve" smooth="yes"/>
      <point x="97.9346" y="78"/>
      <point x="110.362" y="73.2285"/>
      <point x="123.222" y="63.584" type="curve"/>
      <point x="142.332" y="49.0234"/>
      <point x="179.913" y="29"/>
      <point x="212.723" y="29" type="curve" smooth="yes"/>
      <point x="301.535" y="29"/>
      <point x="373" y="92.2939"/>
      <point x="373" y="173.435" type="curve" smooth="yes"/>
      <point x="373" y="232.072"/>
      <point x="357.042" y="272.85"/>
      <point x="319.867" y="293.996" type="curve"/>
      <point x="294.474" y="307.195"/>
      <point x="261.788" y="311"/>
      <point x="232.889" y="311" type="curve" smooth="yes"/>
      <point x="194.025" y="311"/>
      <point x="146.82" y="281.891"/>
      <point x="133" y="281.891" type="curve" smooth="yes"/>
      <point x="123.934" y="281.891"/>
      <point x="116.186" y="286.996"/>
      <point x="116.186" y="296.615" type="curve" smooth="yes"/>
      <point x="116.186" y="303.897"/>
      <point x="123.916" y="310.562"/>
      <point x="123.976" y="310.608" type="curve"/>
      <point x="128.297" y="314.743"/>
      <point x="310.667" y="443.222"/>
      <point x="310.667" y="515.688" type="curve" smooth="yes"/>
      <point x="310.667" y="562.219"/>
      <point x="280.254" y="584"/>
      <point x="231.667" y="584" type="curve" smooth="yes"/>
      <point x="178.316" y="584"/>
      <point x="124.972" y="550.347"/>
    </contour>
  </outline>
</glyph>
<glyph name="four" format="1">
  <advance width="566"/>
  <unicode hex="0034"/>
  <outline>
    <contour>
      <point x="302.777" y="328.055" type="curve"/>
      <point x="302.777" y="506.425" type="line"/>
      <point x="252.937" y="440.547"/>
      <point x="195.517" y="381.09"/>
      <point x="149.593" y="328.937" type="curve"/>
      <point x="202.489" y="328.542"/>
      <point x="273.676" y="328.401"/>
    </contour>
    <contour>
      <point x="53.1475" y="301.039" type="curve"/>
      <point x="144.97" y="413.805"/>
      <point x="328" y="636.333"/>
      <point x="335.842" y="638" type="curve" smooth="yes"/>
      <point x="348.654" y="640.723"/>
      <point x="366.262" y="642"/>
      <point x="379.178" y="642" type="curve" smooth="yes"/>
      <point x="391.876" y="642"/>
      <point x="407.5" y="634.694"/>
      <point x="407.5" y="617.389" type="curve" smooth="yes"/>
      <point x="407.5" y="329.006" type="line"/>
      <point x="446.561" y="329.729"/>
      <point x="477.042" y="332.554"/>
      <point x="506.896" y="338.228" type="curve"/>
      <point x="504.225" y="327.225"/>
      <point x="502.5" y="308.388"/>
      <point x="502.5" y="299.426" type="curve" smooth="yes"/>
      <point x="502.5" y="288.159"/>
      <point x="504.168" y="279.429"/>
      <point x="505.399" y="271" type="curve"/>
      <point x="405.5" y="271" type="line"/>
      <point x="405.5" y="14.6221" type="line" smooth="yes"/>
      <point x="405.5" y="9.12988"/>
      <point x="402.761" y="0"/>
      <point x="392.5" y="0" type="curve" smooth="yes"/>
      <point x="320.5" y="0" type="line" smooth="yes"/>
      <point x="311.078" y="0"/>
      <point x="306.195" y="6.70117"/>
      <point x="306.195" y="12.6729" type="curve" smooth="yes"/>
      <point x="302.777" y="271" type="line"/>
      <point x="61.5" y="271" type="line" smooth="yes"/>
      <point x="55.0889" y="271"/>
      <point x="47.0146" y="276.118"/>
      <point x="47.0146" y="285.25" type="curve" smooth="yes"/>
      <point x="47.0146" y="290.936"/>
      <point x="49.4189" y="296.611"/>
    </contour>
  </outline>
</glyph>
<glyph name="five" format="1">
  <advance width="480"/>
  <unicode hex="0035"/>
  <outline>
    <contour>
      <point x="415.286" y="617.586" type="curve" smooth="yes"/>
      <point x="421.503" y="617.586"/>
      <point x="434.107" y="615.685"/>
      <point x="434.107" y="604.443" type="curve" smooth="yes"/>
      <point x="434.107" y="595.456"/>
      <point x="419.919" y="559.444"/>
      <point x="414.147" y="544.466" type="curve"/>
      <point x="146.766" y="544.466" type="line"/>
      <point x="107.711" y="391.991" type="line"/>
      <point x="152.352" y="413.039"/>
      <point x="185.885" y="420"/>
      <point x="230.834" y="420" type="curve" smooth="yes"/>
      <point x="360.741" y="420"/>
      <point x="448.286" y="346.051"/>
      <point x="448.286" y="210.367" type="curve" smooth="yes"/>
      <point x="448.286" y="89.5342"/>
      <point x="344.406" y="-5"/>
      <point x="210.063" y="-5" type="curve" smooth="yes"/>
      <point x="161.528" y="-5"/>
      <point x="95.3447" y="3"/>
      <point x="44.3105" y="55.0752" type="curve"/>
      <point x="40.5146" y="58.8711"/>
      <point x="37.1025" y="66.8047"/>
      <point x="37.1025" y="71" type="curve" smooth="yes"/>
      <point x="37.1025" y="81.5225"/>
      <point x="45.5293" y="87.6016"/>
      <point x="54.4199" y="87.6016" type="curve" smooth="yes"/>
      <point x="59.2314" y="87.6016"/>
      <point x="64.1787" y="85.8213"/>
      <point x="68" y="82" type="curve" smooth="yes"/>
      <point x="97.4639" y="51.6152"/>
      <point x="161.412" y="43"/>
      <point x="202.412" y="43" type="curve" smooth="yes"/>
      <point x="311.117" y="43"/>
      <point x="356.286" y="134.108"/>
      <point x="356.286" y="190.368" type="curve" smooth="yes"/>
      <point x="356.286" y="258.546"/>
      <point x="315.934" y="327"/>
      <point x="211.412" y="327" type="curve" smooth="yes"/>
      <point x="160.844" y="327"/>
      <point x="88.1348" y="304.599"/>
      <point x="31" y="269.031" type="curve"/>
      <point x="114.758" y="611" type="line"/>
      <point x="353.286" y="611" type="line" smooth="yes"/>
      <point x="376.366" y="611"/>
      <point x="397.574" y="617.586"/>
    </contour>
  </outline>
</glyph>
<glyph name="six" format="1">
  <advance width="576"/>
  <unicode hex="0036"/>
  <outline>
    <contour>
      <point x="445.188" y="604.465" type="curve" smooth="yes"/>
      <point x="445.188" y="597.264"/>
      <point x="435.126" y="589.929"/>
      <point x="424.809" y="587.128" type="curve" smooth="yes"/>
      <point x="390.297" y="578.467"/>
      <point x="338.883" y="557.527"/>
      <point x="286.897" y="523.624" type="curve" smooth="yes"/>
      <point x="191.956" y="461.705"/>
      <point x="158" y="354.545"/>
      <point x="158" y="256.754" type="curve" smooth="yes"/>
      <point x="158" y="167.935"/>
      <point x="202.028" y="31"/>
      <point x="293.246" y="31" type="curve" smooth="yes"/>
      <point x="373.713" y="31"/>
      <point x="429" y="100.237"/>
      <point x="429" y="195.278" type="curve" smooth="yes"/>
      <point x="429" y="291.335"/>
      <point x="365.285" y="339.37"/>
      <point x="307.619" y="339.37" type="curve" smooth="yes"/>
      <point x="258.228" y="339.37"/>
      <point x="235.646" y="318.546"/>
      <point x="216.015" y="298.585" type="curve"/>
      <point x="211.137" y="293.678"/>
      <point x="205.928" y="291.859"/>
      <point x="201.705" y="291.859" type="curve" smooth="yes"/>
      <point x="192.016" y="291.859"/>
      <point x="189.896" y="302.147"/>
      <point x="189.896" y="307.255" type="curve" smooth="yes"/>
      <point x="189.896" y="311.517"/>
      <point x="191.216" y="315.793"/>
      <point x="193.832" y="319.718" type="curve"/>
      <point x="214.225" y="346.525"/>
      <point x="242.718" y="399.335"/>
      <point x="331.316" y="399.335" type="curve" smooth="yes"/>
      <point x="404.053" y="399.335"/>
      <point x="526" y="353.867"/>
      <point x="526" y="207.367" type="curve" smooth="yes"/>
      <point x="526" y="94.8271"/>
      <point x="430.161" y="-8"/>
      <point x="292.176" y="-8" type="curve" smooth="yes"/>
      <point x="159.903" y="-8"/>
      <point x="53" y="114.655"/>
      <point x="53" y="252.348" type="curve" smooth="yes"/>
      <point x="53" y="409.751"/>
      <point x="150.806" y="504.709"/>
      <point x="222.316" y="556.298" type="curve" smooth="yes"/>
      <point x="279.68" y="596.647"/>
      <point x="371.63" y="625.893"/>
      <point x="422.601" y="635.858" type="curve" smooth="yes"/>
      <point x="435.581" y="637.875" type="line"/>
      <point x="438.089" y="633.453" type="line" smooth="yes"/>
      <point x="438.183" y="633.292"/>
      <point x="445.188" y="614.938"/>
    </contour>
  </outline>
</glyph>
<glyph name="seven" format="1">
  <advance width="484"/>
  <unicode hex="0037"/>
  <outline>
    <contour>
      <point x="346.423" y="548" type="curve"/>
      <point x="97.7607" y="548" type="line" smooth="yes"/>
      <point x="81.9678" y="548"/>
      <point x="76.2588" y="536.43"/>
      <point x="74.3975" y="532" type="curve"/>
      <point x="68.7607" y="532" type="line" smooth="yes"/>
      <point x="61.2363" y="532"/>
      <point x="59.8867" y="538.977"/>
      <point x="59.8867" y="538.977" type="curve" smooth="yes"/>
      <point x="60.085" y="545.694" type="line" smooth="yes"/>
      <point x="63.2432" y="562.608"/>
      <point x="66.9385" y="591.763"/>
      <point x="70.2617" y="607.6" type="curve" smooth="yes"/>
      <point x="71.8379" y="615.11"/>
      <point x="73.1318" y="622"/>
      <point x="82.7607" y="622" type="curve" smooth="yes"/>
      <point x="435.761" y="622" type="line" smooth="yes"/>
      <point x="448.179" y="622"/>
      <point x="452.751" y="619.14"/>
      <point x="452.751" y="614.461" type="curve" smooth="yes"/>
      <point x="452.751" y="610.694"/>
      <point x="449.73" y="604.899"/>
      <point x="446.933" y="601.093" type="curve"/>
      <point x="442.6" y="594.59" type="line" smooth="yes"/>
      <point x="319.37" y="409.295"/>
      <point x="213.739" y="169.026"/>
      <point x="185.785" y="0" type="curve"/>
      <point x="89.6201" y="0" type="line"/>
      <point x="115.256" y="164.938"/>
      <point x="234.295" y="397.516"/>
    </contour>
  </outline>
</glyph>
<glyph name="eight" format="1">
  <advance width="503"/>
  <unicode hex="0038"/>
  <outline>
    <contour>
      <point x="147" y="156" type="curve" smooth="yes"/>
      <point x="147" y="73.4863"/>
      <point x="199.716" y="30"/>
      <point x="256.272" y="30" type="curve" smooth="yes"/>
      <point x="311.126" y="30"/>
      <point x="364" y="88.7324"/>
      <point x="364" y="149" type="curve" smooth="yes"/>
      <point x="364" y="214.286"/>
      <point x="306.775" y="266.722"/>
      <point x="236.956" y="313.278" type="curve"/>
      <point x="166.992" y="246.599"/>
      <point x="147" y="218.119"/>
    </contour>
    <contour>
      <point x="176" y="514" type="curve" smooth="yes"/>
      <point x="176" y="465.163"/>
      <point x="203.346" y="438.355"/>
      <point x="261.21" y="402.05" type="curve"/>
      <point x="299.974" y="436.918"/>
      <point x="343" y="456.781"/>
      <point x="343" y="511" type="curve" smooth="yes"/>
      <point x="343" y="574.678"/>
      <point x="310.907" y="609"/>
      <point x="256.272" y="609" type="curve" smooth="yes"/>
      <point x="201.307" y="609"/>
      <point x="176" y="557.396"/>
    </contour>
    <contour>
      <point x="425" y="513.779" type="curve" smooth="yes"/>
      <point x="425" y="449.196"/>
      <point x="346.373" y="402.048"/>
      <point x="300.516" y="366.468" type="curve"/>
      <point x="384.285" y="306.949"/>
      <point x="457" y="247.122"/>
      <point x="457" y="146.674" type="curve" smooth="yes"/>
      <point x="457" y="76.2744"/>
      <point x="374.197" y="-8"/>
      <point x="255.182" y="-8" type="curve" smooth="yes"/>
      <point x="155.981" y="-8"/>
      <point x="49" y="51.0088"/>
      <point x="49" y="149.61" type="curve" smooth="yes"/>
      <point x="49" y="228.72"/>
      <point x="113.25" y="280.471"/>
      <point x="191.244" y="340.187" type="curve"/>
      <point x="133.35" y="385.062"/>
      <point x="81" y="427.857"/>
      <point x="81" y="517.737" type="curve" smooth="yes"/>
      <point x="81" y="564.459"/>
      <point x="119.382" y="643"/>
      <point x="256.273" y="643" type="curve" smooth="yes"/>
      <point x="345.469" y="643"/>
      <point x="425" y="587.563"/>
    </contour>
  </outline>
</glyph>
<glyph name="nine" format="1">
  <advance width="480"/>
  <unicode hex="0039"/>
  <outline>
    <contour>
      <point x="98.9082" y="12" type="curve" smooth="yes"/>
      <point x="98.9082" y="19.3096"/>
      <point x="103.651" y="30.8643"/>
      <point x="112.905" y="33.8799" type="curve" smooth="yes"/>
      <point x="144.407" y="44.1465"/>
      <point x="189.186" y="68.21"/>
      <point x="239.622" y="104.139" type="curve"/>
      <point x="335.039" y="169.376"/>
      <point x="360" y="256.771"/>
      <point x="360" y="387.179" type="curve" smooth="yes"/>
      <point x="360" y="520.062"/>
      <point x="314.506" y="602"/>
      <point x="226.954" y="602" type="curve" smooth="yes"/>
      <point x="165.375" y="602"/>
      <point x="122" y="546.327"/>
      <point x="122" y="457.396" type="curve" smooth="yes"/>
      <point x="122" y="374.255"/>
      <point x="163.274" y="301.267"/>
      <point x="211.114" y="301.267" type="curve" smooth="yes"/>
      <point x="257.262" y="301.267"/>
      <point x="298" y="334"/>
      <point x="306.005" y="342.511" type="curve" smooth="yes"/>
      <point x="307.26" y="343.778" type="line"/>
      <point x="311.427" y="348.007"/>
      <point x="315.831" y="350.932"/>
      <point x="320.964" y="350.932" type="curve" smooth="yes"/>
      <point x="326.728" y="350.932"/>
      <point x="333.647" y="346.146"/>
      <point x="333.647" y="339.382" type="curve" smooth="yes"/>
      <point x="333.647" y="333.793"/>
      <point x="330.864" y="324.604"/>
      <point x="327" y="319" type="curve" smooth="yes"/>
      <point x="300.653" y="280.793"/>
      <point x="265.434" y="246"/>
      <point x="196.701" y="246" type="curve" smooth="yes"/>
      <point x="132.994" y="246"/>
      <point x="27" y="299.489"/>
      <point x="27" y="445.465" type="curve" smooth="yes"/>
      <point x="27" y="559.444"/>
      <point x="121.249" y="641"/>
      <point x="228.034" y="641" type="curve" smooth="yes"/>
      <point x="371.303" y="641"/>
      <point x="455" y="553.359"/>
      <point x="455" y="379.581" type="curve" smooth="yes"/>
      <point x="455" y="200.604"/>
      <point x="363.676" y="125.78"/>
      <point x="295.453" y="73.666" type="curve"/>
      <point x="240.365" y="33.7295"/>
      <point x="158.151" y="3.33496"/>
      <point x="109.767" y="-8.77344" type="curve" smooth="yes"/>
      <point x="104.316" y="-10.1953" type="line"/>
      <point x="101.629" y="-4.91406"/>
      <point x="98.9082" y="5.25879"/>
    </contour>
  </outline>
</glyph>
<glyph name="colon" format="1">
  <advance width="228"/>
  <unicode hex="003A"/>
  <outline>
    <contour>
      <point x="54" y="40" type="curve" smooth="yes"/>
      <point x="54" y="71.9433"/>
      <point x="80.2241" y="98"/>
      <point x="113" y="98" type="curve" smooth="yes"/>
      <point x="144.881" y="98"/>
      <point x="171" y="71.8812"/>
      <point x="171" y="40" type="curve" smooth="yes"/>
      <point x="171" y="8.11876"/>
      <point x="144.881" y="-18"/>
      <point x="113" y="-18" type="curve" smooth="yes"/>
      <point x="80.2242" y="-18"/>
      <point x="54" y="8.05656"/>
    </contour>
    <contour>
      <point x="54" y="406" type="curve" smooth="yes"/>
      <point x="54" y="437.943"/>
      <point x="80.2241" y="464"/>
      <point x="113" y="464" type="curve" smooth="yes"/>
      <point x="144.881" y="464"/>
      <point x="171" y="437.881"/>
      <point x="171" y="406" type="curve" smooth="yes"/>
      <point x="171" y="373.095"/>
      <point x="144.759" y="348"/>
      <point x="113" y="348" type="curve" smooth="yes"/>
      <point x="80.3457" y="348"/>
      <point x="54" y="373.033"/>
    </contour>
  </outline>
</glyph>
<glyph name="semicolon" format="1">
  <advance width="238"/>
  <unicode hex="003B"/>
  <outline>
    <contour>
      <point x="118.918" y="340.294" type="curve" smooth="yes"/>
      <point x="84.8291" y="340.294"/>
      <point x="57.1924" y="367.931"/>
      <point x="57.1924" y="402.02" type="curve" smooth="yes"/>
      <point x="57.1924" y="436.108"/>
      <point x="84.8281" y="463.746"/>
      <point x="118.918" y="463.746" type="curve" smooth="yes"/>
      <point x="153.007" y="463.746"/>
      <point x="180.644" y="436.108"/>
      <point x="180.644" y="402.02" type="curve" smooth="yes"/>
      <point x="180.644" y="367.931"/>
      <point x="153.007" y="340.294"/>
    </contour>
    <contour>
      <point x="61" y="38" type="curve" smooth="yes"/>
      <point x="61" y="70.3835"/>
      <point x="91.3653" y="98"/>
      <point x="124" y="98" type="curve" smooth="yes"/>
      <point x="157.976" y="98"/>
      <point x="183" y="69.884"/>
      <point x="183" y="41" type="curve" smooth="yes"/>
      <point x="183" y="40" type="line" smooth="yes"/>
      <point x="183" y="-53.4511"/>
      <point x="138.495" y="-84"/>
      <point x="59.0367" y="-84" type="curve"/>
      <point x="44.6367" y="-60" type="line"/>
      <point x="65.7375" y="-60"/>
      <point x="102" y="-52.3073"/>
      <point x="102" y="-27" type="curve" smooth="yes"/>
      <point x="102" y="-23.5962"/>
      <point x="100.398" y="-20.2979"/>
      <point x="96.1209" y="-16.0204" type="curve"/>
      <point x="80.0253" y="-0.818976"/>
      <point x="61" y="6.41484"/>
    </contour>
  </outline>
</glyph>
<glyph name="less" format="1">
  <advance width="468"/>
  <unicode hex="003C"/>
  <outline>
    <contour>
      <point x="154.208" y="324" type="line"/>
      <point x="428" y="166.043" type="line"/>
      <point x="428" y="81.984" type="line"/>
      <point x="26" y="309.922" type="line"/>
      <point x="26" y="334.078" type="line"/>
      <point x="428" y="562.016" type="line"/>
      <point x="428" y="481.957" type="line"/>
    </contour>
  </outline>
</glyph>
<glyph name="equal" format="1">
  <advance width="401"/>
  <unicode hex="003D"/>
  <outline>
    <contour>
      <point x="73.7861" y="320.359" type="line" smooth="yes"/>
      <point x="61.7568" y="324.369"/>
      <point x="60" y="340.217"/>
      <point x="60" y="361" type="curve" smooth="yes"/>
      <point x="60" y="380.826"/>
      <point x="61.8525" y="398"/>
      <point x="76" y="398" type="curve" smooth="yes"/>
      <point x="329" y="398" type="line" smooth="yes"/>
      <point x="343.676" y="398"/>
      <point x="344" y="376.131"/>
      <point x="344" y="358" type="curve" smooth="yes"/>
      <point x="344" y="341.266"/>
      <point x="343.497" y="320"/>
      <point x="329" y="320" type="curve" smooth="yes"/>
      <point x="74.8643" y="320" type="line"/>
    </contour>
    <contour>
      <point x="73.7861" y="200.359" type="line" smooth="yes"/>
      <point x="61.7568" y="204.369"/>
      <point x="60" y="220.217"/>
      <point x="60" y="241" type="curve" smooth="yes"/>
      <point x="60" y="260.826"/>
      <point x="61.8525" y="278"/>
      <point x="76" y="278" type="curve" smooth="yes"/>
      <point x="329" y="278" type="line" smooth="yes"/>
      <point x="343.676" y="278"/>
      <point x="344" y="256.131"/>
      <point x="344" y="238" type="curve" smooth="yes"/>
      <point x="344" y="221.266"/>
      <point x="343.497" y="200"/>
      <point x="329" y="200" type="curve" smooth="yes"/>
      <point x="74.8643" y="200" type="line"/>
    </contour>
  </outline>
</glyph>
<glyph name="question" format="1">
  <advance width="462"/>
  <unicode hex="003F"/>
  <outline>
    <contour>
      <point x="215.918" y="-10.7061" type="curve" smooth="yes"/>
      <point x="181.829" y="-10.7061"/>
      <point x="154.192" y="16.9307"/>
      <point x="154.192" y="51.0195" type="curve" smooth="yes"/>
      <point x="154.192" y="85.1084"/>
      <point x="181.828" y="112.746"/>
      <point x="215.918" y="112.746" type="curve" smooth="yes"/>
      <point x="250.007" y="112.746"/>
      <point x="277.644" y="85.1084"/>
      <point x="277.644" y="51.0195" type="curve" smooth="yes"/>
      <point x="277.644" y="16.9307"/>
      <point x="250.007" y="-10.7061"/>
    </contour>
    <contour>
      <point x="172.042" y="199.238" type="line" smooth="yes"/>
      <point x="166.968" y="245.601"/>
      <point x="157.118" y="340.269"/>
      <point x="157.117" y="340.275" type="curve" smooth="yes"/>
      <point x="157.08" y="340.637" type="line"/>
      <point x="157.08" y="341" type="line" smooth="yes"/>
      <point x="157.08" y="395.137"/>
      <point x="208.827" y="433.203"/>
      <point x="244.312" y="465.199" type="curve" smooth="yes"/>
      <point x="306.651" y="521.406"/>
      <point x="330" y="535.983"/>
      <point x="330" y="593" type="curve" smooth="yes"/>
      <point x="330" y="654.892"/>
      <point x="289.795" y="685"/>
      <point x="219.444" y="685" type="curve" smooth="yes"/>
      <point x="159.109" y="685"/>
      <point x="135.425" y="645.072"/>
      <point x="131.271" y="626.448" type="curve" smooth="yes"/>
      <point x="125.26" y="599.505"/>
      <point x="105.419" y="581"/>
      <point x="85.4443" y="581" type="curve" smooth="yes"/>
      <point x="63.3252" y="581"/>
      <point x="41.8008" y="601.641"/>
      <point x="41.8008" y="625" type="curve" smooth="yes"/>
      <point x="41.8008" y="694.398"/>
      <point x="145.646" y="742.333"/>
      <point x="223.444" y="742.333" type="curve" smooth="yes"/>
      <point x="311.029" y="742.333"/>
      <point x="416.444" y="682.975"/>
      <point x="416.444" y="569" type="curve" smooth="yes"/>
      <point x="416.444" y="509.757"/>
      <point x="382.761" y="468.55"/>
      <point x="328.279" y="426.461" type="curve" smooth="yes"/>
      <point x="292.441" y="398.774"/>
      <point x="258.678" y="360.31"/>
      <point x="257.988" y="348.589" type="curve"/>
      <point x="257.988" y="348.589"/>
      <point x="253" y="212.576"/>
      <point x="253" y="200" type="curve" smooth="yes"/>
      <point x="253" y="193" type="line"/>
      <point x="172.725" y="193" type="line"/>
    </contour>
  </outline>
</glyph>
<glyph name="at" format="1">
  <advance width="766"/>
  <unicode hex="0040"/>
  <outline>
    <contour>
      <point x="396.399" y="-17.4502" type="curve" smooth="yes"/>
      <point x="508.981" y="-17.4502"/>
      <point x="595.396" y="19.2188"/>
      <point x="626.754" y="48.1445" type="curve" smooth="yes"/>
      <point x="628.765" y="49.999" type="line"/>
      <point x="631.5" y="49.999" type="line" smooth="yes"/>
      <point x="637.419" y="49.999"/>
      <point x="648.311" y="39.9795"/>
      <point x="648.311" y="33" type="curve" smooth="yes"/>
      <point x="648.311" y="28.7979"/>
      <point x="646.415" y="26.7082"/>
      <point x="643.23" y="23.6572" type="curve" smooth="yes"/>
      <point x="608.528" y="-9.58887"/>
      <point x="537.616" y="-66.9473"/>
      <point x="396.399" y="-66.9473" type="curve" smooth="yes"/>
      <point x="269.798" y="-66.9473"/>
      <point x="59.1514" y="0.707031"/>
      <point x="59.1514" y="211.45" type="curve" smooth="yes"/>
      <point x="59.1514" y="382.321"/>
      <point x="211.029" y="509.947"/>
      <point x="427.1" y="509.947" type="curve" smooth="yes"/>
      <point x="571.573" y="509.947"/>
      <point x="733.848" y="419.238"/>
      <point x="733.848" y="256.25" type="curve" smooth="yes"/>
      <point x="733.848" y="143.527"/>
      <point x="652.462" y="60.1016"/>
      <point x="523.6" y="60.1016" type="curve" smooth="yes"/>
      <point x="492.784" y="60.1016"/>
      <point x="461.291" y="86.2848"/>
      <point x="458.151" y="91.474" type="curve"/>
      <point x="447.087" y="87.7807"/>
      <point x="413.98" y="55.8496"/>
      <point x="358.6" y="55.8496" type="curve" smooth="yes"/>
      <point x="279.823" y="55.8496"/>
      <point x="212.3" y="97.0713"/>
      <point x="212.3" y="179.95" type="curve" smooth="yes"/>
      <point x="212.3" y="335.497"/>
      <point x="347.201" y="389.599"/>
      <point x="437.301" y="389.599" type="curve" smooth="yes"/>
      <point x="467.412" y="389.599"/>
      <point x="509.306" y="378.75"/>
      <point x="513.899" y="378.75" type="curve" smooth="yes"/>
      <point x="520.601" y="378.75"/>
      <point x="528.639" y="384.998"/>
      <point x="531.683" y="388.553" type="curve" smooth="yes"/>
      <point x="533.796" y="391.021" type="line"/>
      <point x="537.045" y="391" type="line" smooth="yes"/>
      <point x="550.87" y="390.91"/>
      <point x="569.982" y="384.918"/>
      <point x="576.95" y="377.949" type="curve" smooth="yes"/>
      <point x="580.277" y="374.621" type="line"/>
      <point x="578.451" y="370.283" type="line" smooth="yes"/>
      <point x="572.817" y="352.151"/>
      <point x="566.536" y="326.735"/>
      <point x="560.723" y="293.678" type="curve"/>
      <point x="528.96" y="130.588" type="line"/>
      <point x="530.685" y="117.945"/>
      <point x="546.771" y="105.05"/>
      <point x="574.399" y="105.05" type="curve" smooth="yes"/>
      <point x="619.604" y="105.05"/>
      <point x="653.351" y="180.699"/>
      <point x="653.351" y="253.25" type="curve" smooth="yes"/>
      <point x="653.351" y="395.853"/>
      <point x="556.244" y="464.45"/>
      <point x="410.1" y="464.45" type="curve" smooth="yes"/>
      <point x="266.563" y="464.45"/>
      <point x="151.648" y="373.537"/>
      <point x="151.648" y="211.45" type="curve" smooth="yes"/>
      <point x="151.648" y="38.1888"/>
      <point x="286.271" y="-17.4502"/>
    </contour>
    <contour>
      <point x="306.8" y="198.85" type="curve" smooth="yes"/>
      <point x="306.8" y="163.005"/>
      <point x="326.482" y="109.95"/>
      <point x="386.399" y="109.95" type="curve" smooth="yes"/>
      <point x="442.292" y="109.95"/>
      <point x="458.241" y="134.639"/>
      <point x="461.567" y="158.516" type="curve" smooth="yes"/>
      <point x="461.61" y="158.825" type="line"/>
      <point x="494.094" y="299.027" type="line"/>
      <point x="493.539" y="332.727"/>
      <point x="460.84" y="344.45"/>
      <point x="427.5" y="344.45" type="curve" smooth="yes"/>
      <point x="370.412" y="344.45"/>
      <point x="306.8" y="277.481"/>
    </contour>
  </outline>
</glyph>
<glyph name="A" format="1">
  <advance width="795"/>
  <unicode hex="0041"/>
  <outline>
    <contour>
      <point x="745" y="15" type="move" smooth="yes"/>
    </contour>
    <contour>
      <point x="742" y="0" type="curve"/>
      <point x="531" y="0" type="line"/>
      <point x="531" y="0"/>
      <point x="527" y="6.24805"/>
      <point x="527" y="15" type="curve" smooth="yes"/>
      <point x="527" y="23"/>
      <point x="531" y="30"/>
      <point x="531" y="30" type="curve"/>
      <point x="538" y="30" type="line" smooth="yes"/>
      <point x="560" y="30"/>
      <point x="581.481" y="46.9727"/>
      <point x="581.481" y="68.3545" type="curve" smooth="yes"/>
      <point x="581.481" y="73.4668"/>
      <point x="581.161" y="79.0752"/>
      <point x="578.525" y="85.3125" type="curve" smooth="yes"/>
      <point x="483.86" y="295" type="line"/>
      <point x="273.412" y="295" type="line" smooth="yes"/>
      <point x="272.286" y="295"/>
      <point x="272.262" y="294.868"/>
      <point x="272.262" y="294.868" type="curve"/>
      <point x="272.069" y="294.694"/>
      <point x="271.338" y="293.593"/>
      <point x="270.287" y="291.204" type="curve" smooth="yes"/>
      <point x="183.447" y="90.0742" type="line"/>
      <point x="177.562" y="76.875"/>
      <point x="175.477" y="67.7002"/>
      <point x="175.477" y="61.5303" type="curve" smooth="yes"/>
      <point x="175.477" y="43.1162"/>
      <point x="190" y="30"/>
      <point x="210" y="30" type="curve" smooth="yes"/>
      <point x="217" y="30" type="line"/>
      <point x="217" y="30"/>
      <point x="221" y="23.752"/>
      <point x="221" y="15" type="curve" smooth="yes"/>
      <point x="221" y="7"/>
      <point x="217" y="0"/>
      <point x="217" y="0" type="curve"/>
      <point x="40" y="0" type="line"/>
      <point x="40" y="0"/>
      <point x="36" y="6.24805"/>
      <point x="36" y="15" type="curve" smooth="yes"/>
      <point x="36" y="23"/>
      <point x="40" y="30"/>
      <point x="40" y="30" type="curve"/>
      <point x="47" y="30" type="line" smooth="yes"/>
      <point x="78.5342" y="30"/>
      <point x="83.8418" y="52.5791"/>
      <point x="96.5889" y="79.1318" type="curve"/>
      <point x="370.123" y="708.659" type="line"/>
      <point x="371.52" y="709.753" type="line" smooth="yes"/>
      <point x="385.367" y="720.6"/>
      <point x="388.04" y="718.687"/>
      <point x="399.423" y="728.493" type="curve" smooth="yes"/>
      <point x="407.179" y="735.309" type="line"/>
      <point x="696.399" y="59.5391" type="line"/>
      <point x="703.771" y="44.6084"/>
      <point x="716" y="30"/>
      <point x="735" y="30" type="curve" smooth="yes"/>
      <point x="742" y="30" type="line"/>
      <point x="742" y="30"/>
      <point x="745" y="23.752"/>
      <point x="745" y="15" type="curve" smooth="yes"/>
      <point x="745" y="7"/>
      <point x="742" y="0"/>
    </contour>
    <contour>
      <point x="377.107" y="552.541" type="line"/>
      <point x="292.264" y="348" type="line"/>
      <point x="460.952" y="348" type="line"/>
    </contour>
  </outline>
</glyph>
<glyph name="B" format="1">
  <advance width="629"/>
  <unicode hex="0042"/>
  <outline>
    <contour>
      <point x="116.56" y="0" type="move" smooth="yes"/>
    </contour>
    <contour>
      <point x="54" y="0" type="line"/>
      <point x="54" y="0"/>
      <point x="50" y="6.24805"/>
      <point x="50" y="15" type="curve" smooth="yes"/>
      <point x="50" y="23"/>
      <point x="54" y="30"/>
      <point x="54" y="30" type="curve"/>
      <point x="76.8252" y="30.6328"/>
      <point x="106.018" y="43.3896"/>
      <point x="106.242" y="64.5674" type="curve" smooth="yes"/>
      <point x="107.829" y="180.559"/>
      <point x="109.146" y="286.503"/>
      <point x="109.146" y="402.29" type="curve" smooth="yes"/>
      <point x="109.146" y="488.706"/>
      <point x="106.362" y="574.898"/>
      <point x="106.362" y="661.178" type="curve" smooth="yes"/>
      <point x="106.362" y="685.377"/>
      <point x="86.7334" y="700.687"/>
      <point x="54" y="701" type="curve"/>
      <point x="54" y="701"/>
      <point x="50" y="706.248"/>
      <point x="50" y="715" type="curve" smooth="yes"/>
      <point x="50" y="723"/>
      <point x="54" y="730"/>
      <point x="54" y="730" type="curve"/>
      <point x="57.582" y="730.119"/>
      <point x="63.0555" y="730.152"/>
      <point x="68.7147" y="730.152" type="curve" smooth="yes"/>
      <point x="75.5344" y="730.152"/>
      <point x="82.6241" y="730.104"/>
      <point x="87" y="730.104" type="curve" smooth="yes"/>
      <point x="150.797" y="730.104"/>
      <point x="226.941" y="734"/>
      <point x="294.408" y="734" type="curve" smooth="yes"/>
      <point x="445.889" y="734"/>
      <point x="539.256" y="658.194"/>
      <point x="539.256" y="549.554" type="curve" smooth="yes"/>
      <point x="539.256" y="472.432"/>
      <point x="467.366" y="416.331"/>
      <point x="386.271" y="391" type="curve"/>
      <point x="473.725" y="374.106"/>
      <point x="579.812" y="308.243"/>
      <point x="579.812" y="188.741" type="curve" smooth="yes"/>
      <point x="579.812" y="49.2686"/>
      <point x="481.572" y="-1.66699"/>
      <point x="360.187" y="-1.66699" type="curve" smooth="yes"/>
      <point x="286.26" y="-1.66699"/>
      <point x="212.759" y="0"/>
      <point x="140.56" y="0" type="curve" smooth="yes"/>
    </contour>
    <contour>
      <point x="472.078" y="198.265" type="curve" smooth="yes"/>
      <point x="472.078" y="307.607"/>
      <point x="399.413" y="359.693"/>
      <point x="266.153" y="360.477" type="curve"/>
      <point x="222.383" y="358.292" type="line"/>
      <point x="222.018" y="66.9873" type="line" smooth="yes"/>
      <point x="222.845" y="49.1543"/>
      <point x="229.609" y="39.6104"/>
      <point x="237.875" y="39.4434" type="curve"/>
      <point x="254.945" y="39.0049"/>
      <point x="261.628" y="38.3145"/>
      <point x="278.636" y="38.3145" type="curve" smooth="yes"/>
      <point x="441.044" y="38.3145"/>
      <point x="472.078" y="116.406"/>
    </contour>
    <contour>
      <point x="260.245" y="401.122" type="curve" smooth="yes"/>
      <point x="380.771" y="401.122"/>
      <point x="438.991" y="462.392"/>
      <point x="438.991" y="548.591" type="curve" smooth="yes"/>
      <point x="438.991" y="628.05"/>
      <point x="391.889" y="689.924"/>
      <point x="281.79" y="689.924" type="curve" smooth="yes"/>
      <point x="265.622" y="689.924"/>
      <point x="230.983" y="687.664"/>
      <point x="230.067" y="687.628" type="curve" smooth="yes"/>
      <point x="220.389" y="687.241"/>
      <point x="220.103" y="676.118"/>
      <point x="219.207" y="668.064" type="curve"/>
      <point x="220.494" y="519.556" type="line" smooth="yes"/>
      <point x="220.926" y="402.178" type="line"/>
      <point x="235.131" y="401.751"/>
      <point x="247.272" y="401.122"/>
    </contour>
  </outline>
</glyph>
<glyph name="C" format="1">
  <advance width="799"/>
  <unicode hex="0043"/>
  <outline>
    <contour>
      <point x="433.352" y="742.001" type="curve" smooth="yes"/>
      <point x="575.344" y="742.001"/>
      <point x="640.116" y="657.256"/>
      <point x="665" y="657.256" type="curve" smooth="yes"/>
      <point x="684.169" y="657.256"/>
      <point x="683.917" y="683.428"/>
      <point x="699.507" y="683.428" type="curve" smooth="yes"/>
      <point x="706.177" y="683.428"/>
      <point x="713.846" y="676.546"/>
      <point x="713.999" y="665.14" type="curve" smooth="yes"/>
      <point x="716.685" y="463.796" type="line"/>
      <point x="716.334" y="458.896"/>
      <point x="710.397" y="452.322"/>
      <point x="704.036" y="452.322" type="curve" smooth="yes"/>
      <point x="699.416" y="452.322"/>
      <point x="691.576" y="454.227"/>
      <point x="689.579" y="462.323" type="curve" smooth="yes"/>
      <point x="665.114" y="561.456"/>
      <point x="591.583" y="690.77"/>
      <point x="418.884" y="690.77" type="curve" smooth="yes"/>
      <point x="229.526" y="690.77"/>
      <point x="178" y="509.981"/>
      <point x="178" y="384.646" type="curve" smooth="yes"/>
      <point x="178" y="72.6123"/>
      <point x="348.674" y="46"/>
      <point x="421.984" y="46" type="curve" smooth="yes"/>
      <point x="597.329" y="46"/>
      <point x="679.796" y="181.227"/>
      <point x="686.366" y="196.104" type="curve"/>
      <point x="722.599" y="184.664" type="line" smooth="yes"/>
      <point x="722.032" y="183.06"/>
      <point x="653.921" y="-10"/>
      <point x="414.001" y="-10" type="curve" smooth="yes"/>
      <point x="294.809" y="-10"/>
      <point x="55" y="53.6748"/>
      <point x="55" y="352.256" type="curve" smooth="yes"/>
      <point x="55" y="552.174"/>
      <point x="163.037" y="742.001"/>
    </contour>
  </outline>
</glyph>
<glyph name="D" format="1">
  <advance width="804"/>
  <unicode hex="0044"/>
  <outline>
    <contour>
      <point x="54" y="701" type="curve"/>
      <point x="54" y="701"/>
      <point x="50" y="706.248"/>
      <point x="50" y="715" type="curve" smooth="yes"/>
      <point x="50" y="723"/>
      <point x="54" y="730"/>
      <point x="54" y="730" type="curve"/>
      <point x="102.39" y="730.335"/>
      <point x="166.264" y="730.178"/>
      <point x="217.867" y="730.178" type="curve" smooth="yes"/>
      <point x="274.22" y="730.547"/>
      <point x="303.883" y="731.01"/>
      <point x="357.812" y="731.01" type="curve" smooth="yes"/>
      <point x="559.204" y="731.01"/>
      <point x="737" y="606.153"/>
      <point x="737" y="362.813" type="curve" smooth="yes"/>
      <point x="737" y="123.631"/>
      <point x="578.927" y="-2.53027"/>
      <point x="344.913" y="-2.53027" type="curve" smooth="yes"/>
      <point x="301.483" y="-2.53027"/>
      <point x="260" y="0"/>
      <point x="202.915" y="0" type="curve" smooth="yes"/>
      <point x="54" y="0" type="line"/>
      <point x="54" y="0"/>
      <point x="50" y="6.24805"/>
      <point x="50" y="15" type="curve" smooth="yes"/>
      <point x="50" y="23"/>
      <point x="54" y="29"/>
      <point x="54" y="29" type="curve"/>
      <point x="60.7275" y="29.3838" type="line" smooth="yes"/>
      <point x="68.6738" y="29.4883"/>
      <point x="76.3545" y="30.1689"/>
      <point x="83.8018" y="31.6494" type="curve" smooth="yes"/>
      <point x="99.9971" y="34.8691"/>
      <point x="106.062" y="55.3447"/>
      <point x="106.062" y="63.7695" type="curve"/>
      <point x="107.736" y="181.308"/>
      <point x="108.938" y="285.309"/>
      <point x="108.938" y="401.307" type="curve" smooth="yes"/>
      <point x="108.938" y="493.317"/>
      <point x="108.13" y="573.538"/>
      <point x="106.064" y="666.517" type="curve"/>
      <point x="106.064" y="674.807"/>
      <point x="99.9346" y="695.555"/>
      <point x="83.8057" y="698.757" type="curve" smooth="yes"/>
      <point x="74.1553" y="700.674"/>
      <point x="64.6826" y="700.971"/>
    </contour>
    <contour>
      <point x="223.567" y="675.107" type="curve" smooth="yes"/>
      <point x="223.567" y="662.106" type="line" smooth="yes"/>
      <point x="223.567" y="456.962"/>
      <point x="222.535" y="66.7109"/>
      <point x="222.535" y="66.708" type="curve"/>
      <point x="222.535" y="66.708"/>
      <point x="225.129" y="44.1738"/>
      <point x="233.082" y="43.4834" type="curve" smooth="yes"/>
      <point x="270.281" y="43.5703"/>
      <point x="283.741" y="44.1582"/>
      <point x="320.89" y="44.1582" type="curve" smooth="yes"/>
      <point x="536.525" y="44.1582"/>
      <point x="615.35" y="192.461"/>
      <point x="615.35" y="352.928" type="curve" smooth="yes"/>
      <point x="615.35" y="612.836"/>
      <point x="467.2" y="681.54"/>
      <point x="317.236" y="681.54" type="curve" smooth="yes"/>
      <point x="306.964" y="681.54"/>
      <point x="284.831" y="682.018"/>
      <point x="265.257" y="682.018" type="curve" smooth="yes"/>
      <point x="255.04" y="682.018"/>
      <point x="229.054" y="681.571"/>
      <point x="228.814" y="681.57" type="curve"/>
      <point x="224.531" y="681.51"/>
      <point x="223.567" y="677.698"/>
    </contour>
  </outline>
</glyph>
<glyph name="E" format="1">
  <advance width="595"/>
  <unicode hex="0045"/>
  <outline>
    <contour>
      <point x="57" y="701" type="curve"/>
      <point x="57" y="701"/>
      <point x="53" y="706.248"/>
      <point x="53" y="715" type="curve" smooth="yes"/>
      <point x="53" y="723"/>
      <point x="57" y="730"/>
      <point x="57" y="730" type="curve"/>
      <point x="126.607" y="730.333"/>
      <point x="188.903" y="730"/>
      <point x="266.9" y="730" type="curve" smooth="yes"/>
      <point x="504.71" y="730" type="line"/>
      <point x="523.472" y="565.496" type="line"/>
      <point x="493.739" y="567.329" type="line"/>
      <point x="480.974" y="628.95"/>
      <point x="457.57" y="664.998"/>
      <point x="394.204" y="684.123" type="curve" smooth="yes"/>
      <point x="360.816" y="694.053"/>
      <point x="332.323" y="695"/>
      <point x="282.126" y="695" type="curve" smooth="yes"/>
      <point x="261.311" y="695"/>
      <point x="251.005" y="694.063"/>
      <point x="230.002" y="691.736" type="curve" smooth="yes"/>
      <point x="215.042" y="690.079"/>
      <point x="207.763" y="671.36"/>
      <point x="207.666" y="664.455" type="curve" smooth="yes"/>
      <point x="204.131" y="419.444" type="line"/>
      <point x="235.579" y="417.256"/>
      <point x="274.816" y="415"/>
      <point x="305.814" y="415" type="curve" smooth="yes"/>
      <point x="344.229" y="415"/>
      <point x="374.908" y="417.881"/>
      <point x="405.755" y="420.588" type="curve"/>
      <point x="425.515" y="425.294"/>
      <point x="431.674" y="449.917"/>
      <point x="434.066" y="473.521" type="curve"/>
      <point x="461.121" y="473.521" type="line"/>
      <point x="461.121" y="315.025" type="line"/>
      <point x="434.066" y="315.025" type="line"/>
      <point x="429.944" y="338.926"/>
      <point x="425.219" y="363.144"/>
      <point x="402.475" y="368.61" type="curve"/>
      <point x="370.276" y="371.612"/>
      <point x="340.795" y="375"/>
      <point x="305.814" y="375" type="curve" smooth="yes"/>
      <point x="274.181" y="375"/>
      <point x="233.108" y="372.332"/>
      <point x="204.216" y="370.044" type="curve"/>
      <point x="207.663" y="71.0156" type="line"/>
      <point x="207.663" y="60.832"/>
      <point x="214.134" y="40.0996"/>
      <point x="230.52" y="38.2764" type="curve" smooth="yes"/>
      <point x="250.484" y="36.0557"/>
      <point x="260.761" y="34.9922"/>
      <point x="279.483" y="34.9922" type="curve" smooth="yes"/>
      <point x="344.774" y="34.9922"/>
      <point x="386.924" y="35.8242"/>
      <point x="430.993" y="45.999" type="curve" smooth="yes"/>
      <point x="492.794" y="60.9385"/>
      <point x="515.479" y="101.116"/>
      <point x="528.23" y="162.671" type="curve"/>
      <point x="557.963" y="164.504" type="line"/>
      <point x="539.201" y="0" type="line"/>
      <point x="57" y="0" type="line"/>
      <point x="57" y="0"/>
      <point x="53" y="6.24805"/>
      <point x="53" y="15" type="curve" smooth="yes"/>
      <point x="53" y="23"/>
      <point x="57" y="30"/>
      <point x="57" y="30" type="curve"/>
      <point x="69.7588" y="29.4453"/>
      <point x="73.8809" y="29.4404"/>
      <point x="84.9805" y="31.6484" type="curve" smooth="yes"/>
      <point x="101.174" y="34.8682"/>
      <point x="109.138" y="54.7256"/>
      <point x="109.241" y="64.5469" type="curve" smooth="yes"/>
      <point x="109.244" y="64.8262" type="line"/>
      <point x="109.271" y="65.1055" type="line" smooth="yes"/>
      <point x="110.834" y="81.748"/>
      <point x="111.292" y="249.174"/>
      <point x="111.292" y="410.138" type="curve" smooth="yes"/>
      <point x="111.292" y="534.968"/>
      <point x="110.405" y="641.074"/>
      <point x="109.283" y="665.344" type="curve" smooth="yes"/>
      <point x="109.262" y="665.593" type="line"/>
      <point x="109.259" y="665.843" type="line" smooth="yes"/>
      <point x="109.134" y="675.346"/>
      <point x="102.102" y="695.556"/>
      <point x="85.9854" y="698.756" type="curve" smooth="yes"/>
      <point x="76.335" y="700.673"/>
      <point x="67.8623" y="700.969"/>
    </contour>
  </outline>
</glyph>
<glyph name="F" format="1">
  <advance width="595"/>
  <unicode hex="0046"/>
  <outline>
    <contour>
      <point x="257" y="0" type="curve"/>
      <point x="58" y="0" type="line"/>
      <point x="58" y="0"/>
      <point x="54" y="6.24805"/>
      <point x="54" y="15" type="curve" smooth="yes"/>
      <point x="54" y="23"/>
      <point x="58" y="30"/>
      <point x="58" y="30" type="curve"/>
      <point x="65.9102" y="30.3125" type="line" smooth="yes"/>
      <point x="74.0146" y="30.6787"/>
      <point x="78.5361" y="31.0977"/>
      <point x="85.9854" y="32.5771" type="curve" smooth="yes"/>
      <point x="102.149" y="35.7861"/>
      <point x="109.248" y="54.0312"/>
      <point x="109.258" y="63.4102" type="curve" smooth="yes"/>
      <point x="109.258" y="63.7324" type="line"/>
      <point x="109.289" y="64.0537" type="line" smooth="yes"/>
      <point x="110.97" y="81.3701"/>
      <point x="111.267" y="239.23"/>
      <point x="111.267" y="395.42" type="curve" smooth="yes"/>
      <point x="111.267" y="526.376"/>
      <point x="110.241" y="665.857"/>
      <point x="110.241" y="665.857" type="curve" smooth="yes"/>
      <point x="110.241" y="675.568"/>
      <point x="102.216" y="695.456"/>
      <point x="85.9805" y="698.685" type="curve" smooth="yes"/>
      <point x="74.8789" y="700.893"/>
      <point x="70.7607" y="700.888"/>
      <point x="58" y="701" type="curve"/>
      <point x="58" y="701"/>
      <point x="54" y="706.248"/>
      <point x="54" y="715" type="curve" smooth="yes"/>
      <point x="54" y="723"/>
      <point x="58" y="730"/>
      <point x="58" y="730" type="curve"/>
      <point x="533.201" y="730.333" type="line"/>
      <point x="551.963" y="565.829" type="line"/>
      <point x="522.23" y="567.662" type="line"/>
      <point x="509.479" y="629.219"/>
      <point x="486.823" y="669.388"/>
      <point x="424.959" y="684.341" type="curve" smooth="yes"/>
      <point x="382.733" y="694.411"/>
      <point x="344.343" y="694.99"/>
      <point x="281.731" y="695.333" type="curve"/>
      <point x="260.945" y="695.333"/>
      <point x="250.587" y="694.394"/>
      <point x="229.578" y="692.064" type="curve" smooth="yes"/>
      <point x="213.177" y="690.247"/>
      <point x="206.699" y="679.54"/>
      <point x="206.699" y="669.388" type="curve"/>
      <point x="203.863" y="400.402" type="line"/>
      <point x="235.273" y="398.224"/>
      <point x="274.152" y="392"/>
      <point x="304.946" y="392" type="curve" smooth="yes"/>
      <point x="343.397" y="392"/>
      <point x="374.107" y="398.881"/>
      <point x="404.985" y="401.588" type="curve"/>
      <point x="424.119" y="406.141"/>
      <point x="431.938" y="430.886"/>
      <point x="433.324" y="454.521" type="curve"/>
      <point x="450.121" y="454.521" type="line"/>
      <point x="450.121" y="295.025" type="line"/>
      <point x="433.073" y="295.025" type="line"/>
      <point x="428.897" y="318.278"/>
      <point x="423.229" y="343.314"/>
      <point x="400.532" y="348.61" type="curve"/>
      <point x="367.366" y="351.612"/>
      <point x="336.999" y="355"/>
      <point x="300.967" y="355" type="curve" smooth="yes"/>
      <point x="268.351" y="355"/>
      <point x="229.301" y="352.355"/>
      <point x="201.564" y="350.042" type="curve"/>
      <point x="201.197" y="314.636" type="line"/>
      <point x="206.824" y="67.4346" type="line" smooth="yes"/>
      <point x="206.942" y="58.4736"/>
      <point x="209.716" y="38.9316"/>
      <point x="223.879" y="34.3262" type="curve" smooth="yes"/>
      <point x="234.003" y="31.0342"/>
      <point x="239.118" y="30.8496"/>
      <point x="250.137" y="30.2949" type="curve" smooth="yes"/>
      <point x="257" y="30" type="line"/>
      <point x="257" y="30"/>
      <point x="260" y="23.752"/>
      <point x="260" y="15" type="curve" smooth="yes"/>
      <point x="260" y="7"/>
      <point x="257" y="0"/>
    </contour>
    <contour>
      <point x="260" y="15" type="move" smooth="yes"/>
    </contour>
  </outline>
</glyph>
<glyph name="G" format="1">
  <advance width="795"/>
  <unicode hex="0047"/>
  <outline>
    <contour>
      <point x="575" y="280" type="curve"/>
      <point x="575" y="280"/>
      <point x="572" y="286"/>
      <point x="572" y="294" type="curve" smooth="yes"/>
      <point x="572" y="302.752"/>
      <point x="575" y="309"/>
      <point x="575" y="309" type="curve"/>
      <point x="778" y="309" type="line"/>
      <point x="778" y="309"/>
      <point x="781" y="302.752"/>
      <point x="781" y="294" type="curve" smooth="yes"/>
      <point x="781" y="286"/>
      <point x="778" y="280"/>
      <point x="778" y="280" type="curve"/>
      <point x="766.995" y="279.386"/>
      <point x="757.517" y="279.091"/>
      <point x="747.869" y="277.179" type="curve" smooth="yes"/>
      <point x="731.83" y="273.999"/>
      <point x="725.923" y="253.9"/>
      <point x="725.605" y="244.165" type="curve" smooth="yes"/>
      <point x="722" y="168.669" type="line"/>
      <point x="722" y="142.395"/>
      <point x="712.411" y="133.822"/>
      <point x="697.73" y="113.35" type="curve" smooth="yes"/>
      <point x="658.252" y="58.2988"/>
      <point x="567.242" y="-10.0078"/>
      <point x="425.256" y="-10.0078" type="curve" smooth="yes"/>
      <point x="299.398" y="-10.0078"/>
      <point x="55" y="52.6055"/>
      <point x="55" y="352.256" type="curve" smooth="yes"/>
      <point x="55" y="552.174"/>
      <point x="163.037" y="742.001"/>
      <point x="432.465" y="742.001" type="curve" smooth="yes"/>
      <point x="573.971" y="742.001"/>
      <point x="634.736" y="658.256"/>
      <point x="660" y="658.256" type="curve" smooth="yes"/>
      <point x="678.59" y="658.256"/>
      <point x="681.878" y="684.903"/>
      <point x="699" y="684.903" type="curve" smooth="yes"/>
      <point x="705.945" y="684.903"/>
      <point x="714.135" y="675.331"/>
      <point x="714.374" y="665.632" type="curve"/>
      <point x="717.182" y="466.459" type="line"/>
      <point x="716.725" y="459.562"/>
      <point x="707.7" y="451.991"/>
      <point x="701.049" y="451.991" type="curve" smooth="yes"/>
      <point x="696.217" y="451.991"/>
      <point x="686.576" y="455.227"/>
      <point x="684.579" y="463.323" type="curve" smooth="yes"/>
      <point x="660.114" y="562.456"/>
      <point x="590.153" y="690.77"/>
      <point x="418.047" y="690.77" type="curve" smooth="yes"/>
      <point x="249.339" y="690.77"/>
      <point x="178" y="509.981"/>
      <point x="178" y="384.646" type="curve" smooth="yes"/>
      <point x="178" y="72.7783"/>
      <point x="365.138" y="46"/>
      <point x="428.346" y="46" type="curve" smooth="yes"/>
      <point x="520.093" y="46"/>
      <point x="631.058" y="117.682"/>
      <point x="631.058" y="171.828" type="curve"/>
      <point x="628.488" y="244.505" type="line" smooth="yes"/>
      <point x="628.317" y="254.064"/>
      <point x="622.144" y="274.148"/>
      <point x="605.562" y="277.322" type="curve" smooth="yes"/>
      <point x="595.629" y="279.224"/>
      <point x="585.837" y="280.52"/>
    </contour>
    <contour>
      <point x="572" y="294" type="move" smooth="yes"/>
    </contour>
    <contour>
      <point x="781" y="294" type="move" smooth="yes"/>
    </contour>
  </outline>
</glyph>
<glyph name="H" format="1">
  <advance width="817"/>
  <unicode hex="0048"/>
  <outline>
    <contour>
      <point x="275.006" y="730.305" type="line"/>
      <point x="275.006" y="730.305"/>
      <point x="279" y="724.752"/>
      <point x="279" y="716" type="curve" smooth="yes"/>
      <point x="279" y="708"/>
      <point x="275.006" y="701"/>
      <point x="275.006" y="701" type="curve"/>
      <point x="264.2" y="700.211"/>
      <point x="256.722" y="699.915"/>
      <point x="247.075" y="698.005" type="curve" smooth="yes"/>
      <point x="230.777" y="694.777"/>
      <point x="222.815" y="676.241"/>
      <point x="222.815" y="666.264" type="curve" smooth="yes"/>
      <point x="222.815" y="611.204"/>
      <point x="222.659" y="567.139"/>
      <point x="222.659" y="512.099" type="curve" smooth="yes"/>
      <point x="222.659" y="484.516"/>
      <point x="222.696" y="452.692"/>
      <point x="222.812" y="427.391" type="curve" smooth="yes"/>
      <point x="222.825" y="426.176"/>
      <point x="226.257" y="425.777"/>
      <point x="228.54" y="425.592" type="curve" smooth="yes"/>
      <point x="277.721" y="425.038"/>
      <point x="334.282" y="424.358"/>
      <point x="398.822" y="424.358" type="curve" smooth="yes"/>
      <point x="466.63" y="424.358"/>
      <point x="533.234" y="425.104"/>
      <point x="587.216" y="425.675" type="curve"/>
      <point x="590" y="425.675"/>
      <point x="591.749" y="427.427"/>
      <point x="591.749" y="427.427" type="curve"/>
      <point x="591.749" y="666.554" type="line"/>
      <point x="591.637" y="676.531"/>
      <point x="583.654" y="695.646"/>
      <point x="567.374" y="698.867" type="curve" smooth="yes"/>
      <point x="557.725" y="700.776"/>
      <point x="551.247" y="701.072"/>
      <point x="539.392" y="701.305" type="curve"/>
      <point x="539.392" y="701.305"/>
      <point x="535.392" y="707.553"/>
      <point x="535.392" y="716.305" type="curve" smooth="yes"/>
      <point x="535.392" y="724.305"/>
      <point x="539.392" y="730.305"/>
      <point x="539.392" y="730.305" type="curve"/>
      <point x="761.397" y="730.609" type="line"/>
      <point x="761.397" y="730.609"/>
      <point x="765.392" y="725.057"/>
      <point x="765.392" y="716.305" type="curve" smooth="yes"/>
      <point x="765.392" y="708.305"/>
      <point x="761.397" y="701.305"/>
      <point x="761.397" y="701.305" type="curve"/>
      <point x="751.028" y="700.965"/>
      <point x="743.556" y="700.67"/>
      <point x="733.908" y="698.751" type="curve" smooth="yes"/>
      <point x="717.732" y="695.536"/>
      <point x="708.729" y="677.511"/>
      <point x="708.314" y="667.085" type="curve"/>
      <point x="706.284" y="575.074"/>
      <point x="705.447" y="492.667"/>
      <point x="705.447" y="400.322" type="curve" smooth="yes"/>
      <point x="705.447" y="284.806"/>
      <point x="706.655" y="179.887"/>
      <point x="708.315" y="64.3232" type="curve"/>
      <point x="708.733" y="54.8535"/>
      <point x="717.748" y="34.7852"/>
      <point x="733.547" y="31.6494" type="curve" smooth="yes"/>
      <point x="743.197" y="29.7344"/>
      <point x="750.668" y="29.4346"/>
      <point x="761.397" y="29.6094" type="curve"/>
      <point x="761.397" y="29.6094"/>
      <point x="765.392" y="24.0566"/>
      <point x="765.392" y="15.3047" type="curve" smooth="yes"/>
      <point x="765.392" y="7.30469"/>
      <point x="761.397" y="0.304688"/>
      <point x="761.397" y="0.304688" type="curve"/>
      <point x="539.392" y="0.304688" type="line"/>
      <point x="539.392" y="0.304688"/>
      <point x="535.392" y="6.55273"/>
      <point x="535.392" y="15.3047" type="curve" smooth="yes"/>
      <point x="535.392" y="23.3047"/>
      <point x="539.392" y="29.3047"/>
      <point x="539.392" y="29.3047" type="curve"/>
      <point x="550.248" y="29.4473"/>
      <point x="557.727" y="29.7452"/>
      <point x="567.373" y="31.6631" type="curve" smooth="yes"/>
      <point x="583.286" y="34.8271"/>
      <point x="591.507" y="53.7686"/>
      <point x="591.749" y="62.8535" type="curve"/>
      <point x="591.749" y="371.38" type="line" smooth="yes"/>
      <point x="591.749" y="372.589"/>
      <point x="589.405" y="372.875"/>
      <point x="586.532" y="373.129" type="curve" smooth="yes"/>
      <point x="532.713" y="373.696"/>
      <point x="465.694" y="374.446"/>
      <point x="398.822" y="374.446" type="curve" smooth="yes"/>
      <point x="334.983" y="374.446"/>
      <point x="278.958" y="373.771"/>
      <point x="229.189" y="373.211" type="curve" smooth="yes"/>
      <point x="226.693" y="373.047"/>
      <point x="222.849" y="372.74"/>
      <point x="222.811" y="371.342" type="curve" smooth="yes"/>
      <point x="222.539" y="336.003"/>
      <point x="222.449" y="295.555"/>
      <point x="222.449" y="260.051" type="curve" smooth="yes"/>
      <point x="222.449" y="189.863"/>
      <point x="222.804" y="133.09"/>
      <point x="222.807" y="63.0869" type="curve"/>
      <point x="223.595" y="53.292"/>
      <point x="232.659" y="34.7139"/>
      <point x="248.024" y="31.6631" type="curve" smooth="yes"/>
      <point x="257.674" y="29.7472"/>
      <point x="264.152" y="29.752"/>
      <point x="275.006" y="29.3047" type="curve"/>
      <point x="275.006" y="29.3047"/>
      <point x="279" y="23.752"/>
      <point x="279" y="15" type="curve" smooth="yes"/>
      <point x="279" y="7"/>
      <point x="275.006" y="0"/>
      <point x="275.006" y="0" type="curve"/>
      <point x="54" y="0" type="line"/>
      <point x="54" y="0"/>
      <point x="50" y="6.24805"/>
      <point x="50" y="15" type="curve" smooth="yes"/>
      <point x="50" y="23"/>
      <point x="54" y="29"/>
      <point x="54" y="29" type="curve"/>
      <point x="64.8545" y="29.4346"/>
      <point x="72.335" y="29.7305"/>
      <point x="81.9805" y="31.6494" type="curve" smooth="yes"/>
      <point x="98.2178" y="34.877"/>
      <point x="106.24" y="54.7246"/>
      <point x="106.24" y="64.5225" type="curve"/>
      <point x="107.908" y="181.281"/>
      <point x="109.115" y="287.773"/>
      <point x="109.115" y="404.247" type="curve" smooth="yes"/>
      <point x="109.115" y="494.9"/>
      <point x="108.271" y="575.296"/>
      <point x="106.258" y="665.847" type="curve"/>
      <point x="106.247" y="675.356"/>
      <point x="98.1523" y="695.541"/>
      <point x="81.9844" y="698.751" type="curve" smooth="yes"/>
      <point x="72.334" y="700.668"/>
      <point x="64.8613" y="700.965"/>
      <point x="54" y="701" type="curve"/>
      <point x="54" y="701"/>
      <point x="50" y="707.248"/>
      <point x="50" y="716" type="curve" smooth="yes"/>
      <point x="50" y="724"/>
      <point x="54" y="730"/>
      <point x="54" y="730" type="curve"/>
    </contour>
  </outline>
</glyph>
<glyph name="I" format="1">
  <advance width="325"/>
  <unicode hex="0049"/>
  <outline>
    <contour>
      <point x="274.397" y="729.609" type="line"/>
      <point x="274.397" y="729.609"/>
      <point x="278.392" y="724.057"/>
      <point x="278.392" y="715.305" type="curve" smooth="yes"/>
      <point x="278.392" y="707.305"/>
      <point x="274.397" y="700.305"/>
      <point x="274.397" y="700.305" type="curve"/>
      <point x="266.09" y="700.021" type="line" smooth="yes"/>
      <point x="255.297" y="699.651"/>
      <point x="223.412" y="684.258"/>
      <point x="222.772" y="666.74" type="curve" smooth="yes"/>
      <point x="220.743" y="572.52"/>
      <point x="219.915" y="487.963"/>
      <point x="219.915" y="393.458" type="curve" smooth="yes"/>
      <point x="219.915" y="280.801"/>
      <point x="221.086" y="177.833"/>
      <point x="222.777" y="65.1211" type="curve" smooth="yes"/>
      <point x="223.464" y="46.5127"/>
      <point x="243" y="30"/>
      <point x="267.094" y="29.3838" type="curve" smooth="yes"/>
      <point x="275.006" y="29.3047" type="line"/>
      <point x="275.006" y="29.3047"/>
      <point x="279" y="23.752"/>
      <point x="279" y="15" type="curve" smooth="yes"/>
      <point x="279" y="7"/>
      <point x="275.006" y="0"/>
      <point x="275.006" y="0" type="curve"/>
      <point x="54" y="0" type="line"/>
      <point x="54" y="0"/>
      <point x="50" y="6.24805"/>
      <point x="50" y="15" type="curve" smooth="yes"/>
      <point x="50" y="23"/>
      <point x="54" y="29"/>
      <point x="54" y="29" type="curve"/>
      <point x="57.8564" y="29.3838" type="line" smooth="yes"/>
      <point x="82" y="31"/>
      <point x="105.95" y="46.1602"/>
      <point x="105.95" y="64.9844" type="curve" smooth="yes"/>
      <point x="107.202" y="178.009"/>
      <point x="107.987" y="280.738"/>
      <point x="107.987" y="393.458" type="curve" smooth="yes"/>
      <point x="107.987" y="487.687"/>
      <point x="107.454" y="571.72"/>
      <point x="106.194" y="665.886" type="curve" smooth="yes"/>
      <point x="106.194" y="684.046"/>
      <point x="84.9293" y="699.143"/>
      <point x="61.8604" y="700.021" type="curve" smooth="yes"/>
      <point x="54.3916" y="700.305" type="line"/>
      <point x="54.3916" y="700.305"/>
      <point x="50.3916" y="706.553"/>
      <point x="50.3916" y="715.305" type="curve" smooth="yes"/>
      <point x="50.3916" y="723.305"/>
      <point x="54.3916" y="729.305"/>
      <point x="54.3916" y="729.305" type="curve"/>
    </contour>
  </outline>
</glyph>
<glyph name="J" format="1">
  <advance width="325"/>
  <unicode hex="004A"/>
  <outline>
    <contour>
      <point x="272.047" y="730" type="line"/>
      <point x="272.047" y="730"/>
      <point x="275.392" y="724.057"/>
      <point x="275.392" y="715.305" type="curve" smooth="yes"/>
      <point x="275.392" y="707.305"/>
      <point x="271.397" y="701.305"/>
      <point x="271.397" y="701.305" type="curve"/>
      <point x="264.132" y="700.911" type="line" smooth="yes"/>
      <point x="241" y="700"/>
      <point x="220.14" y="684.929"/>
      <point x="219.824" y="666.62" type="curve" smooth="yes"/>
      <point x="218.787" y="606.201"/>
      <point x="217.39" y="522.184"/>
      <point x="217.39" y="424.7" type="curve" smooth="yes"/>
      <point x="217.39" y="248.863"/>
      <point x="219.531" y="61.7354"/>
      <point x="220.196" y="39.5791" type="curve" smooth="yes"/>
      <point x="219.662" y="-103.026"/>
      <point x="98.5781" y="-174.785"/>
      <point x="-82" y="-180.214" type="curve"/>
      <point x="-82" y="-141.698" type="line"/>
      <point x="56.2393" y="-102.787"/>
      <point x="101.512" y="-71.3896"/>
      <point x="102.859" y="83.3213" type="curve" smooth="yes"/>
      <point x="103.099" y="110.799"/>
      <point x="104.29" y="296.102"/>
      <point x="104.29" y="466.247" type="curve" smooth="yes"/>
      <point x="104.29" y="545.038"/>
      <point x="104.133" y="610.59"/>
      <point x="103.29" y="665.688" type="curve" smooth="yes"/>
      <point x="102.992" y="685.148"/>
      <point x="83" y="700"/>
      <point x="58.5645" y="700.932" type="curve" smooth="yes"/>
      <point x="51.3916" y="701.305" type="line"/>
      <point x="51.3916" y="701.305"/>
      <point x="47.3916" y="707.553"/>
      <point x="47.3916" y="716.305" type="curve" smooth="yes"/>
      <point x="47.3916" y="724.305"/>
      <point x="51" y="730"/>
      <point x="51" y="730" type="curve"/>
    </contour>
  </outline>
</glyph>
<glyph name="K" format="1">
  <advance width="630"/>
  <unicode hex="004B"/>
  <outline>
    <contour>
      <point x="591.264" y="29" type="line"/>
      <point x="591.264" y="29"/>
      <point x="595.392" y="24.0566"/>
      <point x="595.392" y="15.3047" type="curve" smooth="yes"/>
      <point x="595.392" y="7.30469"/>
      <point x="592" y="0"/>
      <point x="592" y="0" type="curve"/>
      <point x="390" y="0" type="line"/>
      <point x="390" y="0"/>
      <point x="385.392" y="6.55273"/>
      <point x="385.392" y="15.3047" type="curve" smooth="yes"/>
      <point x="385.392" y="23.3047"/>
      <point x="390.264" y="29"/>
      <point x="390.264" y="29" type="curve"/>
      <point x="411.924" y="29"/>
      <point x="417.14" y="43.5068"/>
      <point x="417.14" y="56.4512" type="curve" smooth="yes"/>
      <point x="417.14" y="65.5928"/>
      <point x="408.424" y="81.1133"/>
      <point x="398.462" y="95" type="curve" smooth="yes"/>
      <point x="320.264" y="204"/>
      <point x="217.638" y="329.649"/>
      <point x="202" y="352" type="curve"/>
      <point x="194.971" y="345.261"/>
      <point x="192.256" y="343.219"/>
      <point x="185.317" y="339.856" type="curve"/>
      <point x="188.264" y="66.0723" type="line" smooth="yes"/>
      <point x="188.466" y="46.6611"/>
      <point x="209.459" y="30.249"/>
      <point x="232.264" y="29" type="curve" smooth="yes"/>
      <point x="239.397" y="28.6094" type="line"/>
      <point x="239.397" y="28.6094"/>
      <point x="243.392" y="24.0566"/>
      <point x="243.392" y="15.3047" type="curve" smooth="yes"/>
      <point x="243.392" y="7.30469"/>
      <point x="240" y="0"/>
      <point x="240" y="0" type="curve"/>
      <point x="19" y="0" type="line"/>
      <point x="19" y="0"/>
      <point x="14.3916" y="6.55273"/>
      <point x="14.3916" y="15.3047" type="curve" smooth="yes"/>
      <point x="14.3916" y="23.3047"/>
      <point x="19" y="29"/>
      <point x="19" y="29" type="curve"/>
      <point x="26.2637" y="29" type="line" smooth="yes"/>
      <point x="47.5784" y="29"/>
      <point x="71.2637" y="46.8633"/>
      <point x="71.2637" y="65.5215" type="curve" smooth="yes"/>
      <point x="73.0986" y="181.29"/>
      <point x="73.4268" y="286.765"/>
      <point x="73.4268" y="402.222" type="curve" smooth="yes"/>
      <point x="73.4268" y="493.436"/>
      <point x="72.5" y="574.337"/>
      <point x="71.2637" y="665.43" type="curve" smooth="yes"/>
      <point x="71.0234" y="683.164"/>
      <point x="50" y="700"/>
      <point x="26.2637" y="701" type="curve" smooth="yes"/>
      <point x="20.3916" y="701.305" type="line"/>
      <point x="20.3916" y="701.305"/>
      <point x="16.3916" y="707.553"/>
      <point x="16.3916" y="716.305" type="curve" smooth="yes"/>
      <point x="16.3916" y="724.305"/>
      <point x="19" y="730"/>
      <point x="19" y="730" type="curve"/>
      <point x="240" y="730" type="line"/>
      <point x="240" y="730"/>
      <point x="244.392" y="725.057"/>
      <point x="244.392" y="716.305" type="curve" smooth="yes"/>
      <point x="244.392" y="708.305"/>
      <point x="240.397" y="701.305"/>
      <point x="240.397" y="701.305" type="curve"/>
      <point x="233.264" y="701" type="line" smooth="yes"/>
      <point x="209" y="700"/>
      <point x="188.264" y="701.302"/>
      <point x="188.264" y="683.952" type="curve" smooth="yes"/>
      <point x="184.404" y="412.321" type="line"/>
      <point x="199.884" y="419.572"/>
      <point x="205.693" y="426.257"/>
      <point x="228" y="456" type="curve"/>
      <point x="386.692" y="643.238" type="line" smooth="yes"/>
      <point x="401.043" y="662.099"/>
      <point x="405.243" y="673.513"/>
      <point x="405.243" y="678.752" type="curve" smooth="yes"/>
      <point x="405.243" y="689.8"/>
      <point x="378.608" y="700.695"/>
      <point x="367.872" y="700.695" type="curve" smooth="yes"/>
      <point x="361" y="701" type="line"/>
      <point x="361" y="701"/>
      <point x="356.392" y="706.553"/>
      <point x="356.392" y="715.305" type="curve" smooth="yes"/>
      <point x="356.392" y="723.305"/>
      <point x="361" y="730"/>
      <point x="361" y="730" type="curve"/>
      <point x="530" y="730" type="line"/>
      <point x="530" y="730"/>
      <point x="534.392" y="724.057"/>
      <point x="534.392" y="715.305" type="curve" smooth="yes"/>
      <point x="534.392" y="707.305"/>
      <point x="530" y="701"/>
      <point x="530" y="701" type="curve"/>
      <point x="519.866" y="700.695" type="line" smooth="yes"/>
      <point x="488.603" y="699.695"/>
      <point x="481.716" y="680.766"/>
      <point x="462.881" y="657.502" type="curve" smooth="yes"/>
      <point x="275.235" y="425.736" type="line"/>
      <point x="301.575" y="390.591" type="line"/>
      <point x="308.696" y="382.428" type="line" smooth="yes"/>
      <point x="406.12" y="246.273"/>
      <point x="497.198" y="119.085"/>
      <point x="540.94" y="59.6836" type="curve"/>
      <point x="554.264" y="42"/>
      <point x="574" y="29"/>
      <point x="584.264" y="29" type="curve" smooth="yes"/>
    </contour>
  </outline>
</glyph>
<glyph name="L" format="1">
  <advance width="617"/>
  <unicode hex="004C"/>
  <outline>
    <contour>
      <point x="278.047" y="730" type="line"/>
      <point x="278.047" y="730"/>
      <point x="281.392" y="725.057"/>
      <point x="281.392" y="716.305" type="curve" smooth="yes"/>
      <point x="281.392" y="708.305"/>
      <point x="278" y="701"/>
      <point x="278" y="701" type="curve"/>
      <point x="271.137" y="701.048" type="line" smooth="yes"/>
      <point x="254" y="701"/>
      <point x="226.101" y="686.981"/>
      <point x="225.824" y="665.888" type="curve" smooth="yes"/>
      <point x="223.808" y="574.193"/>
      <point x="222.961" y="492.501"/>
      <point x="222.961" y="400.639" type="curve" smooth="yes"/>
      <point x="224.662" y="286.884"/>
      <point x="223.891" y="183.121"/>
      <point x="225.663" y="69.085" type="curve"/>
      <point x="225.663" y="59.2803"/>
      <point x="231.516" y="40.1719"/>
      <point x="248.52" y="38.2793" type="curve" smooth="yes"/>
      <point x="269.509" y="35.9424"/>
      <point x="279.854" y="35"/>
      <point x="300.623" y="35" type="curve"/>
      <point x="365.279" y="35.3428"/>
      <point x="387.366" y="35.9268"/>
      <point x="430.993" y="45.999" type="curve" smooth="yes"/>
      <point x="490.142" y="60.2969"/>
      <point x="515.016" y="98.8965"/>
      <point x="527.146" y="157.434" type="curve" smooth="yes"/>
      <point x="528.23" y="162.671" type="line"/>
      <point x="557.963" y="164.504" type="line"/>
      <point x="539.201" y="0" type="line"/>
      <point x="56" y="0" type="line"/>
      <point x="56" y="0"/>
      <point x="51.3916" y="6.55273"/>
      <point x="51.3916" y="15.3047" type="curve" smooth="yes"/>
      <point x="51.3916" y="23.3047"/>
      <point x="56" y="29"/>
      <point x="56" y="29" type="curve"/>
      <point x="63.9248" y="29.3838" type="line" smooth="yes"/>
      <point x="89" y="31"/>
      <point x="109.241" y="46.7422"/>
      <point x="109.241" y="67.5234" type="curve" smooth="yes"/>
      <point x="110.899" y="183.628"/>
      <point x="111.116" y="286.467"/>
      <point x="111.116" y="402.288" type="curve" smooth="yes"/>
      <point x="111.116" y="493.949"/>
      <point x="110.301" y="573.908"/>
      <point x="109.244" y="666.471" type="curve" smooth="yes"/>
      <point x="109.049" y="683.619"/>
      <point x="87" y="701"/>
      <point x="63.9102" y="701.021" type="curve" smooth="yes"/>
      <point x="57" y="701" type="line"/>
      <point x="57" y="701"/>
      <point x="52.3916" y="707.553"/>
      <point x="52.3916" y="716.305" type="curve" smooth="yes"/>
      <point x="52.3916" y="724.305"/>
      <point x="57" y="730"/>
      <point x="57" y="730" type="curve"/>
    </contour>
  </outline>
</glyph>
<glyph name="M" format="1">
  <advance width="873"/>
  <unicode hex="004D"/>
  <outline>
    <contour>
      <point x="808.129" y="729.998" type="line"/>
      <point x="808.129" y="729.998"/>
      <point x="811.392" y="725.057"/>
      <point x="811.392" y="716.305" type="curve" smooth="yes"/>
      <point x="811.392" y="708.305"/>
      <point x="808" y="701"/>
      <point x="808" y="701" type="curve"/>
      <point x="801.214" y="701.021" type="line" smooth="yes"/>
      <point x="778" y="701"/>
      <point x="756.004" y="685.323"/>
      <point x="755.907" y="666.873" type="curve" smooth="yes"/>
      <point x="755.097" y="605.802"/>
      <point x="752.677" y="555.087"/>
      <point x="752.677" y="494.521" type="curve" smooth="yes"/>
      <point x="752.677" y="451.723"/>
      <point x="752.608" y="409.123"/>
      <point x="752.608" y="366.664" type="curve" smooth="yes"/>
      <point x="752.608" y="262.076"/>
      <point x="753.024" y="168.337"/>
      <point x="755.909" y="64.5742" type="curve" smooth="yes"/>
      <point x="756.295" y="46.1377"/>
      <point x="777.971" y="29.6695"/>
      <point x="801.219" y="29.3838" type="curve" smooth="yes"/>
      <point x="808.132" y="29.2988" type="line"/>
      <point x="808.132" y="29.2988"/>
      <point x="811.392" y="24.0566"/>
      <point x="811.392" y="15.3047" type="curve" smooth="yes"/>
      <point x="811.392" y="7.30469"/>
      <point x="808" y="0"/>
      <point x="808" y="0" type="curve"/>
      <point x="587" y="0" type="line"/>
      <point x="587" y="0"/>
      <point x="582.392" y="6.55273"/>
      <point x="582.392" y="15.3047" type="curve" smooth="yes"/>
      <point x="582.392" y="23.3047"/>
      <point x="587" y="30"/>
      <point x="587" y="30" type="curve"/>
      <point x="594.988" y="29.9463" type="line" smooth="yes"/>
      <point x="619" y="30"/>
      <point x="639.048" y="46.873"/>
      <point x="639.334" y="65.626" type="curve" smooth="yes"/>
      <point x="640.314" y="129.847"/>
      <point x="641.725" y="184.042"/>
      <point x="641.725" y="248" type="curve" smooth="yes"/>
      <point x="641.725" y="328.926"/>
      <point x="641.732" y="412.956"/>
      <point x="641.732" y="495" type="curve" smooth="yes"/>
      <point x="641.732" y="526.796"/>
      <point x="641.666" y="558.654"/>
      <point x="641.495" y="589.321" type="curve"/>
      <point x="425.306" y="168.829" type="line"/>
      <point x="422.088" y="162.671"/>
      <point x="412.384" y="148.276"/>
      <point x="401.993" y="148.276" type="curve" smooth="yes"/>
      <point x="394.794" y="148.276"/>
      <point x="389.693" y="153.756"/>
      <point x="386.13" y="160.999" type="curve" smooth="yes"/>
      <point x="386.13" y="160.999"/>
      <point x="231.477" y="485.632"/>
      <point x="182.151" y="588.842" type="curve"/>
      <point x="164.093" y="65.0693" type="line"/>
      <point x="165.827" y="46.4072"/>
      <point x="185.197" y="31.1069"/>
      <point x="209.378" y="29.9463" type="curve" smooth="yes"/>
      <point x="216.397" y="29.6094" type="line"/>
      <point x="216.397" y="29.6094"/>
      <point x="220.392" y="24.0566"/>
      <point x="220.392" y="15.3047" type="curve" smooth="yes"/>
      <point x="220.392" y="7.30469"/>
      <point x="217" y="0"/>
      <point x="217" y="0" type="curve"/>
      <point x="37" y="0" type="line"/>
      <point x="37" y="0"/>
      <point x="32.3916" y="6.55273"/>
      <point x="32.3916" y="15.3047" type="curve" smooth="yes"/>
      <point x="32.3916" y="23.3047"/>
      <point x="38" y="30"/>
      <point x="38" y="30" type="curve"/>
      <point x="45.1846" y="30.3838" type="line" smooth="yes"/>
      <point x="70" y="32"/>
      <point x="88.7061" y="46.1543"/>
      <point x="89.5234" y="66.6875" type="curve" smooth="yes"/>
      <point x="97.6413" y="270.613"/>
      <point x="104.75" y="456.241"/>
      <point x="109.536" y="663.082" type="curve"/>
      <point x="109.538" y="663.361"/>
      <point x="109.538" y="663.789"/>
      <point x="109.538" y="664.078" type="curve" smooth="yes"/>
      <point x="109.538" y="683.176"/>
      <point x="88" y="701"/>
      <point x="64.1875" y="701.022" type="curve" smooth="yes"/>
      <point x="57" y="701" type="line"/>
      <point x="57" y="701"/>
      <point x="52.3916" y="707.553"/>
      <point x="52.3916" y="716.305" type="curve" smooth="yes"/>
      <point x="52.3916" y="724.305"/>
      <point x="57" y="730"/>
      <point x="57" y="730" type="curve"/>
      <point x="227.641" y="730" type="line"/>
      <point x="433.707" y="302.253" type="line"/>
      <point x="654.948" y="729.998" type="line"/>
    </contour>
  </outline>
</glyph>
<glyph name="N" format="1">
  <advance width="841"/>
  <unicode hex="004E"/>
  <outline>
    <contour>
      <point x="44" y="0" type="line"/>
      <point x="44" y="0"/>
      <point x="39.3916" y="6.55273"/>
      <point x="39.3916" y="15.3047" type="curve" smooth="yes"/>
      <point x="39.3916" y="23.3047"/>
      <point x="44" y="29"/>
      <point x="44" y="29" type="curve"/>
      <point x="50.9062" y="29.3838" type="line" smooth="yes"/>
      <point x="76" y="31"/>
      <point x="96.2402" y="46.2266"/>
      <point x="96.2402" y="66.4551" type="curve" smooth="yes"/>
      <point x="97.873" y="398.75" type="line"/>
      <point x="96.2578" y="663.939" type="line" smooth="yes"/>
      <point x="95.9951" y="683.906"/>
      <point x="76" y="702"/>
      <point x="50.9092" y="702.022" type="curve" smooth="yes"/>
      <point x="45" y="702" type="line"/>
      <point x="45" y="702"/>
      <point x="40.3916" y="707.553"/>
      <point x="40.3916" y="716.305" type="curve" smooth="yes"/>
      <point x="40.3916" y="724.305"/>
      <point x="45" y="730"/>
      <point x="45" y="730" type="curve"/>
      <point x="188.133" y="730" type="line"/>
      <point x="662.066" y="170.81" type="line"/>
      <point x="662.066" y="340.894"/>
      <point x="661.751" y="492.72"/>
      <point x="661.751" y="665.009" type="curve" smooth="yes"/>
      <point x="661.751" y="683.828"/>
      <point x="636.948" y="699.936"/>
      <point x="616.299" y="701.461" type="curve" smooth="yes"/>
      <point x="609" y="702" type="line"/>
      <point x="609" y="702"/>
      <point x="604.392" y="707.553"/>
      <point x="604.392" y="716.305" type="curve" smooth="yes"/>
      <point x="604.392" y="724.305"/>
      <point x="609" y="730"/>
      <point x="609" y="730" type="curve"/>
      <point x="791" y="730" type="line"/>
      <point x="791" y="730"/>
      <point x="794.392" y="725.057"/>
      <point x="794.392" y="716.305" type="curve" smooth="yes"/>
      <point x="794.392" y="708.305"/>
      <point x="791" y="702"/>
      <point x="791" y="702" type="curve"/>
      <point x="783.979" y="702.016" type="line" smooth="yes"/>
      <point x="761" y="702"/>
      <point x="739.543" y="684.438"/>
      <point x="738.361" y="666.905" type="curve" smooth="yes"/>
      <point x="736.477" y="574.365"/>
      <point x="735.752" y="492.911"/>
      <point x="735.752" y="400.251" type="curve" smooth="yes"/>
      <point x="735.752" y="269.146"/>
      <point x="737.233" y="144.062"/>
      <point x="739" y="12.748" type="curve"/>
      <point x="739" y="-0.271484"/>
      <point x="726.65" y="-8.99023"/>
      <point x="714" y="-8.99023" type="curve" smooth="yes"/>
      <point x="704.509" y="-8.99023"/>
      <point x="692.627" y="-4.62695"/>
      <point x="690" y="-2" type="curve" smooth="yes"/>
      <point x="684" y="4" type="line" smooth="yes"/>
      <point x="500.468" y="210.897"/>
      <point x="358.653" y="404.021"/>
      <point x="172.829" y="607.279" type="curve"/>
      <point x="172.79" y="557.426"/>
      <point x="171.778" y="510.642"/>
      <point x="171.778" y="462" type="curve" smooth="yes"/>
      <point x="171.778" y="361.999"/>
      <point x="171.832" y="272.059"/>
      <point x="171.832" y="172" type="curve" smooth="yes"/>
      <point x="171.832" y="136.437"/>
      <point x="172.825" y="100.423"/>
      <point x="173.807" y="65.123" type="curve" smooth="yes"/>
      <point x="174.317" y="46.7568"/>
      <point x="195" y="30"/>
      <point x="219.038" y="28.9463" type="curve" smooth="yes"/>
      <point x="226.397" y="28.6094" type="line"/>
      <point x="226.397" y="28.6094"/>
      <point x="230.392" y="24.0566"/>
      <point x="230.392" y="15.3047" type="curve" smooth="yes"/>
      <point x="230.392" y="7.30469"/>
      <point x="227" y="0"/>
      <point x="227" y="0" type="curve"/>
    </contour>
  </outline>
</glyph>
<glyph name="O" format="1">
  <advance width="828"/>
  <unicode hex="004F"/>
  <outline>
    <contour>
      <point x="411.301" y="733.809" type="curve" smooth="yes"/>
      <point x="609.64" y="733.809"/>
      <point x="773.572" y="607.613"/>
      <point x="773.572" y="360.783" type="curve" smooth="yes"/>
      <point x="773.572" y="123.736"/>
      <point x="577.115" y="-10"/>
      <point x="413.245" y="-10" type="curve" smooth="yes"/>
      <point x="294.432" y="-10"/>
      <point x="55" y="53.6592"/>
      <point x="55" y="351.949" type="curve" smooth="yes"/>
      <point x="55" y="599.623"/>
      <point x="217.102" y="733.809"/>
    </contour>
    <contour>
      <point x="403.976" y="684.77" type="curve" smooth="yes"/>
      <point x="196.148" y="684.77"/>
      <point x="178.326" y="452.104"/>
      <point x="178.326" y="384.293" type="curve" smooth="yes"/>
      <point x="178.326" y="67.9648"/>
      <point x="357.994" y="40.667"/>
      <point x="421.187" y="40.667" type="curve" smooth="yes"/>
      <point x="539.844" y="40.667"/>
      <point x="652.246" y="114.952"/>
      <point x="652.246" y="376.696" type="curve" smooth="yes"/>
      <point x="652.246" y="529.615"/>
      <point x="593.346" y="684.77"/>
    </contour>
  </outline>
</glyph>
<glyph name="P" format="1">
  <advance width="568"/>
  <unicode hex="0050"/>
  <outline>
    <contour>
      <point x="237.397" y="28.6094" type="line"/>
      <point x="237.397" y="28.6094"/>
      <point x="241.392" y="24.0566"/>
      <point x="241.392" y="15.3047" type="curve" smooth="yes"/>
      <point x="241.392" y="7.30469"/>
      <point x="238" y="0"/>
      <point x="238" y="0" type="curve"/>
      <point x="17" y="0" type="line"/>
      <point x="17" y="0"/>
      <point x="12.3916" y="6.55273"/>
      <point x="12.3916" y="15.3047" type="curve" smooth="yes"/>
      <point x="12.3916" y="23.3047"/>
      <point x="17" y="29"/>
      <point x="17" y="29" type="curve"/>
      <point x="24.0381" y="29.3838" type="line" smooth="yes"/>
      <point x="47" y="31"/>
      <point x="69.373" y="46.6104"/>
      <point x="69.373" y="63.8066" type="curve" smooth="yes"/>
      <point x="70.9727" y="180.92"/>
      <point x="71.2793" y="284.685"/>
      <point x="71.2793" y="400.326" type="curve" smooth="yes"/>
      <point x="71.2793" y="487.4"/>
      <point x="69.4941" y="572.247"/>
      <point x="69.4941" y="659.177" type="curve" smooth="yes"/>
      <point x="69.4941" y="687.557"/>
      <point x="46" y="701"/>
      <point x="25.042" y="701.021" type="curve" smooth="yes"/>
      <point x="17" y="701" type="line"/>
      <point x="17" y="701"/>
      <point x="12.3916" y="707.553"/>
      <point x="12.3916" y="716.305" type="curve" smooth="yes"/>
      <point x="12.3916" y="724.305"/>
      <point x="17" y="730"/>
      <point x="17" y="730" type="curve"/>
      <point x="247.759" y="732" type="line" smooth="yes"/>
      <point x="407.402" y="732"/>
      <point x="532.388" y="671.053"/>
      <point x="532.388" y="503.468" type="curve" smooth="yes"/>
      <point x="532.388" y="347.451"/>
      <point x="400.828" y="274.9"/>
      <point x="270.138" y="274.9" type="curve" smooth="yes"/>
      <point x="257.391" y="274.9"/>
      <point x="245.77" y="275.512"/>
      <point x="233.395" y="276.711" type="curve" smooth="yes"/>
      <point x="219.357" y="278.071"/>
      <point x="209.2" y="290.041"/>
      <point x="209.2" y="303" type="curve" smooth="yes"/>
      <point x="209.2" y="314.531"/>
      <point x="229.039" y="328"/>
      <point x="243.347" y="328" type="curve" smooth="yes"/>
      <point x="346.851" y="328"/>
      <point x="429.653" y="377.769"/>
      <point x="429.653" y="515.354" type="curve" smooth="yes"/>
      <point x="429.653" y="651.675"/>
      <point x="342.022" y="689.888"/>
      <point x="230.883" y="689.888" type="curve" smooth="yes"/>
      <point x="186.637" y="689.888" type="line"/>
      <point x="184.459" y="590.974"/>
      <point x="183.525" y="494.22"/>
      <point x="183.525" y="395.965" type="curve" smooth="yes"/>
      <point x="183.525" y="281.894"/>
      <point x="184.66" y="177.737"/>
      <point x="186.505" y="63.4375" type="curve" smooth="yes"/>
      <point x="186.702" y="45.7402"/>
      <point x="209" y="32"/>
      <point x="230.249" y="29.3506" type="curve" smooth="yes"/>
    </contour>
  </outline>
</glyph>
<glyph name="Q" format="1">
  <advance width="838"/>
  <unicode hex="0051"/>
  <outline>
    <contour>
      <point x="408.982" y="683.77" type="curve" smooth="yes"/>
      <point x="196.664" y="683.77"/>
      <point x="178.326" y="448.814"/>
      <point x="178.326" y="380.297" type="curve" smooth="yes"/>
      <point x="178.326" y="61.1904"/>
      <point x="361.543" y="33.667"/>
      <point x="426.182" y="33.667" type="curve" smooth="yes"/>
      <point x="547.46" y="33.667"/>
      <point x="662.246" y="108.61"/>
      <point x="662.246" y="372.699" type="curve" smooth="yes"/>
      <point x="662.246" y="527.134"/>
      <point x="602.104" y="683.77"/>
    </contour>
    <contour>
      <point x="416.303" y="732.809" type="curve" smooth="yes"/>
      <point x="617.238" y="732.809"/>
      <point x="783.572" y="605.609"/>
      <point x="783.572" y="356.808" type="curve" smooth="yes"/>
      <point x="783.572" y="136.992"/>
      <point x="615.598" y="5.99902"/>
      <point x="459.734" y="-14.2607" type="curve"/>
      <point x="468.951" y="-64.3271"/>
      <point x="510.965" y="-91.6182"/>
      <point x="619.803" y="-91.6182" type="curve" smooth="yes"/>
      <point x="627.592" y="-91.6182"/>
      <point x="635.706" y="-91.416"/>
      <point x="644.154" y="-91.0088" type="curve" smooth="yes"/>
      <point x="650.195" y="-90.7178" type="line"/>
      <point x="661.969" y="-147.42" type="line"/>
      <point x="653.76" y="-148.139" type="line" smooth="yes"/>
      <point x="625.898" y="-150.578"/>
      <point x="599.797" y="-151.864"/>
      <point x="575.476" y="-151.864" type="curve" smooth="yes"/>
      <point x="440.456" y="-151.864"/>
      <point x="354.689" y="-113.265"/>
      <point x="341.656" y="-9.45996" type="curve"/>
      <point x="215.992" y="14.2891"/>
      <point x="55" y="102.646"/>
      <point x="55" y="348.02" type="curve" smooth="yes"/>
      <point x="55" y="597.639"/>
      <point x="219.486" y="732.809"/>
    </contour>
  </outline>
</glyph>
<glyph name="T" format="1">
  <advance width="709"/>
  <unicode hex="0054"/>
  <outline>
    <contour>
      <point x="485" y="0" type="curve"/>
      <point x="264" y="0" type="line"/>
      <point x="264" y="0"/>
      <point x="259.392" y="6.55273"/>
      <point x="259.392" y="15.3047" type="curve" smooth="yes"/>
      <point x="259.392" y="23.3047"/>
      <point x="264" y="29"/>
      <point x="264" y="29" type="curve"/>
      <point x="271.005" y="29.2842" type="line" smooth="yes"/>
      <point x="283.364" y="29.4395"/>
      <point x="288.037" y="30.3623"/>
      <point x="297.262" y="35.3145" type="curve" smooth="yes"/>
      <point x="311.428" y="42.9189"/>
      <point x="315.024" y="55.0488"/>
      <point x="315.143" y="64.0576" type="curve" smooth="yes"/>
      <point x="316.539" y="128.843"/>
      <point x="318.023" y="264.542"/>
      <point x="318.023" y="329.221" type="curve" smooth="yes"/>
      <point x="318.023" y="467.991"/>
      <point x="316.791" y="515.669"/>
      <point x="316.534" y="654.898" type="curve" smooth="yes"/>
      <point x="316.534" y="670.686"/>
      <point x="310.636" y="682.237"/>
      <point x="299.637" y="683.815" type="curve" smooth="yes"/>
      <point x="293.879" y="684.642"/>
      <point x="282.482" y="685.114"/>
      <point x="268.636" y="685.114" type="curve" smooth="yes"/>
      <point x="233.809" y="685.114"/>
      <point x="190.43" y="682.118"/>
      <point x="161.299" y="677.104" type="curve" smooth="yes"/>
      <point x="119.049" y="669.722"/>
      <point x="101.326" y="640.478"/>
      <point x="91.9531" y="590.315" type="curve"/>
      <point x="58" y="590.339" type="line"/>
      <point x="77.2842" y="727.471" type="line"/>
      <point x="77.3984" y="727.881" type="line" smooth="yes"/>
      <point x="79.1357" y="734.109"/>
      <point x="85.2607" y="735.953"/>
      <point x="89.1406" y="735.953" type="curve" smooth="yes"/>
      <point x="97.0664" y="735.953"/>
      <point x="106.723" y="732.861"/>
      <point x="113.2" y="732.764" type="curve" smooth="yes"/>
      <point x="150.035" y="732.207"/>
      <point x="242.834" y="730"/>
      <point x="369.19" y="730" type="curve"/>
      <point x="480.101" y="730.999"/>
      <point x="550.114" y="732.755"/>
      <point x="639.89" y="734.753" type="curve" smooth="yes"/>
      <point x="643.141" y="734.825"/>
      <point x="657.814" y="737.774"/>
      <point x="664.512" y="737.774" type="curve" smooth="yes"/>
      <point x="669.469" y="737.774"/>
      <point x="673.141" y="737.121"/>
      <point x="673.141" y="725.884" type="curve"/>
      <point x="668.899" y="589.981" type="line"/>
      <point x="638.169" y="589.765" type="line"/>
      <point x="638.017" y="625.199"/>
      <point x="630.038" y="671.898"/>
      <point x="599.676" y="679.146" type="curve" smooth="yes"/>
      <point x="577.245" y="684.5"/>
      <point x="568.197" y="684.759"/>
      <point x="506.922" y="684.759" type="curve" smooth="yes"/>
      <point x="489.086" y="684.759"/>
      <point x="473.495" y="684.334"/>
      <point x="454.612" y="683.956" type="curve" smooth="yes"/>
      <point x="439.529" y="683.654"/>
      <point x="432.941" y="672.018"/>
      <point x="432.821" y="661.188" type="curve" smooth="yes"/>
      <point x="431.095" y="546.837"/>
      <point x="430.026" y="442.542"/>
      <point x="430.026" y="328.383" type="curve" smooth="yes"/>
      <point x="430.026" y="236.971"/>
      <point x="430.855" y="155.718"/>
      <point x="432.882" y="64.4688" type="curve"/>
      <point x="433.007" y="54.918"/>
      <point x="441.037" y="39.7441"/>
      <point x="457.155" y="33.5469" type="curve" smooth="yes"/>
      <point x="464.245" y="30.8213"/>
      <point x="470.286" y="29.3867"/>
      <point x="478.23" y="29.2842" type="curve" smooth="yes"/>
      <point x="484.397" y="28.6094" type="line"/>
      <point x="484.397" y="28.6094"/>
      <point x="488.392" y="24.0566"/>
      <point x="488.392" y="15.3047" type="curve" smooth="yes"/>
      <point x="488.392" y="7.30469"/>
      <point x="485" y="0"/>
    </contour>
  </outline>
</glyph>
<glyph name="U" format="1">
  <advance width="765"/>
  <unicode hex="0055"/>
  <outline>
    <contour>
      <point x="546.244" y="701.019" type="line"/>
      <point x="546.244" y="701.019"/>
      <point x="542" y="707.248"/>
      <point x="542" y="716" type="curve" smooth="yes"/>
      <point x="542" y="724"/>
      <point x="546" y="730"/>
      <point x="546" y="730" type="curve"/>
      <point x="731" y="730" type="line"/>
      <point x="731" y="730"/>
      <point x="734" y="724.752"/>
      <point x="734" y="716" type="curve" smooth="yes"/>
      <point x="734" y="708"/>
      <point x="731" y="701"/>
      <point x="731" y="701" type="curve"/>
      <point x="723.832" y="700.887" type="line" smooth="yes"/>
      <point x="704.922" y="700.588"/>
      <point x="678.278" y="684.535"/>
      <point x="678.219" y="666.168" type="curve" smooth="yes"/>
      <point x="678.195" y="658.831"/>
      <point x="678.186" y="645.747"/>
      <point x="678.186" y="645.747" type="curve"/>
      <point x="678.186" y="645.747"/>
      <point x="678.932" y="518.929"/>
      <point x="678.932" y="456.461" type="curve" smooth="yes"/>
      <point x="678.932" y="374.996"/>
      <point x="678.562" y="312.678"/>
      <point x="677.851" y="278.515" type="curve" smooth="yes"/>
      <point x="672.902" y="40.9238"/>
      <point x="498.086" y="-10.665"/>
      <point x="385.688" y="-10.665" type="curve" smooth="yes"/>
      <point x="271.335" y="-10.665"/>
      <point x="86.4824" y="41.8203"/>
      <point x="85.7393" y="291.442" type="curve" smooth="yes"/>
      <point x="84.6006" y="663.946" type="line" smooth="yes"/>
      <point x="84.6006" y="684.73"/>
      <point x="61" y="699"/>
      <point x="38.7666" y="700.534" type="curve" smooth="yes"/>
      <point x="32" y="701" type="line"/>
      <point x="32" y="701"/>
      <point x="27.3916" y="707.553"/>
      <point x="27.3916" y="716.305" type="curve" smooth="yes"/>
      <point x="27.3916" y="724.305"/>
      <point x="32" y="730"/>
      <point x="32" y="730" type="curve"/>
      <point x="252.92" y="730.005" type="line"/>
      <point x="252.92" y="730.005"/>
      <point x="256.392" y="725.057"/>
      <point x="256.392" y="716.305" type="curve" smooth="yes"/>
      <point x="256.392" y="708.305"/>
      <point x="253" y="701"/>
      <point x="253" y="701" type="curve"/>
      <point x="246.013" y="700.717" type="line" smooth="yes"/>
      <point x="221" y="700"/>
      <point x="201.075" y="685.649"/>
      <point x="200.717" y="664.113" type="curve" smooth="yes"/>
      <point x="199.47" y="589.143"/>
      <point x="198.065" y="324.372"/>
      <point x="198.065" y="318.538" type="curve" smooth="yes"/>
      <point x="198.065" y="117.192"/>
      <point x="261.248" y="36.002"/>
      <point x="388.458" y="36.002" type="curve" smooth="yes"/>
      <point x="503.227" y="36.002"/>
      <point x="598.919" y="119.044"/>
      <point x="598.919" y="304.53" type="curve" smooth="yes"/>
      <point x="598.919" y="334.884"/>
      <point x="598.604" y="636.014"/>
      <point x="598.604" y="666.043" type="curve" smooth="yes"/>
      <point x="598.604" y="683.49"/>
      <point x="576.021" y="700.631"/>
      <point x="553.151" y="700.929" type="curve" smooth="yes"/>
    </contour>
  </outline>
</glyph>
<glyph name="V" format="1">
  <advance width="709"/>
  <unicode hex="0056"/>
  <outline>
    <contour>
      <point x="750" y="701" type="curve"/>
      <point x="742" y="701" type="line" smooth="yes"/>
      <point x="713" y="701"/>
      <point x="708.611" y="685.818"/>
      <point x="694.31" y="658.628" type="curve"/>
      <point x="423.109" y="24.9521" type="line"/>
      <point x="417.923" y="13.1201"/>
      <point x="414.835" y="6.26953"/>
      <point x="414.824" y="6.24512" type="curve" smooth="yes"/>
      <point x="414.739" y="6.05469" type="line"/>
      <point x="414.644" y="5.86914" type="line" smooth="yes"/>
      <point x="413.178" y="3.02539"/>
      <point x="408.18" y="-8"/>
      <point x="396.938" y="-8" type="curve" smooth="yes"/>
      <point x="387.444" y="-8"/>
      <point x="380.721" y="-0.759766"/>
      <point x="377.908" y="6.51465" type="curve" smooth="yes"/>
      <point x="283.951" y="228.435"/>
      <point x="191.316" y="439.225"/>
      <point x="100" y="665.552" type="curve" smooth="yes"/>
      <point x="90.252" y="689.712"/>
      <point x="83" y="701"/>
      <point x="57" y="701" type="curve" smooth="yes"/>
      <point x="50" y="701" type="line"/>
      <point x="50" y="701"/>
      <point x="45.3916" y="707.553"/>
      <point x="45.3916" y="716.305" type="curve" smooth="yes"/>
      <point x="45.3916" y="724.305"/>
      <point x="50" y="730"/>
      <point x="50" y="730" type="curve"/>
      <point x="271.5" y="730" type="line"/>
      <point x="271.5" y="730"/>
      <point x="274.392" y="725.057"/>
      <point x="274.392" y="716.305" type="curve" smooth="yes"/>
      <point x="274.392" y="708.305"/>
      <point x="271" y="701"/>
      <point x="271" y="701" type="curve"/>
      <point x="264.281" y="701" type="line" smooth="yes"/>
      <point x="242" y="701"/>
      <point x="219.229" y="683.776"/>
      <point x="219.229" y="669.516" type="curve" smooth="yes"/>
      <point x="219.229" y="665.904"/>
      <point x="219.849" y="659.178"/>
      <point x="222.659" y="652.182" type="curve"/>
      <point x="415.529" y="193.462" type="line"/>
      <point x="615.531" y="645.711" type="line"/>
      <point x="621.449" y="659.484"/>
      <point x="623.592" y="663.052"/>
      <point x="623.592" y="669.165" type="curve" smooth="yes"/>
      <point x="623.592" y="685.606"/>
      <point x="601" y="701"/>
      <point x="579.906" y="701" type="curve" smooth="yes"/>
      <point x="573" y="701" type="line"/>
      <point x="573" y="701"/>
      <point x="568.392" y="707.553"/>
      <point x="568.392" y="716.305" type="curve" smooth="yes"/>
      <point x="568.392" y="724.305"/>
      <point x="573" y="730"/>
      <point x="573" y="730" type="curve"/>
      <point x="749" y="730" type="line"/>
      <point x="749" y="730"/>
      <point x="753.392" y="725.057"/>
      <point x="753.392" y="716.305" type="curve" smooth="yes"/>
      <point x="753.392" y="708.305"/>
      <point x="750" y="701"/>
    </contour>
  </outline>
</glyph>
<glyph name="W" format="1">
  <advance width="1071"/>
  <unicode hex="0057"/>
  <outline>
    <contour>
      <point x="1036" y="701" type="curve"/>
      <point x="1029.09" y="700.486" type="line" smooth="yes"/>
      <point x="998.229" y="698.481"/>
      <point x="991.429" y="683.635"/>
      <point x="979" y="656" type="curve" smooth="yes"/>
      <point x="979" y="656"/>
      <point x="758.282" y="79.9092"/>
      <point x="735.326" y="25.2705" type="curve"/>
      <point x="730.583" y="14.5498"/>
      <point x="727.118" y="7.03906"/>
      <point x="727.082" y="6.95996" type="curve" smooth="yes"/>
      <point x="723.247" y="-1.48633"/>
      <point x="715.216" y="-7.8291"/>
      <point x="706.973" y="-7.8291" type="curve" smooth="yes"/>
      <point x="698.474" y="-7.8291"/>
      <point x="691.588" y="-0.285156"/>
      <point x="688.56" y="6.73438" type="curve" smooth="yes"/>
      <point x="685.62" y="13.5459"/>
      <point x="630.369" y="164.615"/>
      <point x="561.976" y="331.579" type="curve"/>
      <point x="428.332" y="25.5645" type="line" smooth="yes"/>
      <point x="423.65" y="14.7744"/>
      <point x="420.132" y="7"/>
      <point x="420.114" y="6.96094" type="curve" smooth="yes"/>
      <point x="416.28" y="-1.48633"/>
      <point x="408.249" y="-7.8291"/>
      <point x="400.005" y="-7.8291" type="curve" smooth="yes"/>
      <point x="391.654" y="-7.8291"/>
      <point x="384.51" y="-0.483398"/>
      <point x="381.53" y="6.88086" type="curve" smooth="yes"/>
      <point x="376.507" y="19.0654"/>
      <point x="188.992" y="475.73"/>
      <point x="118.155" y="646.7" type="curve" smooth="yes"/>
      <point x="111.258" y="662.945" type="line" smooth="yes"/>
      <point x="100.129" y="689.717"/>
      <point x="95" y="698"/>
      <point x="66.9062" y="700.486" type="curve" smooth="yes"/>
      <point x="60" y="701" type="line"/>
      <point x="60" y="701"/>
      <point x="55.3916" y="707.553"/>
      <point x="55.3916" y="716.305" type="curve" smooth="yes"/>
      <point x="55.3916" y="724.305"/>
      <point x="60" y="730"/>
      <point x="60" y="730" type="curve"/>
      <point x="280.98" y="730" type="line"/>
      <point x="280.98" y="730"/>
      <point x="284.392" y="725.057"/>
      <point x="284.392" y="716.305" type="curve" smooth="yes"/>
      <point x="284.392" y="708.305"/>
      <point x="281" y="701"/>
      <point x="281" y="701" type="curve"/>
      <point x="274.947" y="700.918" type="line" smooth="yes"/>
      <point x="252.992" y="700.62"/>
      <point x="228.865" y="686.48"/>
      <point x="228.865" y="665" type="curve" smooth="yes"/>
      <point x="228.865" y="660.38"/>
      <point x="230.082" y="658.721"/>
      <point x="232.344" y="651.509" type="curve"/>
      <point x="424.078" y="170.792" type="line"/>
      <point x="521.101" y="394.893" type="line"/>
      <point x="407" y="665" type="line" smooth="yes"/>
      <point x="396.807" y="688.918"/>
      <point x="380.986" y="700.73"/>
      <point x="363.604" y="700.918" type="curve" smooth="yes"/>
      <point x="356" y="701" type="line"/>
      <point x="356" y="701"/>
      <point x="352.392" y="707.553"/>
      <point x="352.392" y="716.305" type="curve" smooth="yes"/>
      <point x="352.392" y="724.305"/>
      <point x="356" y="730"/>
      <point x="356" y="730" type="curve"/>
      <point x="550" y="730" type="line"/>
      <point x="550" y="730"/>
      <point x="553.392" y="725.057"/>
      <point x="553.392" y="716.305" type="curve" smooth="yes"/>
      <point x="553.392" y="708.305"/>
      <point x="550" y="701"/>
      <point x="550" y="701" type="curve"/>
      <point x="542.804" y="701.053" type="line" smooth="yes"/>
      <point x="522" y="701"/>
      <point x="500.603" y="686.187"/>
      <point x="500.603" y="668" type="curve" smooth="yes"/>
      <point x="500.603" y="662.761"/>
      <point x="501.969" y="658.475"/>
      <point x="505.576" y="649.312" type="curve"/>
      <point x="572.789" y="488.91" type="line"/>
      <point x="600.378" y="543.239"/>
      <point x="622.045" y="591.56"/>
      <point x="645.297" y="645.113" type="curve"/>
      <point x="651.518" y="658.96"/>
      <point x="652.875" y="662.304"/>
      <point x="652.875" y="669" type="curve" smooth="yes"/>
      <point x="652.875" y="687.28"/>
      <point x="631.008" y="700.71"/>
      <point x="612.349" y="700.918" type="curve" smooth="yes"/>
      <point x="605" y="701" type="line"/>
      <point x="605" y="701"/>
      <point x="600.392" y="707.553"/>
      <point x="600.392" y="716.305" type="curve" smooth="yes"/>
      <point x="600.392" y="724.305"/>
      <point x="605" y="730"/>
      <point x="605" y="730" type="curve"/>
      <point x="769" y="730" type="line"/>
      <point x="769" y="730"/>
      <point x="773.392" y="725.057"/>
      <point x="773.392" y="716.305" type="curve" smooth="yes"/>
      <point x="773.392" y="708.305"/>
      <point x="770" y="701"/>
      <point x="770" y="701" type="curve"/>
      <point x="762.395" y="700.918" type="line" smooth="yes"/>
      <point x="733.993" y="700.612"/>
      <point x="728.71" y="687.356"/>
      <point x="716.767" y="662.131" type="curve" smooth="yes"/>
      <point x="608.169" y="431.826" type="line"/>
      <point x="711.754" y="173.828" type="line"/>
      <point x="780.862" y="343.488"/>
      <point x="834.1" y="474.438"/>
      <point x="905.398" y="644.554" type="curve"/>
      <point x="909" y="652"/>
      <point x="913" y="661.157"/>
      <point x="913" y="668" type="curve" smooth="yes"/>
      <point x="913" y="686.315"/>
      <point x="889.985" y="700.686"/>
      <point x="870.058" y="700.918" type="curve" smooth="yes"/>
      <point x="863" y="701" type="line"/>
      <point x="863" y="701"/>
      <point x="859.392" y="707.553"/>
      <point x="859.392" y="716.305" type="curve" smooth="yes"/>
      <point x="859.392" y="724.305"/>
      <point x="863" y="730"/>
      <point x="863" y="730" type="curve"/>
      <point x="1036" y="730" type="line"/>
      <point x="1036" y="730"/>
      <point x="1039.39" y="724.057"/>
      <point x="1039.39" y="715.305" type="curve" smooth="yes"/>
      <point x="1039.39" y="707.305"/>
      <point x="1036" y="701"/>
    </contour>
  </outline>
</glyph>
<glyph name="X" format="1">
  <advance width="789"/>
  <unicode hex="0058"/>
  <outline>
    <contour>
      <point x="725" y="0" type="curve"/>
      <point x="491" y="0" type="line"/>
      <point x="491" y="0"/>
      <point x="486.392" y="6.55273"/>
      <point x="486.392" y="15.3047" type="curve" smooth="yes"/>
      <point x="486.392" y="23.3047"/>
      <point x="491" y="29"/>
      <point x="491" y="29" type="curve"/>
      <point x="497.221" y="28.9473" type="line" smooth="yes"/>
      <point x="505.127" y="29.0518"/>
      <point x="510.692" y="30.0869"/>
      <point x="517.773" y="32.2422" type="curve" smooth="yes"/>
      <point x="528.722" y="35.5742"/>
      <point x="538.744" y="43.1279"/>
      <point x="538.744" y="52" type="curve" smooth="yes"/>
      <point x="538.744" y="59.8818"/>
      <point x="528.29" y="75.4424"/>
      <point x="519.371" y="89.4941" type="curve"/>
      <point x="359.187" y="330.347" type="line"/>
      <point x="295.029" y="245.838"/>
      <point x="250.353" y="170.528"/>
      <point x="188.344" y="87.2842" type="curve"/>
      <point x="173.067" y="66.7178"/>
      <point x="168.522" y="58.4844"/>
      <point x="168.522" y="53" type="curve" smooth="yes"/>
      <point x="168.522" y="47.7285"/>
      <point x="172.875" y="37.2705"/>
      <point x="183.728" y="33.2393" type="curve" smooth="yes"/>
      <point x="190.121" y="30.8643"/>
      <point x="197.777" y="29.0605"/>
      <point x="206.29" y="28.9473" type="curve" smooth="yes"/>
      <point x="212.98" y="29" type="line"/>
      <point x="212.98" y="29"/>
      <point x="216.392" y="24.0566"/>
      <point x="216.392" y="15.3047" type="curve" smooth="yes"/>
      <point x="216.392" y="7.30469"/>
      <point x="213" y="0"/>
      <point x="213" y="0" type="curve"/>
      <point x="36" y="0" type="line"/>
      <point x="36" y="0"/>
      <point x="31.3916" y="6.55273"/>
      <point x="31.3916" y="15.3047" type="curve" smooth="yes"/>
      <point x="31.3916" y="23.3047"/>
      <point x="36" y="29"/>
      <point x="36" y="29" type="curve"/>
      <point x="42.9082" y="29.3838" type="line" smooth="yes"/>
      <point x="51.0537" y="29.4893"/>
      <point x="59.1953" y="30.7568"/>
      <point x="66.5615" y="33.6201" type="curve" smooth="yes"/>
      <point x="78.4043" y="38.2236"/>
      <point x="89.2207" y="55.7305"/>
      <point x="101.002" y="71.7812" type="curve" smooth="yes"/>
      <point x="325.535" y="377.979" type="line"/>
      <point x="232.354" y="507.497"/>
      <point x="167.021" y="615.157"/>
      <point x="124.959" y="671.244" type="curve" smooth="yes"/>
      <point x="116.552" y="682.453"/>
      <point x="110.394" y="693.495"/>
      <point x="102.231" y="697.228" type="curve" smooth="yes"/>
      <point x="95.082" y="700.497"/>
      <point x="84.748" y="700.368"/>
      <point x="76.6562" y="700.473" type="curve" smooth="yes"/>
      <point x="70" y="701" type="line"/>
      <point x="70" y="701"/>
      <point x="65.3916" y="707.553"/>
      <point x="65.3916" y="716.305" type="curve" smooth="yes"/>
      <point x="65.3916" y="724.305"/>
      <point x="70" y="730"/>
      <point x="70" y="730" type="curve"/>
      <point x="304.98" y="730" type="line"/>
      <point x="304.98" y="730"/>
      <point x="308.392" y="725.057"/>
      <point x="308.392" y="716.305" type="curve" smooth="yes"/>
      <point x="308.392" y="708.305"/>
      <point x="305" y="701"/>
      <point x="305" y="701" type="curve"/>
      <point x="298.339" y="700.907" type="line" smooth="yes"/>
      <point x="290.421" y="700.801"/>
      <point x="280.613" y="700.181"/>
      <point x="273.927" y="697.613" type="curve" smooth="yes"/>
      <point x="262.228" y="693.121"/>
      <point x="256.518" y="679.78"/>
      <point x="256.518" y="673" type="curve" smooth="yes"/>
      <point x="256.518" y="667.786"/>
      <point x="259.166" y="658.74"/>
      <point x="268.387" y="645.025" type="curve" smooth="yes"/>
      <point x="391.69" y="459.554" type="line"/>
      <point x="542.421" y="651.278" type="line"/>
      <point x="553.858" y="666.904"/>
      <point x="561.754" y="676.277"/>
      <point x="561.754" y="683.168" type="curve" smooth="yes"/>
      <point x="561.754" y="694.969"/>
      <point x="548" y="700"/>
      <point x="527.952" y="700.831" type="curve" smooth="yes"/>
      <point x="521" y="701" type="line"/>
      <point x="521" y="701"/>
      <point x="516.392" y="707.553"/>
      <point x="516.392" y="716.305" type="curve" smooth="yes"/>
      <point x="516.392" y="724.305"/>
      <point x="521" y="730"/>
      <point x="521" y="730" type="curve"/>
      <point x="696.98" y="730" type="line"/>
      <point x="696.98" y="730"/>
      <point x="700.392" y="725.057"/>
      <point x="700.392" y="716.305" type="curve" smooth="yes"/>
      <point x="700.392" y="708.305"/>
      <point x="697" y="701"/>
      <point x="697" y="701" type="curve"/>
      <point x="689.337" y="701.397" type="line" smooth="yes"/>
      <point x="681.189" y="701.291"/>
      <point x="672.047" y="700.027"/>
      <point x="664.685" y="697.163" type="curve" smooth="yes"/>
      <point x="652.851" y="692.56"/>
      <point x="640.09" y="674.011"/>
      <point x="628.213" y="657.964" type="curve" smooth="yes"/>
      <point x="438.837" y="405.667" type="line"/>
      <point x="449.923" y="390.367" type="line"/>
      <point x="546.953" y="254.181"/>
      <point x="623.479" y="120.63"/>
      <point x="667.741" y="61.6104" type="curve" smooth="yes"/>
      <point x="676.146" y="50.4033"/>
      <point x="683.305" y="37.3662"/>
      <point x="691.47" y="34.6299" type="curve" smooth="yes"/>
      <point x="698.599" y="32.2402"/>
      <point x="710.817" y="29.4883"/>
      <point x="718.9" y="29.3838" type="curve" smooth="yes"/>
      <point x="724.98" y="29" type="line"/>
      <point x="724.98" y="29"/>
      <point x="728.392" y="24.0566"/>
      <point x="728.392" y="15.3047" type="curve" smooth="yes"/>
      <point x="728.392" y="7.30469"/>
      <point x="725" y="0"/>
    </contour>
  </outline>
</glyph>
<glyph name="Y" format="1">
  <advance width="712"/>
  <unicode hex="0059"/>
  <outline>
    <contour>
      <point x="467.98" y="29" type="line"/>
      <point x="467.98" y="29"/>
      <point x="471.392" y="24.0566"/>
      <point x="471.392" y="15.3047" type="curve" smooth="yes"/>
      <point x="471.392" y="7.30469"/>
      <point x="468" y="0"/>
      <point x="468" y="0" type="curve"/>
      <point x="247" y="0" type="line"/>
      <point x="247" y="0"/>
      <point x="242.392" y="6.55273"/>
      <point x="242.392" y="15.3047" type="curve" smooth="yes"/>
      <point x="242.392" y="23.3047"/>
      <point x="247" y="29"/>
      <point x="247" y="29" type="curve"/>
      <point x="253.964" y="29.3828" type="line" smooth="yes"/>
      <point x="278" y="31"/>
      <point x="298.71" y="46.1992"/>
      <point x="298.71" y="64.9951" type="curve" smooth="yes"/>
      <point x="299.968" y="135.229"/>
      <point x="300.812" y="191.127"/>
      <point x="300.812" y="259.031" type="curve" smooth="yes"/>
      <point x="300.812" y="300.252"/>
      <point x="300.961" y="343.72"/>
      <point x="301.084" y="382.946" type="curve"/>
      <point x="215.188" y="507.12"/>
      <point x="143.474" y="617.558"/>
      <point x="103.213" y="671.241" type="curve" smooth="yes"/>
      <point x="89.8594" y="689.045"/>
      <point x="71.7269" y="699.259"/>
      <point x="55.9102" y="700.471" type="curve" smooth="yes"/>
      <point x="49" y="701" type="line"/>
      <point x="49" y="701"/>
      <point x="44.3916" y="707.553"/>
      <point x="44.3916" y="716.305" type="curve" smooth="yes"/>
      <point x="44.3916" y="724.305"/>
      <point x="49" y="730"/>
      <point x="49" y="730" type="curve"/>
      <point x="277.98" y="730" type="line"/>
      <point x="277.98" y="730"/>
      <point x="281.392" y="725.057"/>
      <point x="281.392" y="716.305" type="curve" smooth="yes"/>
      <point x="281.392" y="708.305"/>
      <point x="278" y="701"/>
      <point x="278" y="701" type="curve"/>
      <point x="271.593" y="700.907" type="line" smooth="yes"/>
      <point x="255.99" y="700.681"/>
      <point x="230.822" y="687.22"/>
      <point x="230.822" y="674.558" type="curve" smooth="yes"/>
      <point x="230.822" y="669.491"/>
      <point x="232.636" y="662.503"/>
      <point x="241.651" y="649.009" type="curve" smooth="yes"/>
      <point x="384.44" y="442.902" type="line"/>
      <point x="539.675" y="643.278" type="line" smooth="yes"/>
      <point x="553.685" y="662.419"/>
      <point x="557.837" y="671.828"/>
      <point x="557.837" y="678.009" type="curve" smooth="yes"/>
      <point x="557.837" y="687.953"/>
      <point x="535.012" y="700.507"/>
      <point x="521.206" y="700.831" type="curve" smooth="yes"/>
      <point x="514" y="701" type="line"/>
      <point x="514" y="701"/>
      <point x="509.392" y="707.553"/>
      <point x="509.392" y="716.305" type="curve" smooth="yes"/>
      <point x="509.392" y="724.305"/>
      <point x="514" y="730"/>
      <point x="514" y="730" type="curve"/>
      <point x="672.98" y="730" type="line"/>
      <point x="672.98" y="730"/>
      <point x="676.392" y="725.057"/>
      <point x="676.392" y="716.305" type="curve" smooth="yes"/>
      <point x="676.392" y="708.305"/>
      <point x="673" y="701"/>
      <point x="673" y="701" type="curve"/>
      <point x="665.591" y="701.394" type="line" smooth="yes"/>
      <point x="642.137" y="701.089"/>
      <point x="625.052" y="682.292"/>
      <point x="617.707" y="671.883" type="curve"/>
      <point x="412.614" y="393.006" type="line"/>
      <point x="413.398" y="346.582"/>
      <point x="413.646" y="303.552"/>
      <point x="413.646" y="258.05" type="curve" smooth="yes"/>
      <point x="413.646" y="190.79"/>
      <point x="414.324" y="133.291"/>
      <point x="415.627" y="65.5205" type="curve" smooth="yes"/>
      <point x="415.627" y="45.1797"/>
      <point x="428" y="30"/>
      <point x="452.692" y="29.3828" type="curve" smooth="yes"/>
    </contour>
  </outline>
</glyph>
<glyph name="Z" format="1">
  <advance width="680"/>
  <unicode hex="005A"/>
  <outline>
    <contour>
      <point x="613.938" y="696.516" type="curve" smooth="yes"/>
      <point x="613.938" y="687.562"/>
      <point x="611.083" y="671.215"/>
      <point x="604.426" y="661.973" type="curve" smooth="yes"/>
      <point x="170.229" y="52.2832" type="line"/>
      <point x="205.876" y="47.9912"/>
      <point x="246.751" y="46"/>
      <point x="288.228" y="46" type="curve" smooth="yes"/>
      <point x="333.75" y="46"/>
      <point x="384.463" y="46.3848"/>
      <point x="436.223" y="53.1367" type="curve" smooth="yes"/>
      <point x="522.283" y="64.3623"/>
      <point x="550" y="146"/>
      <point x="561.059" y="176.721" type="curve"/>
      <point x="594.243" y="178.443" type="line"/>
      <point x="543.805" y="0" type="line"/>
      <point x="76.8877" y="0" type="line" smooth="yes"/>
      <point x="69.1328" y="0"/>
      <point x="44.0146" y="8.12598"/>
      <point x="44.0146" y="29.5059" type="curve" smooth="yes"/>
      <point x="44.0146" y="37.2178"/>
      <point x="47.1045" y="50.3262"/>
      <point x="51.0889" y="55.9932" type="curve"/>
      <point x="503.236" y="683.662" type="line"/>
      <point x="474.481" y="684.897"/>
      <point x="412.208" y="687.333"/>
      <point x="366.383" y="687.333" type="curve"/>
      <point x="304.875" y="687.021"/>
      <point x="277.333" y="685.871"/>
      <point x="235.442" y="677.291" type="curve" smooth="yes"/>
      <point x="167.546" y="663.217"/>
      <point x="138.104" y="631.044"/>
      <point x="124.71" y="572.752" type="curve" smooth="yes"/>
      <point x="123.539" y="567.654" type="line"/>
      <point x="93.0449" y="565.774" type="line"/>
      <point x="126.092" y="725.021" type="line"/>
      <point x="126.14" y="725.194" type="line" smooth="yes"/>
      <point x="128.496" y="733.734"/>
      <point x="137.281" y="734.544"/>
      <point x="142" y="734.544" type="curve" smooth="yes"/>
      <point x="153.171" y="734.544"/>
      <point x="167.937" y="730"/>
      <point x="172.875" y="730" type="curve" smooth="yes"/>
      <point x="356.561" y="730.333" type="line" smooth="yes"/>
      <point x="606.742" y="730.333" type="line"/>
      <point x="608.443" y="725.786" type="line" smooth="yes"/>
      <point x="608.556" y="725.492"/>
      <point x="613.938" y="710.434"/>
    </contour>
  </outline>
</glyph>
<glyph name="bracketleft" format="1">
  <advance width="311"/>
  <unicode hex="005B"/>
  <outline>
    <contour>
      <point x="155" y="735" type="line"/>
      <point x="155" y="-74" type="line"/>
      <point x="258" y="-74" type="line" smooth="yes"/>
      <point x="271.694" y="-74"/>
      <point x="273.629" y="-91.3477"/>
      <point x="273.629" y="-100.284" type="curve" smooth="yes"/>
      <point x="273.629" y="-109.485"/>
      <point x="271.779" y="-128"/>
      <point x="258" y="-128" type="curve" smooth="yes"/>
      <point x="93" y="-128" type="line" smooth="yes"/>
      <point x="76.6279" y="-128"/>
      <point x="67" y="-117.958"/>
      <point x="67" y="-101" type="curve" smooth="yes"/>
      <point x="67" y="761" type="line" smooth="yes"/>
      <point x="67" y="778.853"/>
      <point x="78.6328" y="789"/>
      <point x="97" y="789" type="curve" smooth="yes"/>
      <point x="258" y="789" type="line" smooth="yes"/>
      <point x="271.694" y="789"/>
      <point x="273.629" y="771.652"/>
      <point x="273.629" y="762.716" type="curve" smooth="yes"/>
      <point x="273.629" y="753.515"/>
      <point x="271.779" y="735"/>
      <point x="258" y="735" type="curve" smooth="yes"/>
    </contour>
  </outline>
</glyph>
<glyph name="bracketright" format="1">
  <advance width="311"/>
  <unicode hex="005D"/>
  <outline>
    <contour>
      <point x="155" y="735" type="line"/>
      <point x="52" y="735" type="line" smooth="yes"/>
      <point x="38.2207" y="735"/>
      <point x="36.3711" y="752.515"/>
      <point x="36.3711" y="761.716" type="curve" smooth="yes"/>
      <point x="36.3711" y="770.652"/>
      <point x="38.3057" y="789"/>
      <point x="52" y="789" type="curve" smooth="yes"/>
      <point x="213" y="789" type="line" smooth="yes"/>
      <point x="231.367" y="789"/>
      <point x="243" y="778.853"/>
      <point x="243" y="761" type="curve" smooth="yes"/>
      <point x="243" y="-101" type="line" smooth="yes"/>
      <point x="243" y="-117.958"/>
      <point x="233.372" y="-128"/>
      <point x="217" y="-128" type="curve" smooth="yes"/>
      <point x="52" y="-128" type="line" smooth="yes"/>
      <point x="38.2207" y="-128"/>
      <point x="36.3711" y="-110.485"/>
      <point x="36.3711" y="-101.284" type="curve" smooth="yes"/>
      <point x="36.3711" y="-92.3477"/>
      <point x="38.3057" y="-74"/>
      <point x="52" y="-74" type="curve" smooth="yes"/>
      <point x="155" y="-74" type="line"/>
    </contour>
  </outline>
</glyph>
<glyph name="asciicircum" format="1">
  <advance width="507"/>
  <unicode hex="005E"/>
  <outline>
    <contour>
      <point x="441.388" y="584.475" type="line" smooth="yes"/>
      <point x="436.897" y="571.577"/>
      <point x="424.9" y="555.667"/>
      <point x="413.932" y="552.117" type="curve" smooth="yes"/>
      <point x="410.591" y="551.035" type="line"/>
      <point x="255" y="661.417" type="line"/>
      <point x="99.4225" y="551.044" type="line"/>
      <point x="96.0923" y="552.109" type="line" smooth="yes"/>
      <point x="83.5451" y="556.119"/>
      <point x="71.8008" y="572.99"/>
      <point x="68.4805" y="584.896" type="curve" smooth="yes"/>
      <point x="67.3828" y="588.835" type="line"/>
      <point x="255" y="775.453" type="line"/>
      <point x="442.831" y="588.621" type="line"/>
    </contour>
  </outline>
</glyph>
<glyph name="underscore" format="1">
  <advance width="429"/>
  <unicode hex="005F"/>
  <outline>
    <contour>
      <point x="69.75" y="-8" type="line" smooth="yes"/>
      <point x="55.1709" y="-8"/>
      <point x="53" y="12.9111"/>
      <point x="53" y="22" type="curve" smooth="yes"/>
      <point x="53" y="31.0889"/>
      <point x="55.1709" y="56"/>
      <point x="69.75" y="56" type="curve" smooth="yes"/>
      <point x="357.75" y="56" type="line" smooth="yes"/>
      <point x="371.729" y="56"/>
      <point x="373.74" y="31.709"/>
      <point x="373.74" y="23" type="curve" smooth="yes"/>
      <point x="373.74" y="14.3213"/>
      <point x="372.619" y="-8"/>
      <point x="357.75" y="-8" type="curve" smooth="yes"/>
    </contour>
  </outline>
</glyph>
<glyph name="a" format="1">
  <advance width="553"/>
  <unicode hex="0061"/>
  <outline>
    <contour>
      <point x="499.566" y="58.1719" type="curve"/>
      <point x="502.755" y="20.9062" type="line"/>
      <point x="472.378" y="7.66602"/>
      <point x="422.059" y="-6.6084"/>
      <point x="392.349" y="-6.6084" type="curve" smooth="yes"/>
      <point x="363.298" y="-6.6084"/>
      <point x="359.35" y="22.7539"/>
      <point x="358.925" y="32.5" type="curve"/>
      <point x="304.12" y="2.71191"/>
      <point x="269.846" y="-10"/>
      <point x="208.068" y="-10" type="curve" smooth="yes"/>
      <point x="127.28" y="-10"/>
      <point x="50.8691" y="10.5215"/>
      <point x="50.8691" y="110.493" type="curve" smooth="yes"/>
      <point x="50.8691" y="220.021"/>
      <point x="238.114" y="278.722"/>
      <point x="369.148" y="316.756" type="curve"/>
      <point x="368.717" y="340.688"/>
      <point x="368.116" y="376.521"/>
      <point x="364.376" y="389.979" type="curve" smooth="yes"/>
      <point x="348.089" y="444.876"/>
      <point x="320.211" y="470.978"/>
      <point x="265.134" y="470.978" type="curve" smooth="yes"/>
      <point x="201.4" y="470.978"/>
      <point x="198.83" y="379.976"/>
      <point x="127" y="379.976" type="curve" smooth="yes"/>
      <point x="107.567" y="379.976"/>
      <point x="82.7119" y="392.294"/>
      <point x="82.7119" y="415" type="curve" smooth="yes"/>
      <point x="82.7119" y="420.853"/>
      <point x="85.8828" y="430.391"/>
      <point x="89.1865" y="434.137" type="curve" smooth="yes"/>
      <point x="145.873" y="498.417"/>
      <point x="209.754" y="511.8"/>
      <point x="268.345" y="511.8" type="curve" smooth="yes"/>
      <point x="417.547" y="511.8"/>
      <point x="462.971" y="417.487"/>
      <point x="462.971" y="363.698" type="curve" smooth="yes"/>
      <point x="462.971" y="49.8203" type="line"/>
      <point x="474.458" y="52.084"/>
      <point x="488.713" y="55.0498"/>
    </contour>
    <contour>
      <point x="253.43" y="41.042" type="curve" smooth="yes"/>
      <point x="305.909" y="41.042"/>
      <point x="327.189" y="56.3662"/>
      <point x="359.028" y="81.292" type="curve"/>
      <point x="359.028" y="262.732" type="line"/>
      <point x="242.476" y="226.025"/>
      <point x="156.339" y="191.324"/>
      <point x="156.339" y="121" type="curve" smooth="yes"/>
      <point x="156.339" y="63.9248"/>
      <point x="190.458" y="41.042"/>
    </contour>
  </outline>
</glyph>
<glyph name="b" format="1">
  <advance width="579"/>
  <unicode hex="0062"/>
  <outline>
    <contour>
      <point x="191.049" y="721.269" type="curve" smooth="yes"/>
      <point x="191.014" y="478.947" type="line"/>
      <point x="224.855" y="499.85"/>
      <point x="241.894" y="512.002"/>
      <point x="291.047" y="512.002" type="curve" smooth="yes"/>
      <point x="429.334" y="512.002"/>
      <point x="537.173" y="430.873"/>
      <point x="537.173" y="244.945" type="curve" smooth="yes"/>
      <point x="537.173" y="57.8145"/>
      <point x="445.45" y="-10.1562"/>
      <point x="289.685" y="-10.1562" type="curve" smooth="yes"/>
      <point x="249.075" y="-10.1562"/>
      <point x="222.141" y="-2.52051"/>
      <point x="180.078" y="21.0859" type="curve"/>
      <point x="158.944" y="1.98047"/>
      <point x="114.238" y="-3.78906"/>
      <point x="58" y="-3.78906" type="curve" smooth="yes"/>
      <point x="51" y="-3.78906" type="line"/>
      <point x="51" y="25.0752" type="line"/>
      <point x="57.9072" y="25.165" type="line" smooth="yes"/>
      <point x="73.5947" y="25.3682"/>
      <point x="85.0244" y="38.8721"/>
      <point x="87.2266" y="50.2656" type="curve"/>
      <point x="87.2266" y="663.993" type="line" smooth="yes"/>
      <point x="87.2266" y="685.348"/>
      <point x="77.3926" y="695.34"/>
      <point x="60.4092" y="695.34" type="curve" smooth="yes"/>
      <point x="53.4092" y="695.34" type="line"/>
      <point x="53.4092" y="721.301" type="line"/>
      <point x="173.308" y="746.886" type="line" smooth="yes"/>
      <point x="175.012" y="747.34"/>
      <point x="176.621" y="747.506"/>
      <point x="178" y="747.506" type="curve" smooth="yes"/>
      <point x="190.768" y="747.506"/>
      <point x="191.012" y="731.086"/>
    </contour>
    <contour>
      <point x="191.008" y="436.318" type="curve"/>
      <point x="190.962" y="125.935" type="line"/>
      <point x="206.589" y="67.5938"/>
      <point x="236.684" y="30.9277"/>
      <point x="301.14" y="30.9277" type="curve" smooth="yes"/>
      <point x="389.453" y="30.9277"/>
      <point x="437.152" y="117.102"/>
      <point x="437.152" y="228.655" type="curve" smooth="yes"/>
      <point x="437.152" y="370.974"/>
      <point x="396.569" y="468.08"/>
      <point x="283.757" y="468.08" type="curve" smooth="yes"/>
      <point x="253.067" y="468.08"/>
      <point x="220.501" y="458.39"/>
    </contour>
  </outline>
</glyph>
<glyph name="c" format="1">
  <advance width="539"/>
  <unicode hex="0063"/>
  <outline>
    <contour>
      <point x="478.547" y="101.927" type="curve"/>
      <point x="499.798" y="76.5801" type="line"/>
      <point x="440.965" y="19.0664"/>
      <point x="399.288" y="-10"/>
      <point x="298.654" y="-10" type="curve" smooth="yes"/>
      <point x="171.304" y="-10"/>
      <point x="53.002" y="61.6201"/>
      <point x="53.002" y="265.711" type="curve" smooth="yes"/>
      <point x="53.002" y="359.693"/>
      <point x="80.8701" y="512.857"/>
      <point x="304.243" y="512.857" type="curve" smooth="yes"/>
      <point x="364.069" y="512.857"/>
      <point x="427.497" y="494.875"/>
      <point x="485.002" y="429.656" type="curve" smooth="yes"/>
      <point x="488.637" y="425.532"/>
      <point x="491.523" y="420.711"/>
      <point x="491.523" y="415" type="curve" smooth="yes"/>
      <point x="491.523" y="392.042"/>
      <point x="457.752" y="372.485"/>
      <point x="439" y="372.485" type="curve" smooth="yes"/>
      <point x="361.716" y="372.485"/>
      <point x="381.009" y="483.075"/>
      <point x="293.031" y="483.075" type="curve" smooth="yes"/>
      <point x="218.911" y="483.075"/>
      <point x="165.057" y="393.786"/>
      <point x="165.057" y="278.516" type="curve" smooth="yes"/>
      <point x="165.057" y="187.32"/>
      <point x="205.89" y="40"/>
      <point x="325" y="40" type="curve" smooth="yes"/>
      <point x="378.59" y="40"/>
      <point x="424.044" y="56.624"/>
    </contour>
  </outline>
</glyph>
<glyph name="d" format="1">
  <advance width="573"/>
  <unicode hex="0064"/>
  <outline>
    <contour>
      <point x="523.932" y="57.9854" type="curve"/>
      <point x="528.404" y="21.4717" type="line"/>
      <point x="498.944" y="8.19863"/>
      <point x="447.719" y="-7.39941"/>
      <point x="418.31" y="-7.39941" type="curve" smooth="yes"/>
      <point x="396.249" y="-7.39941"/>
      <point x="387.639" y="10.9307"/>
      <point x="384.729" y="24.4404" type="curve"/>
      <point x="350.119" y="2.39551"/>
      <point x="321.842" y="-10"/>
      <point x="270.903" y="-10" type="curve" smooth="yes"/>
      <point x="139.617" y="-10"/>
      <point x="37.001" y="64.3496"/>
      <point x="37.001" y="264.028" type="curve" smooth="yes"/>
      <point x="37.001" y="427.936"/>
      <point x="118.71" y="513.166"/>
      <point x="267.838" y="513.166" type="curve" smooth="yes"/>
      <point x="321.85" y="513.166"/>
      <point x="342.999" y="505.953"/>
      <point x="383.408" y="490" type="curve"/>
      <point x="383.408" y="664.149" type="line" smooth="yes"/>
      <point x="383.408" y="685.746"/>
      <point x="372.612" y="695.496"/>
      <point x="354.979" y="695.496" type="curve" smooth="yes"/>
      <point x="347.559" y="695.496" type="line"/>
      <point x="347.559" y="721.457" type="line"/>
      <point x="469.542" y="747.041" type="line" smooth="yes"/>
      <point x="470.979" y="747.426"/>
      <point x="472.453" y="747.668"/>
      <point x="474" y="747.668" type="curve" smooth="yes"/>
      <point x="477.242" y="747.668"/>
      <point x="480.897" y="746.262"/>
      <point x="483.209" y="743.402" type="curve" smooth="yes"/>
      <point x="487.47" y="738.135"/>
      <point x="487.254" y="731.63"/>
      <point x="487.285" y="723.425" type="curve" smooth="yes"/>
      <point x="487.189" y="67.2822" type="line"/>
      <point x="487.189" y="67.2822"/>
      <point x="487.468" y="60.7002"/>
      <point x="487.468" y="59.1064" type="curve" smooth="yes"/>
      <point x="487.468" y="49.6729" type="line"/>
      <point x="498.047" y="51.918"/>
      <point x="513.628" y="54.9238"/>
    </contour>
    <contour>
      <point x="383.408" y="69.1406" type="curve"/>
      <point x="383.408" y="388.743" type="line"/>
      <point x="369.793" y="449.66"/>
      <point x="337.599" y="482"/>
      <point x="268.897" y="482" type="curve" smooth="yes"/>
      <point x="187.217" y="482"/>
      <point x="137.023" y="385.882"/>
      <point x="137.023" y="274.884" type="curve" smooth="yes"/>
      <point x="137.023" y="132.408"/>
      <point x="178.677" y="33.8711"/>
      <point x="289.037" y="33.8711" type="curve" smooth="yes"/>
      <point x="320.591" y="33.8711"/>
      <point x="347.07" y="44.7539"/>
    </contour>
  </outline>
</glyph>
<glyph name="e" format="1">
  <advance width="546"/>
  <unicode hex="0065"/>
  <outline>
    <contour>
      <point x="501.562" y="301.553" type="curve"/>
      <point x="164.734" y="302.634" type="line"/>
      <point x="160.742" y="285.723"/>
      <point x="159.668" y="243.354"/>
      <point x="159.668" y="220.796" type="curve" smooth="yes"/>
      <point x="159.668" y="141.792"/>
      <point x="196.747" y="39.4512"/>
      <point x="317.585" y="39.4512" type="curve" smooth="yes"/>
      <point x="364.437" y="39.4512"/>
      <point x="426.596" y="56.7529"/>
      <point x="476.428" y="101.306" type="curve"/>
      <point x="495.692" y="75.9365" type="line"/>
      <point x="442.309" y="15.8301"/>
      <point x="390.025" y="-10.7041"/>
      <point x="305.417" y="-10.7041" type="curve" smooth="yes"/>
      <point x="163.187" y="-10.7041"/>
      <point x="50.9697" y="63.8994"/>
      <point x="50.9697" y="249.025" type="curve" smooth="yes"/>
      <point x="50.9697" y="430.751"/>
      <point x="146.016" y="511.682"/>
      <point x="298.468" y="511.682" type="curve" smooth="yes"/>
      <point x="419.501" y="511.682"/>
      <point x="502.478" y="415.132"/>
      <point x="502.478" y="318.472" type="curve" smooth="yes"/>
      <point x="502.478" y="311.512"/>
      <point x="502.017" y="308.262"/>
    </contour>
    <contour>
      <point x="292.681" y="479.908" type="curve" smooth="yes"/>
      <point x="214.544" y="479.908"/>
      <point x="172.935" y="407.554"/>
      <point x="166.829" y="364.622" type="curve"/>
      <point x="201.407" y="360.982"/>
      <point x="222.39" y="357.541"/>
      <point x="283.875" y="357.541" type="curve" smooth="yes"/>
      <point x="316.442" y="357.541"/>
      <point x="370.196" y="358.75"/>
      <point x="398.795" y="360.711" type="curve"/>
      <point x="394.148" y="419.439"/>
      <point x="352.89" y="479.908"/>
    </contour>
  </outline>
</glyph>
<glyph name="f" format="1">
  <advance width="496"/>
  <unicode hex="0066"/>
  <outline>
    <contour>
      <point x="334.246" y="766.188" type="curve" smooth="yes"/>
      <point x="377.683" y="766.188"/>
      <point x="430.945" y="754.113"/>
      <point x="472.902" y="706.52" type="curve" smooth="yes"/>
      <point x="476.373" y="702.583"/>
      <point x="478.676" y="692.003"/>
      <point x="478.676" y="687" type="curve" smooth="yes"/>
      <point x="478.676" y="666.469"/>
      <point x="448.479" y="655.073"/>
      <point x="433.04" y="655.073" type="curve" smooth="yes"/>
      <point x="369.068" y="655.073"/>
      <point x="387.37" y="731.104"/>
      <point x="315.694" y="731.104" type="curve" smooth="yes"/>
      <point x="251.602" y="731.104"/>
      <point x="205.217" y="676.162"/>
      <point x="205.217" y="585.434" type="curve"/>
      <point x="205.719" y="504.654" type="line"/>
      <point x="304.597" y="504.654" type="line" smooth="yes"/>
      <point x="327.313" y="504.654"/>
      <point x="341.929" y="499.588"/>
      <point x="341.929" y="485.53" type="curve" smooth="yes"/>
      <point x="341.929" y="478.766"/>
      <point x="336.129" y="457.914"/>
      <point x="333.444" y="452.57" type="curve"/>
      <point x="327.683" y="452.57" type="line" smooth="yes"/>
      <point x="321.415" y="452.57"/>
      <point x="258.076" y="455.996"/>
      <point x="211.303" y="456.386" type="curve"/>
      <point x="210.833" y="53.4805" type="line"/>
      <point x="213.222" y="41.7988"/>
      <point x="224.671" y="28.9629"/>
      <point x="240.096" y="28.7627" type="curve" smooth="yes"/>
      <point x="247.004" y="28.6738" type="line"/>
      <point x="247.004" y="0" type="line"/>
      <point x="70.8809" y="0" type="line"/>
      <point x="70.8809" y="28.668" type="line"/>
      <point x="77.7881" y="28.7568" type="line" smooth="yes"/>
      <point x="93.4336" y="28.957"/>
      <point x="104.913" y="42.4238"/>
      <point x="107.107" y="53.7568" type="curve"/>
      <point x="107.107" y="456.249" type="line"/>
      <point x="70.7881" y="455.396"/>
      <point x="67.0342" y="453.261"/>
      <point x="52" y="451.102" type="curve"/>
      <point x="60.3311" y="500.703" type="line"/>
      <point x="107.104" y="500.703" type="line"/>
      <point x="107.1" y="512.754"/>
      <point x="107.093" y="543.113"/>
      <point x="107.093" y="556" type="curve" smooth="yes"/>
      <point x="107.093" y="704.113"/>
      <point x="189.974" y="766.188"/>
    </contour>
  </outline>
</glyph>
<glyph name="g" format="1">
  <advance width="524"/>
  <unicode hex="0067"/>
  <outline>
    <contour>
      <point x="245.616" y="-206.951" type="curve" smooth="yes"/>
      <point x="343.702" y="-206.951"/>
      <point x="414.449" y="-152.544"/>
      <point x="414.449" y="-101.783" type="curve" smooth="yes"/>
      <point x="414.449" y="-50.6143"/>
      <point x="344.367" y="-35.0938"/>
      <point x="263.055" y="-26" type="curve"/>
      <point x="258.998" y="-25.8584"/>
      <point x="232.913" y="-24.335"/>
      <point x="229.458" y="-24.0918" type="curve"/>
      <point x="133.525" y="-55.7764"/>
      <point x="120.942" y="-82.1953"/>
      <point x="120.942" y="-123.131" type="curve" smooth="yes"/>
      <point x="120.942" y="-178.02"/>
      <point x="179.716" y="-206.951"/>
    </contour>
    <contour>
      <point x="149.041" y="318.277" type="curve" smooth="yes"/>
      <point x="149.041" y="210.254"/>
      <point x="188.437" y="142.907"/>
      <point x="254.312" y="142.907" type="curve" smooth="yes"/>
      <point x="316.979" y="142.907"/>
      <point x="338.938" y="222.669"/>
      <point x="338.938" y="296" type="curve" smooth="yes"/>
      <point x="338.938" y="392.141"/>
      <point x="300.414" y="458.089"/>
      <point x="230.644" y="458.089" type="curve" smooth="yes"/>
      <point x="180.854" y="458.089"/>
      <point x="149.041" y="384.315"/>
    </contour>
    <contour>
      <point x="433.329" y="288.173" type="curve" smooth="yes"/>
      <point x="433.329" y="106.467"/>
      <point x="306.334" y="102.133"/>
      <point x="185.604" y="66.835" type="curve" smooth="yes"/>
      <point x="181.432" y="65.6152"/>
      <point x="174.943" y="60.5371"/>
      <point x="174.943" y="56.1104" type="curve" smooth="yes"/>
      <point x="174.943" y="49.6768"/>
      <point x="185.943" y="45.6914"/>
      <point x="190.628" y="44.9932" type="curve" smooth="yes"/>
      <point x="204" y="43"/>
      <point x="217.854" y="40.9268"/>
      <point x="228.181" y="39.9268" type="curve"/>
      <point x="318.354" y="30.5283" type="line" smooth="yes"/>
      <point x="417.31" y="21.3359"/>
      <point x="490.154" y="13.8311"/>
      <point x="490.154" y="-72.9111" type="curve" smooth="yes"/>
      <point x="490.154" y="-186.104"/>
      <point x="360.876" y="-242.607"/>
      <point x="235.281" y="-242.607" type="curve" smooth="yes"/>
      <point x="129.597" y="-242.607"/>
      <point x="20.126" y="-224.129"/>
      <point x="20.126" y="-135.368" type="curve" smooth="yes"/>
      <point x="20.126" y="-59.624"/>
      <point x="102.889" y="-30.6729"/>
      <point x="172.306" y="-10.9766" type="curve"/>
      <point x="148.075" y="-8.60645"/>
      <point x="129.797" y="-5.91211"/>
      <point x="114.76" y="-2.86035" type="curve" smooth="yes"/>
      <point x="86.0176" y="2.81348"/>
      <point x="59.7812" y="15.3936"/>
      <point x="59.7812" y="41.1318" type="curve" smooth="yes"/>
      <point x="59.7812" y="79.8955"/>
      <point x="137.168" y="101.177"/>
      <point x="182.683" y="113.346" type="curve"/>
      <point x="109.355" y="128.987"/>
      <point x="50.7754" y="184.804"/>
      <point x="50.7754" y="312.19" type="curve" smooth="yes"/>
      <point x="50.7754" y="429.479"/>
      <point x="112.878" y="485.887"/>
      <point x="199.621" y="497.924" type="curve" smooth="yes"/>
      <point x="213.176" y="499.82"/>
      <point x="227.258" y="500.067"/>
      <point x="240.607" y="500.067" type="curve" smooth="yes"/>
      <point x="282.247" y="500.067"/>
      <point x="322.791" y="489.751"/>
      <point x="357.404" y="466.489" type="curve"/>
      <point x="388.927" y="485.613"/>
      <point x="415.327" y="495"/>
      <point x="454.151" y="495" type="curve" smooth="yes"/>
      <point x="467.814" y="495"/>
      <point x="478" y="480.526"/>
      <point x="478" y="467.691" type="curve" smooth="yes"/>
      <point x="478" y="436.504"/>
      <point x="445.521" y="417.588"/>
      <point x="413.205" y="417.588" type="curve" smooth="yes"/>
      <point x="410.495" y="417.588"/>
      <point x="404.329" y="417.885"/>
      <point x="403" y="418" type="curve"/>
      <point x="426" y="380"/>
      <point x="433.329" y="344.012"/>
    </contour>
  </outline>
</glyph>
<glyph name="h" format="1">
  <advance width="584"/>
  <unicode hex="0068"/>
  <outline>
    <contour>
      <point x="191.04" y="54.0869" type="line"/>
      <point x="193.244" y="41.7871"/>
      <point x="204.632" y="28.9014"/>
      <point x="220.435" y="28.6963" type="curve" smooth="yes"/>
      <point x="227.342" y="28.6084" type="line"/>
      <point x="227.342" y="0" type="line"/>
      <point x="51" y="0" type="line"/>
      <point x="51" y="28.8584" type="line"/>
      <point x="57.9072" y="28.9482" type="line" smooth="yes"/>
      <point x="73.8857" y="29.1523"/>
      <point x="85.2461" y="42.7148"/>
      <point x="87.3184" y="54.5586" type="curve"/>
      <point x="87.3184" y="662.213" type="line" smooth="yes"/>
      <point x="87.3184" y="683.565"/>
      <point x="77.4824" y="693.56"/>
      <point x="60.498" y="693.56" type="curve" smooth="yes"/>
      <point x="53.498" y="693.56" type="line"/>
      <point x="53.498" y="719.521" type="line"/>
      <point x="173.397" y="745.105" type="line" smooth="yes"/>
      <point x="174.999" y="745.532"/>
      <point x="176.554" y="745.729"/>
      <point x="178" y="745.729" type="curve" smooth="yes"/>
      <point x="190.749" y="745.729"/>
      <point x="191.101" y="727.454"/>
      <point x="191.139" y="717.488" type="curve" smooth="yes"/>
      <point x="191.104" y="478.479" type="line"/>
      <point x="229.669" y="502.579"/>
      <point x="245.791" y="511.935"/>
      <point x="306.164" y="511.935" type="curve" smooth="yes"/>
      <point x="393.801" y="511.935"/>
      <point x="506.926" y="458.677"/>
      <point x="506.926" y="348.729" type="curve" smooth="yes"/>
      <point x="506.858" y="53.3477" type="line"/>
      <point x="509.281" y="41.8037"/>
      <point x="520.748" y="28.9668"/>
      <point x="536.094" y="28.7705" type="curve" smooth="yes"/>
      <point x="543.001" y="28.6816" type="line"/>
      <point x="543.001" y="0" type="line"/>
      <point x="376.862" y="0" type="line"/>
      <point x="376.862" y="28.6084" type="line"/>
      <point x="383.77" y="28.6963" type="line" smooth="yes"/>
      <point x="399.533" y="28.9004"/>
      <point x="410.989" y="42.375"/>
      <point x="413.131" y="53.8926" type="curve"/>
      <point x="413.131" y="347.898" type="line" smooth="yes"/>
      <point x="413.131" y="413.997"/>
      <point x="353.488" y="467.364"/>
      <point x="286.289" y="467.364" type="curve" smooth="yes"/>
      <point x="247.399" y="467.364"/>
      <point x="235.073" y="459.375"/>
      <point x="191.097" y="432.14" type="curve"/>
    </contour>
  </outline>
</glyph>
<glyph name="i" format="1">
  <advance width="285"/>
  <unicode hex="0069"/>
  <outline>
    <contour>
      <point x="131.918" y="601.294" type="curve" smooth="yes"/>
      <point x="97.8291" y="601.294"/>
      <point x="70.1924" y="628.931"/>
      <point x="70.1924" y="663.02" type="curve" smooth="yes"/>
      <point x="70.1924" y="697.108"/>
      <point x="97.8281" y="724.746"/>
      <point x="131.918" y="724.746" type="curve" smooth="yes"/>
      <point x="166.007" y="724.746"/>
      <point x="193.644" y="697.108"/>
      <point x="193.644" y="663.02" type="curve" smooth="yes"/>
      <point x="193.644" y="628.931"/>
      <point x="166.007" y="601.294"/>
    </contour>
    <contour>
      <point x="196.933" y="53.4766" type="line"/>
      <point x="199.324" y="41.8066"/>
      <point x="210.776" y="28.9668"/>
      <point x="226.193" y="28.7695" type="curve" smooth="yes"/>
      <point x="233.101" y="28.6807" type="line"/>
      <point x="233.101" y="0" type="line"/>
      <point x="57" y="0" type="line"/>
      <point x="57" y="28.6797" type="line"/>
      <point x="63.9072" y="28.7686" type="line" smooth="yes"/>
      <point x="79.5615" y="28.9688"/>
      <point x="91.0342" y="42.4365"/>
      <point x="93.2285" y="53.7812" type="curve"/>
      <point x="93.2285" y="427.724" type="line" smooth="yes"/>
      <point x="93.2285" y="447.844"/>
      <point x="82.9854" y="456.613"/>
      <point x="66.4092" y="456.613" type="curve" smooth="yes"/>
      <point x="59.4092" y="456.613" type="line"/>
      <point x="59.4092" y="482.801" type="line"/>
      <point x="179.188" y="508.675" type="line" smooth="yes"/>
      <point x="180.912" y="509.162"/>
      <point x="182.56" y="509.353"/>
      <point x="184" y="509.353" type="curve" smooth="yes"/>
      <point x="196.768" y="509.353"/>
      <point x="196.989" y="495.244"/>
      <point x="197.027" y="485.733" type="curve" smooth="yes"/>
    </contour>
  </outline>
</glyph>
<glyph name="k" format="1">
  <advance width="561"/>
  <unicode hex="006B"/>
  <outline>
    <contour>
      <point x="191" y="722" type="curve" smooth="yes"/>
      <point x="191" y="359.862" type="line" smooth="yes"/>
      <point x="191.768" y="344.038"/>
      <point x="208.244" y="339"/>
      <point x="218" y="339" type="curve" smooth="yes"/>
      <point x="226.452" y="339"/>
      <point x="235.85" y="336.593"/>
      <point x="314.7" y="392.021" type="curve"/>
      <point x="371.341" y="432.258"/>
      <point x="375.62" y="451.011"/>
      <point x="375.62" y="461.697" type="curve" smooth="yes"/>
      <point x="375.62" y="472.392"/>
      <point x="367.021" y="477"/>
      <point x="357.151" y="477" type="curve" smooth="yes"/>
      <point x="351.534" y="477" type="line"/>
      <point x="351.534" y="506.515" type="line"/>
      <point x="502" y="506.515" type="line"/>
      <point x="502" y="477" type="line"/>
      <point x="495" y="477" type="line" smooth="yes"/>
      <point x="476.709" y="477"/>
      <point x="458.841" y="465.701"/>
      <point x="449.131" y="458.991" type="curve" smooth="yes"/>
      <point x="410.36" y="432.199"/>
      <point x="383.771" y="393.188"/>
      <point x="280.808" y="322.504" type="curve"/>
      <point x="286.003" y="309.545"/>
      <point x="307.494" y="286.864"/>
      <point x="374.089" y="208.611" type="curve"/>
      <point x="446.601" y="117.443"/>
      <point x="472.531" y="85.7178"/>
      <point x="486.6" y="66.3682" type="curve" smooth="yes"/>
      <point x="502.188" y="44.9287"/>
      <point x="504.114" y="29"/>
      <point x="527" y="29" type="curve" smooth="yes"/>
      <point x="534" y="29" type="line"/>
      <point x="534" y="0" type="line"/>
      <point x="380" y="0" type="line"/>
      <point x="380" y="29" type="line"/>
      <point x="387" y="29" type="line" smooth="yes"/>
      <point x="395.229" y="29"/>
      <point x="406" y="38.1348"/>
      <point x="406" y="49" type="curve" smooth="yes"/>
      <point x="406" y="78.0859"/>
      <point x="237.423" y="286"/>
      <point x="205" y="286" type="curve" smooth="yes"/>
      <point x="200.99" y="286"/>
      <point x="193.263" y="280.358"/>
      <point x="191" y="279.315" type="curve"/>
      <point x="191" y="53.418" type="line"/>
      <point x="194.051" y="42.3398"/>
      <point x="204.318" y="29"/>
      <point x="220" y="29" type="curve" smooth="yes"/>
      <point x="227" y="29" type="line"/>
      <point x="227" y="0" type="line"/>
      <point x="51" y="0" type="line"/>
      <point x="51" y="29" type="line"/>
      <point x="58" y="29" type="line" smooth="yes"/>
      <point x="74.7461" y="29"/>
      <point x="85.3164" y="43.1719"/>
      <point x="87" y="54.0674" type="curve"/>
      <point x="87" y="670" type="line" smooth="yes"/>
      <point x="87" y="694.494"/>
      <point x="78.3701" y="704"/>
      <point x="60" y="704" type="curve" smooth="yes"/>
      <point x="53" y="704" type="line"/>
      <point x="53" y="719.399" type="line"/>
      <point x="162.081" y="742.733" type="line"/>
      <point x="165.627" y="743.824"/>
      <point x="173.495" y="745.612"/>
      <point x="178" y="745.612" type="curve" smooth="yes"/>
      <point x="190.06" y="745.612"/>
      <point x="191" y="734.622"/>
    </contour>
  </outline>
</glyph>
<glyph name="l" format="1">
  <advance width="285"/>
  <unicode hex="006C"/>
  <outline>
    <contour>
      <point x="189.954" y="53.8564" type="line"/>
      <point x="192.342" y="42.0967"/>
      <point x="203.74" y="29.2158"/>
      <point x="219.216" y="29.0156" type="curve" smooth="yes"/>
      <point x="226.123" y="28.9258" type="line"/>
      <point x="226.123" y="0" type="line"/>
      <point x="50" y="0" type="line"/>
      <point x="50" y="28.8799" type="line"/>
      <point x="56.9072" y="28.9697" type="line" smooth="yes"/>
      <point x="72.6025" y="29.1699"/>
      <point x="84.0264" y="42.6797"/>
      <point x="86.2266" y="54.0762" type="curve"/>
      <point x="86.2266" y="685.57" type="line" smooth="yes"/>
      <point x="86.2266" y="706.928"/>
      <point x="76.3926" y="716.916"/>
      <point x="59.4092" y="716.916" type="curve" smooth="yes"/>
      <point x="52.4092" y="716.916" type="line"/>
      <point x="52.4092" y="742.877" type="line"/>
      <point x="172.308" y="768.461" type="line" smooth="yes"/>
      <point x="174.011" y="768.915"/>
      <point x="175.62" y="769.081"/>
      <point x="177" y="769.081" type="curve" smooth="yes"/>
      <point x="189.768" y="769.081"/>
      <point x="190.012" y="751.661"/>
      <point x="190.049" y="741.844" type="curve" smooth="yes"/>
    </contour>
  </outline>
</glyph>
<glyph name="m" format="1">
  <advance width="899"/>
  <unicode hex="006D"/>
  <outline>
    <contour>
      <point x="196.91" y="53.3652" type="line"/>
      <point x="199.305" y="41.7275"/>
      <point x="210.771" y="28.8984"/>
      <point x="226.17" y="28.7012" type="curve" smooth="yes"/>
      <point x="233.077" y="28.6123" type="line"/>
      <point x="233.077" y="0" type="line"/>
      <point x="57" y="0" type="line"/>
      <point x="57" y="28.6016" type="line"/>
      <point x="63.9072" y="28.6904" type="line" smooth="yes"/>
      <point x="79.541" y="28.8906"/>
      <point x="91.0322" y="42.3447"/>
      <point x="93.2275" y="53.6582" type="curve"/>
      <point x="93.2275" y="431.467" type="line" smooth="yes"/>
      <point x="93.2275" y="452.32"/>
      <point x="81.2158" y="461.892"/>
      <point x="64.4092" y="461.892" type="curve" smooth="yes"/>
      <point x="59.4092" y="461.892" type="line"/>
      <point x="59.4092" y="487.911" type="line"/>
      <point x="179.332" y="512.456" type="line" smooth="yes"/>
      <point x="181" y="513"/>
      <point x="183.414" y="513"/>
      <point x="184.381" y="513" type="curve" smooth="yes"/>
      <point x="197.231" y="513"/>
      <point x="196.968" y="498.932"/>
      <point x="197.002" y="489.821" type="curve" smooth="yes"/>
      <point x="197.002" y="482.669"/>
      <point x="196.999" y="473.956"/>
      <point x="196.997" y="467.792" type="curve"/>
      <point x="235.393" y="495.193"/>
      <point x="260.305" y="511.255"/>
      <point x="320.564" y="511.255" type="curve" smooth="yes"/>
      <point x="383.515" y="511.255"/>
      <point x="443.71" y="487.418"/>
      <point x="477.082" y="431.502" type="curve"/>
      <point x="518.541" y="492.947"/>
      <point x="583.271" y="508.255"/>
      <point x="651.413" y="508.255" type="curve" smooth="yes"/>
      <point x="739.147" y="508.255"/>
      <point x="829.208" y="455.988"/>
      <point x="829.208" y="346.091" type="curve" smooth="yes"/>
      <point x="829.141" y="53.4707" type="line"/>
      <point x="831.53" y="41.8086"/>
      <point x="842.984" y="28.9648"/>
      <point x="858.401" y="28.7676" type="curve" smooth="yes"/>
      <point x="865.309" y="28.6787" type="line"/>
      <point x="865.309" y="0" type="line"/>
      <point x="700.186" y="0" type="line"/>
      <point x="700.186" y="28.6113" type="line"/>
      <point x="707.093" y="28.6992" type="line" smooth="yes"/>
      <point x="722.729" y="28.8994"/>
      <point x="734.221" y="42.3564"/>
      <point x="736.413" y="53.6758" type="curve"/>
      <point x="736.413" y="341.447" type="line" smooth="yes"/>
      <point x="736.413" y="418.107"/>
      <point x="695.946" y="466.936"/>
      <point x="633.635" y="466.936" type="curve" smooth="yes"/>
      <point x="594.698" y="466.936"/>
      <point x="548.656" y="455.312"/>
      <point x="507.83" y="394.262" type="curve"/>
      <point x="509.094" y="388.044"/>
      <point x="509.34" y="385.353"/>
      <point x="509.34" y="379.859" type="curve" smooth="yes"/>
      <point x="509.271" y="53.3809" type="line"/>
      <point x="511.661" y="41.7295"/>
      <point x="523.125" y="28.8965"/>
      <point x="538.534" y="28.6992" type="curve" smooth="yes"/>
      <point x="545.441" y="28.6113" type="line"/>
      <point x="545.441" y="0" type="line"/>
      <point x="373.32" y="0" type="line"/>
      <point x="373.32" y="28.6123" type="line"/>
      <point x="380.228" y="28.7012" type="line" smooth="yes"/>
      <point x="395.864" y="28.9014"/>
      <point x="407.341" y="42.3584"/>
      <point x="409.545" y="53.668" type="curve"/>
      <point x="409.545" y="348.265" type="line" smooth="yes"/>
      <point x="409.545" y="414.315"/>
      <point x="365.392" y="467.936"/>
      <point x="298.225" y="467.936" type="curve" smooth="yes"/>
      <point x="256.185" y="467.936"/>
      <point x="234.319" y="455.345"/>
      <point x="196.989" y="429.393" type="curve"/>
    </contour>
  </outline>
</glyph>
<glyph name="n" format="1">
  <advance width="588"/>
  <unicode hex="006E"/>
  <outline>
    <contour>
      <point x="191.91" y="51.3643" type="line"/>
      <point x="194.304" y="39.7275"/>
      <point x="205.771" y="28.8984"/>
      <point x="221.171" y="28.6992" type="curve" smooth="yes"/>
      <point x="228.077" y="28.6094" type="line"/>
      <point x="228.077" y="0" type="line"/>
      <point x="52" y="0" type="line"/>
      <point x="52" y="28.5977" type="line"/>
      <point x="58.9062" y="28.6875" type="line" smooth="yes"/>
      <point x="74.5439" y="28.8906"/>
      <point x="86.0332" y="42.3418"/>
      <point x="88.2285" y="53.6621" type="curve"/>
      <point x="88.2285" y="431.092" type="line" smooth="yes"/>
      <point x="88.2285" y="451.943"/>
      <point x="78.2158" y="461.516"/>
      <point x="61.4092" y="461.516" type="curve" smooth="yes"/>
      <point x="54.4092" y="461.516" type="line"/>
      <point x="54.4092" y="487.535" type="line"/>
      <point x="173.331" y="513.081" type="line" smooth="yes"/>
      <point x="173.829" y="513.208"/>
      <point x="175.846" y="514"/>
      <point x="179" y="514" type="curve" smooth="yes"/>
      <point x="189.983" y="514"/>
      <point x="192.002" y="503.517"/>
      <point x="192.002" y="489.446" type="curve" smooth="yes"/>
      <point x="192.002" y="483.802"/>
      <point x="192" y="483.819"/>
      <point x="191.998" y="478.393" type="curve"/>
      <point x="231.577" y="504.037"/>
      <point x="259.527" y="512.336"/>
      <point x="317.74" y="512.336" type="curve" smooth="yes"/>
      <point x="405.374" y="512.336"/>
      <point x="507.499" y="459.078"/>
      <point x="507.499" y="349.129" type="curve" smooth="yes"/>
      <point x="507.432" y="52.75" type="line"/>
      <point x="509.993" y="41.7539"/>
      <point x="521.537" y="28.9629"/>
      <point x="536.535" y="28.7686" type="curve" smooth="yes"/>
      <point x="543.441" y="28.6787" type="line"/>
      <point x="543.441" y="0" type="line"/>
      <point x="378.32" y="0" type="line"/>
      <point x="378.32" y="28.6094" type="line"/>
      <point x="385.227" y="28.6992" type="line" smooth="yes"/>
      <point x="401.398" y="28.9092"/>
      <point x="412.646" y="42.3223"/>
      <point x="414.704" y="54.584" type="curve"/>
      <point x="414.704" y="358.346" type="line" smooth="yes"/>
      <point x="414.704" y="424.396"/>
      <point x="363.565" y="477.017"/>
      <point x="296.399" y="477.017" type="curve" smooth="yes"/>
      <point x="262.226" y="477.017"/>
      <point x="231.085" y="468.833"/>
      <point x="191.99" y="441.681" type="curve"/>
    </contour>
  </outline>
</glyph>
<glyph name="p" format="1">
  <advance width="569"/>
  <unicode hex="0070"/>
  <outline>
    <contour>
      <point x="182.954" y="-178.317" type="line"/>
      <point x="185.37" y="-190.441"/>
      <point x="197.661" y="-203.233"/>
      <point x="213.777" y="-203.438" type="curve" smooth="yes"/>
      <point x="219.111" y="-203.53" type="line"/>
      <point x="219.111" y="-232" type="line"/>
      <point x="43" y="-232" type="line"/>
      <point x="43" y="-203.53" type="line"/>
      <point x="49.9062" y="-203.438" type="line" smooth="yes"/>
      <point x="65.7227" y="-203.225"/>
      <point x="77.0322" y="-189.611"/>
      <point x="79.2266" y="-178.021" type="curve"/>
      <point x="79.2266" y="430.517" type="line" smooth="yes"/>
      <point x="79.2266" y="451.506"/>
      <point x="69.2646" y="461.2"/>
      <point x="52.4092" y="461.2" type="curve" smooth="yes"/>
      <point x="45.4092" y="461.2" type="line"/>
      <point x="45.4092" y="487.162" type="line"/>
      <point x="165.308" y="512.746" type="line" smooth="yes"/>
      <point x="167.011" y="513.2"/>
      <point x="169.62" y="513.366"/>
      <point x="171" y="513.366" type="curve" smooth="yes"/>
      <point x="182.768" y="513.366"/>
      <point x="183.012" y="493.946"/>
      <point x="183.049" y="484.13" type="curve" smooth="yes"/>
      <point x="183.049" y="484.748"/>
      <point x="183.048" y="485.414"/>
      <point x="183.047" y="486" type="curve"/>
      <point x="216.877" y="499.777"/>
      <point x="243.912" y="512.063"/>
      <point x="293.047" y="512.063" type="curve" smooth="yes"/>
      <point x="428.123" y="512.063"/>
      <point x="529.173" y="432.145"/>
      <point x="529.173" y="249.925" type="curve" smooth="yes"/>
      <point x="529.173" y="64.6895"/>
      <point x="454.995" y="-9.79688"/>
      <point x="295.933" y="-9.79688" type="curve" smooth="yes"/>
      <point x="258.321" y="-9.79688"/>
      <point x="224.884" y="-4.60156"/>
      <point x="182.982" y="15" type="curve"/>
    </contour>
    <contour>
      <point x="284.818" y="468.146" type="curve" smooth="yes"/>
      <point x="255.872" y="468.146"/>
      <point x="220.968" y="455.664"/>
      <point x="183.041" y="433.397" type="curve"/>
      <point x="182.997" y="113.896" type="line"/>
      <point x="196.632" y="64.6025"/>
      <point x="236.729" y="20.9893"/>
      <point x="304.14" y="20.9893" type="curve" smooth="yes"/>
      <point x="382.453" y="20.9893"/>
      <point x="428.152" y="109.162"/>
      <point x="428.152" y="225.717" type="curve" smooth="yes"/>
      <point x="428.152" y="380.362"/>
      <point x="403.609" y="468.146"/>
    </contour>
  </outline>
</glyph>
<glyph name="q" format="1">
  <advance width="592"/>
  <unicode hex="0071"/>
  <outline>
    <contour>
      <point x="164.544" y="274.396" type="curve" smooth="yes"/>
      <point x="164.544" y="153.192"/>
      <point x="202.259" y="33.0117"/>
      <point x="312.158" y="33.0117" type="curve" smooth="yes"/>
      <point x="339.52" y="33.0117"/>
      <point x="378.027" y="46.3506"/>
      <point x="410.046" y="68.0859" type="curve"/>
      <point x="410.195" y="409.908" type="line" smooth="yes"/>
      <point x="410.195" y="411.364"/>
      <point x="409.952" y="412.279"/>
      <point x="409.946" y="412.298" type="curve"/>
      <point x="378.582" y="445.725"/>
      <point x="345.84" y="480.217"/>
      <point x="294.677" y="480.217" type="curve" smooth="yes"/>
      <point x="234.646" y="480.217"/>
      <point x="164.544" y="421.654"/>
    </contour>
    <contour>
      <point x="411.1" y="480" type="curve"/>
      <point x="493.752" y="508.219" type="line" smooth="yes"/>
      <point x="496.831" y="509.123"/>
      <point x="498.984" y="509.771"/>
      <point x="501" y="509.771" type="curve" smooth="yes"/>
      <point x="513.669" y="509.771"/>
      <point x="513.869" y="494.727"/>
      <point x="513.869" y="485.615" type="curve" smooth="yes"/>
      <point x="513.772" y="-177.324" type="line"/>
      <point x="516.152" y="-189.256"/>
      <point x="527.452" y="-202.229"/>
      <point x="543.035" y="-202.438" type="curve" smooth="yes"/>
      <point x="549.941" y="-202.53" type="line"/>
      <point x="549.941" y="-232" type="line"/>
      <point x="373.92" y="-232" type="line"/>
      <point x="373.92" y="-202.53" type="line"/>
      <point x="381.234" y="-202.438" type="line" smooth="yes"/>
      <point x="397.559" y="-202.23"/>
      <point x="407.828" y="-188.803"/>
      <point x="410.045" y="-177.017" type="curve"/>
      <point x="410.045" y="20.7559" type="line"/>
      <point x="372.605" y="4.05469"/>
      <point x="346.175" y="-13.1143"/>
      <point x="299.327" y="-13.1143" type="curve" smooth="yes"/>
      <point x="159.941" y="-13.1143"/>
      <point x="63.9961" y="76.9316"/>
      <point x="63.9961" y="249.761" type="curve" smooth="yes"/>
      <point x="63.9961" y="438.352"/>
      <point x="139.599" y="511.807"/>
      <point x="293.149" y="511.807" type="curve" smooth="yes"/>
      <point x="331.961" y="511.807"/>
      <point x="367.937" y="499.319"/>
    </contour>
  </outline>
</glyph>
<glyph name="r" format="1">
  <advance width="425"/>
  <unicode hex="0072"/>
  <outline>
    <contour>
      <point x="324.62" y="501.383" type="curve" smooth="yes"/>
      <point x="342.584" y="501.383"/>
      <point x="398.862" y="491.355"/>
      <point x="398.862" y="462.882" type="curve" smooth="yes"/>
      <point x="398.862" y="430.757"/>
      <point x="364.214" y="411.288"/>
      <point x="339.485" y="411.288" type="curve" smooth="yes"/>
      <point x="313.132" y="411.288"/>
      <point x="287.346" y="434.11"/>
      <point x="267.16" y="434.11" type="curve" smooth="yes"/>
      <point x="233.142" y="434.11"/>
      <point x="203.48" y="402.542"/>
      <point x="194.004" y="382.146" type="curve"/>
      <point x="193.933" y="53.2783" type="line"/>
      <point x="196.409" y="42.2471"/>
      <point x="209.073" y="28.7783"/>
      <point x="221.783" y="28.6387" type="curve" smooth="yes"/>
      <point x="229.856" y="28.5498" type="line"/>
      <point x="229.856" y="0" type="line"/>
      <point x="54" y="0" type="line"/>
      <point x="54" y="28.6865" type="line"/>
      <point x="60.9072" y="28.7754" type="line" smooth="yes"/>
      <point x="76.5635" y="28.9756"/>
      <point x="88.0352" y="42.4434"/>
      <point x="90.2285" y="53.792" type="curve"/>
      <point x="90.2285" y="432.709" type="line" smooth="yes"/>
      <point x="90.2285" y="452.832"/>
      <point x="79.9873" y="460.604"/>
      <point x="63.4092" y="460.604" type="curve" smooth="yes"/>
      <point x="56.4092" y="460.604" type="line"/>
      <point x="56.4092" y="485.797" type="line"/>
      <point x="176.188" y="512.676" type="line" smooth="yes"/>
      <point x="177.909" y="513.162"/>
      <point x="179.556" y="513.354"/>
      <point x="181" y="513.354" type="curve" smooth="yes"/>
      <point x="193.768" y="513.354"/>
      <point x="194.027" y="498.857"/>
      <point x="194.027" y="489.085" type="curve" smooth="yes"/>
      <point x="194.019" y="446.984" type="line"/>
      <point x="228.837" y="477.385"/>
      <point x="274.902" y="501.383"/>
    </contour>
  </outline>
</glyph>
<glyph name="s" format="1">
  <advance width="449"/>
  <unicode hex="0073"/>
  <outline>
    <contour>
      <point x="113.877" y="136.183" type="curve" smooth="yes"/>
      <point x="119.624" y="102.026"/>
      <point x="146.009" y="30.4434"/>
      <point x="225.234" y="30.4434" type="curve" smooth="yes"/>
      <point x="276.084" y="30.4434"/>
      <point x="304.924" y="73.7119"/>
      <point x="304.924" y="112.604" type="curve" smooth="yes"/>
      <point x="304.924" y="149.174"/>
      <point x="266.746" y="186.134"/>
      <point x="213.701" y="217.472" type="curve" smooth="yes"/>
      <point x="167.258" y="245.059"/>
      <point x="82.6777" y="301.299"/>
      <point x="82.6777" y="370.006" type="curve" smooth="yes"/>
      <point x="82.6777" y="449.795"/>
      <point x="140.826" y="505.729"/>
      <point x="246.946" y="505.729" type="curve" smooth="yes"/>
      <point x="307.384" y="505.729"/>
      <point x="372.122" y="487.637"/>
      <point x="372.122" y="464" type="curve" smooth="yes"/>
      <point x="372.122" y="453.447"/>
      <point x="367.079" y="392.337"/>
      <point x="341" y="392.337" type="curve" smooth="yes"/>
      <point x="309.242" y="392.337"/>
      <point x="309.823" y="469.515"/>
      <point x="249.385" y="469.515" type="curve" smooth="yes"/>
      <point x="194.304" y="469.515"/>
      <point x="179.161" y="422.018"/>
      <point x="179.161" y="399.093" type="curve" smooth="yes"/>
      <point x="179.161" y="352.292"/>
      <point x="239.63" y="318.199"/>
      <point x="282.734" y="291.751" type="curve" smooth="yes"/>
      <point x="335.958" y="255.188"/>
      <point x="398.715" y="214.924"/>
      <point x="398.715" y="143.518" type="curve" smooth="yes"/>
      <point x="398.715" y="48.832"/>
      <point x="324.263" y="-10"/>
      <point x="224.518" y="-10" type="curve" smooth="yes"/>
      <point x="104.217" y="-10"/>
      <point x="49.0039" y="49.1689"/>
      <point x="49.0039" y="83" type="curve" smooth="yes"/>
      <point x="49.0039" y="101.435"/>
      <point x="74.2588" y="147.543"/>
      <point x="100" y="147.543" type="curve" smooth="yes"/>
      <point x="105.675" y="147.543"/>
      <point x="113.148" y="140.517"/>
    </contour>
  </outline>
</glyph>
<glyph name="t" format="1">
  <advance width="380"/>
  <unicode hex="0074"/>
  <outline>
    <contour>
      <point x="314.12" y="35.2939" type="curve"/>
      <point x="321.471" y="1.69043" type="line"/>
      <point x="301.878" y="-4.68555"/>
      <point x="289.785" y="-10.1855"/>
      <point x="269" y="-10.1855" type="curve" smooth="yes"/>
      <point x="229.352" y="-10.1855"/>
      <point x="176.549" y="-0.425781"/>
      <point x="152.071" y="24.0498" type="curve" smooth="yes"/>
      <point x="121.167" y="54.9521"/>
      <point x="119.274" y="111.658"/>
      <point x="119.079" y="168.752" type="curve"/>
      <point x="119.055" y="266.175"/>
      <point x="118.965" y="357.619"/>
      <point x="118.94" y="453.132" type="curve" smooth="yes"/>
      <point x="118.938" y="468.586"/>
      <point x="114.327" y="471.945"/>
      <point x="105.241" y="473.785" type="curve" smooth="yes"/>
      <point x="101.444" y="474.554"/>
      <point x="62.6445" y="474.885"/>
      <point x="55.5459" y="476.159" type="curve" smooth="yes"/>
      <point x="50.4531" y="477.073"/>
      <point x="46.0322" y="480.042"/>
      <point x="46.0322" y="490" type="curve" smooth="yes"/>
      <point x="46.0322" y="496.313"/>
      <point x="59.7623" y="503.391"/>
      <point x="76" y="513" type="curve" smooth="yes"/>
      <point x="117.398" y="537.499"/>
      <point x="130.251" y="545.138"/>
      <point x="165.711" y="577.013" type="curve" smooth="yes"/>
      <point x="170.116" y="580.973"/>
      <point x="183.157" y="591.791"/>
      <point x="196" y="591.791" type="curve" smooth="yes"/>
      <point x="211.192" y="591.791"/>
      <point x="222.775" y="578.823"/>
      <point x="222.775" y="563.876" type="curve" smooth="yes"/>
      <point x="222.775" y="545.519"/>
      <point x="222.768" y="528.067"/>
      <point x="222.766" y="509.775" type="curve"/>
      <point x="260.141" y="510.084"/>
      <point x="298.079" y="510.668"/>
      <point x="310" y="510.668" type="curve" smooth="yes"/>
      <point x="328.879" y="510.668"/>
      <point x="340.187" y="501.289"/>
      <point x="340.187" y="488" type="curve" smooth="yes"/>
      <point x="340.187" y="482.48"/>
      <point x="336.032" y="470.475"/>
      <point x="333.577" y="466.602" type="curve"/>
      <point x="327" y="466.602" type="line" smooth="yes"/>
      <point x="318.804" y="466.602"/>
      <point x="277.081" y="467.534"/>
      <point x="237" y="467.534" type="curve" smooth="yes"/>
      <point x="232.169" y="467.534"/>
      <point x="227.164" y="467.518"/>
      <point x="222.759" y="467.492" type="curve"/>
      <point x="222.75" y="413.467"/>
      <point x="222.719" y="349.85"/>
      <point x="222.71" y="295.983" type="curve" smooth="yes"/>
      <point x="222.71" y="163.771" type="line" smooth="yes"/>
      <point x="222.71" y="138.762"/>
      <point x="223.43" y="89.1074"/>
      <point x="228.712" y="73.4365" type="curve" smooth="yes"/>
      <point x="239.351" y="41.875"/>
      <point x="259.408" y="30.2012"/>
      <point x="286" y="30.2012" type="curve" smooth="yes"/>
      <point x="294.25" y="30.2012"/>
      <point x="305.437" y="32.8145"/>
    </contour>
  </outline>
</glyph>
<glyph name="u" format="1">
  <advance width="590"/>
  <unicode hex="0075"/>
  <outline>
    <contour>
      <point x="530.181" y="58.9199" type="curve"/>
      <point x="536.659" y="20.6797" type="line"/>
      <point x="506.008" y="7.31836"/>
      <point x="463.023" y="-7.88672"/>
      <point x="433.129" y="-7.88672" type="curve" smooth="yes"/>
      <point x="402.568" y="-7.88672"/>
      <point x="399.979" y="13.0215"/>
      <point x="399.69" y="23.3604" type="curve"/>
      <point x="353.589" y="-5.94434"/>
      <point x="321.378" y="-10"/>
      <point x="257.453" y="-10" type="curve" smooth="yes"/>
      <point x="170.716" y="-10"/>
      <point x="73.7461" y="30.1387"/>
      <point x="73.7461" y="140.537" type="curve" smooth="yes"/>
      <point x="73.8203" y="422.058" type="line" smooth="yes"/>
      <point x="73.8203" y="442.186"/>
      <point x="63.5811" y="456.958"/>
      <point x="47" y="456.958" type="curve" smooth="yes"/>
      <point x="40" y="456.958" type="line"/>
      <point x="40" y="482.379" type="line"/>
      <point x="150.076" y="508.22" type="line" smooth="yes"/>
      <point x="151.154" y="508.478"/>
      <point x="152.407" y="508.746"/>
      <point x="154" y="508.746" type="curve" smooth="yes"/>
      <point x="166.651" y="508.746"/>
      <point x="167.643" y="495.735"/>
      <point x="167.643" y="485.254" type="curve" smooth="yes"/>
      <point x="167.541" y="156.024" type="line" smooth="yes"/>
      <point x="167.541" y="89.9551"/>
      <point x="207.134" y="35.3203"/>
      <point x="282.221" y="35.3203" type="curve" smooth="yes"/>
      <point x="319.069" y="35.3203"/>
      <point x="357.081" y="50.2832"/>
      <point x="399.656" y="78.3721" type="curve"/>
      <point x="400.557" y="421.621" type="line" smooth="yes"/>
      <point x="400.551" y="441.863"/>
      <point x="388.243" y="457.444"/>
      <point x="374.13" y="457.444" type="curve" smooth="yes"/>
      <point x="366.711" y="457.444" type="line"/>
      <point x="366.711" y="482.975" type="line"/>
      <point x="477.527" y="509.281" type="line" smooth="yes"/>
      <point x="478.499" y="509.472"/>
      <point x="479.614" y="509.666"/>
      <point x="481" y="509.666" type="curve" smooth="yes"/>
      <point x="493.633" y="509.666"/>
      <point x="493.813" y="496.972"/>
      <point x="493.813" y="486.193" type="curve" smooth="yes"/>
      <point x="493.753" y="50.6182" type="line"/>
      <point x="505.179" y="52.8701"/>
      <point x="519.381" y="55.8145"/>
    </contour>
  </outline>
</glyph>
